<?xml version="1.0" encoding="utf-8" standalone="no"?>
<!DOCTYPE svg PUBLIC "-//W3C//DTD SVG 1.1//EN"
  "http://www.w3.org/Graphics/SVG/1.1/DTD/svg11.dtd">
<svg xmlns:xlink="http://www.w3.org/1999/xlink" width="432pt" height="288pt" viewBox="0 0 432 288" xmlns="http://www.w3.org/2000/svg" version="1.1">
 <metadata>
  <rdf:RDF xmlns:dc="http://purl.org/dc/elements/1.1/" xmlns:cc="http://creativecommons.org/ns#" xmlns:rdf="http://www.w3.org/1999/02/22-rdf-syntax-ns#">
   <cc:Work>
    <dc:type rdf:resource="http://purl.org/dc/dcmitype/StillImage"/>
    <dc:date>2023-05-19T11:15:05.673176</dc:date>
    <dc:format>image/svg+xml</dc:format>
    <dc:creator>
     <cc:Agent>
      <dc:title>Matplotlib v3.7.1, https://matplotlib.org/</dc:title>
     </cc:Agent>
    </dc:creator>
   </cc:Work>
  </rdf:RDF>
 </metadata>
 <defs>
  <style type="text/css">*{stroke-linejoin: round; stroke-linecap: butt}</style>
 </defs>
 <g id="figure_1">
  <g id="patch_1">
   <path d="M 0 288 
L 432 288 
L 432 0 
L 0 0 
z
" style="fill: #ffffff"/>
  </g>
  <g id="axes_1">
   <g id="patch_2">
    <path d="M 54 256.32 
L 388.8 256.32 
L 388.8 34.56 
L 54 34.56 
z
" style="fill: #ffffff"/>
   </g>
   <g id="matplotlib.axis_1">
    <g id="xtick_1">
     <g id="line2d_1">
      <defs>
       <path id="m71fbe52f4f" d="M 0 0 
L 0 3.5 
" style="stroke: #000000; stroke-width: 0.8"/>
      </defs>
      <g>
       <use xlink:href="#m71fbe52f4f" x="54" y="256.32" style="stroke: #000000; stroke-width: 0.8"/>
      </g>
     </g>
     <g id="text_1">
      <!-- 0 -->
      <g transform="translate(50.81875 270.918437) scale(0.1 -0.1)">
       <defs>
        <path id="DejaVuSans-30" d="M 2034 4250 
Q 1547 4250 1301 3770 
Q 1056 3291 1056 2328 
Q 1056 1369 1301 889 
Q 1547 409 2034 409 
Q 2525 409 2770 889 
Q 3016 1369 3016 2328 
Q 3016 3291 2770 3770 
Q 2525 4250 2034 4250 
z
M 2034 4750 
Q 2819 4750 3233 4129 
Q 3647 3509 3647 2328 
Q 3647 1150 3233 529 
Q 2819 -91 2034 -91 
Q 1250 -91 836 529 
Q 422 1150 422 2328 
Q 422 3509 836 4129 
Q 1250 4750 2034 4750 
z
" transform="scale(0.015625)"/>
       </defs>
       <use xlink:href="#DejaVuSans-30"/>
      </g>
     </g>
    </g>
    <g id="xtick_2">
     <g id="line2d_2">
      <g>
       <use xlink:href="#m71fbe52f4f" x="91.2" y="256.32" style="stroke: #000000; stroke-width: 0.8"/>
      </g>
     </g>
     <g id="text_2">
      <!-- 1000 -->
      <g transform="translate(78.475 270.918437) scale(0.1 -0.1)">
       <defs>
        <path id="DejaVuSans-31" d="M 794 531 
L 1825 531 
L 1825 4091 
L 703 3866 
L 703 4441 
L 1819 4666 
L 2450 4666 
L 2450 531 
L 3481 531 
L 3481 0 
L 794 0 
L 794 531 
z
" transform="scale(0.015625)"/>
       </defs>
       <use xlink:href="#DejaVuSans-31"/>
       <use xlink:href="#DejaVuSans-30" x="63.623047"/>
       <use xlink:href="#DejaVuSans-30" x="127.246094"/>
       <use xlink:href="#DejaVuSans-30" x="190.869141"/>
      </g>
     </g>
    </g>
    <g id="xtick_3">
     <g id="line2d_3">
      <g>
       <use xlink:href="#m71fbe52f4f" x="128.4" y="256.32" style="stroke: #000000; stroke-width: 0.8"/>
      </g>
     </g>
     <g id="text_3">
      <!-- 2000 -->
      <g transform="translate(115.675 270.918437) scale(0.1 -0.1)">
       <defs>
        <path id="DejaVuSans-32" d="M 1228 531 
L 3431 531 
L 3431 0 
L 469 0 
L 469 531 
Q 828 903 1448 1529 
Q 2069 2156 2228 2338 
Q 2531 2678 2651 2914 
Q 2772 3150 2772 3378 
Q 2772 3750 2511 3984 
Q 2250 4219 1831 4219 
Q 1534 4219 1204 4116 
Q 875 4013 500 3803 
L 500 4441 
Q 881 4594 1212 4672 
Q 1544 4750 1819 4750 
Q 2544 4750 2975 4387 
Q 3406 4025 3406 3419 
Q 3406 3131 3298 2873 
Q 3191 2616 2906 2266 
Q 2828 2175 2409 1742 
Q 1991 1309 1228 531 
z
" transform="scale(0.015625)"/>
       </defs>
       <use xlink:href="#DejaVuSans-32"/>
       <use xlink:href="#DejaVuSans-30" x="63.623047"/>
       <use xlink:href="#DejaVuSans-30" x="127.246094"/>
       <use xlink:href="#DejaVuSans-30" x="190.869141"/>
      </g>
     </g>
    </g>
    <g id="xtick_4">
     <g id="line2d_4">
      <g>
       <use xlink:href="#m71fbe52f4f" x="165.6" y="256.32" style="stroke: #000000; stroke-width: 0.8"/>
      </g>
     </g>
     <g id="text_4">
      <!-- 3000 -->
      <g transform="translate(152.875 270.918437) scale(0.1 -0.1)">
       <defs>
        <path id="DejaVuSans-33" d="M 2597 2516 
Q 3050 2419 3304 2112 
Q 3559 1806 3559 1356 
Q 3559 666 3084 287 
Q 2609 -91 1734 -91 
Q 1441 -91 1130 -33 
Q 819 25 488 141 
L 488 750 
Q 750 597 1062 519 
Q 1375 441 1716 441 
Q 2309 441 2620 675 
Q 2931 909 2931 1356 
Q 2931 1769 2642 2001 
Q 2353 2234 1838 2234 
L 1294 2234 
L 1294 2753 
L 1863 2753 
Q 2328 2753 2575 2939 
Q 2822 3125 2822 3475 
Q 2822 3834 2567 4026 
Q 2313 4219 1838 4219 
Q 1578 4219 1281 4162 
Q 984 4106 628 3988 
L 628 4550 
Q 988 4650 1302 4700 
Q 1616 4750 1894 4750 
Q 2613 4750 3031 4423 
Q 3450 4097 3450 3541 
Q 3450 3153 3228 2886 
Q 3006 2619 2597 2516 
z
" transform="scale(0.015625)"/>
       </defs>
       <use xlink:href="#DejaVuSans-33"/>
       <use xlink:href="#DejaVuSans-30" x="63.623047"/>
       <use xlink:href="#DejaVuSans-30" x="127.246094"/>
       <use xlink:href="#DejaVuSans-30" x="190.869141"/>
      </g>
     </g>
    </g>
    <g id="xtick_5">
     <g id="line2d_5">
      <g>
       <use xlink:href="#m71fbe52f4f" x="202.8" y="256.32" style="stroke: #000000; stroke-width: 0.8"/>
      </g>
     </g>
     <g id="text_5">
      <!-- 4000 -->
      <g transform="translate(190.075 270.918437) scale(0.1 -0.1)">
       <defs>
        <path id="DejaVuSans-34" d="M 2419 4116 
L 825 1625 
L 2419 1625 
L 2419 4116 
z
M 2253 4666 
L 3047 4666 
L 3047 1625 
L 3713 1625 
L 3713 1100 
L 3047 1100 
L 3047 0 
L 2419 0 
L 2419 1100 
L 313 1100 
L 313 1709 
L 2253 4666 
z
" transform="scale(0.015625)"/>
       </defs>
       <use xlink:href="#DejaVuSans-34"/>
       <use xlink:href="#DejaVuSans-30" x="63.623047"/>
       <use xlink:href="#DejaVuSans-30" x="127.246094"/>
       <use xlink:href="#DejaVuSans-30" x="190.869141"/>
      </g>
     </g>
    </g>
    <g id="xtick_6">
     <g id="line2d_6">
      <g>
       <use xlink:href="#m71fbe52f4f" x="240" y="256.32" style="stroke: #000000; stroke-width: 0.8"/>
      </g>
     </g>
     <g id="text_6">
      <!-- 5000 -->
      <g transform="translate(227.275 270.918437) scale(0.1 -0.1)">
       <defs>
        <path id="DejaVuSans-35" d="M 691 4666 
L 3169 4666 
L 3169 4134 
L 1269 4134 
L 1269 2991 
Q 1406 3038 1543 3061 
Q 1681 3084 1819 3084 
Q 2600 3084 3056 2656 
Q 3513 2228 3513 1497 
Q 3513 744 3044 326 
Q 2575 -91 1722 -91 
Q 1428 -91 1123 -41 
Q 819 9 494 109 
L 494 744 
Q 775 591 1075 516 
Q 1375 441 1709 441 
Q 2250 441 2565 725 
Q 2881 1009 2881 1497 
Q 2881 1984 2565 2268 
Q 2250 2553 1709 2553 
Q 1456 2553 1204 2497 
Q 953 2441 691 2322 
L 691 4666 
z
" transform="scale(0.015625)"/>
       </defs>
       <use xlink:href="#DejaVuSans-35"/>
       <use xlink:href="#DejaVuSans-30" x="63.623047"/>
       <use xlink:href="#DejaVuSans-30" x="127.246094"/>
       <use xlink:href="#DejaVuSans-30" x="190.869141"/>
      </g>
     </g>
    </g>
    <g id="xtick_7">
     <g id="line2d_7">
      <g>
       <use xlink:href="#m71fbe52f4f" x="277.2" y="256.32" style="stroke: #000000; stroke-width: 0.8"/>
      </g>
     </g>
     <g id="text_7">
      <!-- 6000 -->
      <g transform="translate(264.475 270.918437) scale(0.1 -0.1)">
       <defs>
        <path id="DejaVuSans-36" d="M 2113 2584 
Q 1688 2584 1439 2293 
Q 1191 2003 1191 1497 
Q 1191 994 1439 701 
Q 1688 409 2113 409 
Q 2538 409 2786 701 
Q 3034 994 3034 1497 
Q 3034 2003 2786 2293 
Q 2538 2584 2113 2584 
z
M 3366 4563 
L 3366 3988 
Q 3128 4100 2886 4159 
Q 2644 4219 2406 4219 
Q 1781 4219 1451 3797 
Q 1122 3375 1075 2522 
Q 1259 2794 1537 2939 
Q 1816 3084 2150 3084 
Q 2853 3084 3261 2657 
Q 3669 2231 3669 1497 
Q 3669 778 3244 343 
Q 2819 -91 2113 -91 
Q 1303 -91 875 529 
Q 447 1150 447 2328 
Q 447 3434 972 4092 
Q 1497 4750 2381 4750 
Q 2619 4750 2861 4703 
Q 3103 4656 3366 4563 
z
" transform="scale(0.015625)"/>
       </defs>
       <use xlink:href="#DejaVuSans-36"/>
       <use xlink:href="#DejaVuSans-30" x="63.623047"/>
       <use xlink:href="#DejaVuSans-30" x="127.246094"/>
       <use xlink:href="#DejaVuSans-30" x="190.869141"/>
      </g>
     </g>
    </g>
    <g id="xtick_8">
     <g id="line2d_8">
      <g>
       <use xlink:href="#m71fbe52f4f" x="314.4" y="256.32" style="stroke: #000000; stroke-width: 0.8"/>
      </g>
     </g>
     <g id="text_8">
      <!-- 7000 -->
      <g transform="translate(301.675 270.918437) scale(0.1 -0.1)">
       <defs>
        <path id="DejaVuSans-37" d="M 525 4666 
L 3525 4666 
L 3525 4397 
L 1831 0 
L 1172 0 
L 2766 4134 
L 525 4134 
L 525 4666 
z
" transform="scale(0.015625)"/>
       </defs>
       <use xlink:href="#DejaVuSans-37"/>
       <use xlink:href="#DejaVuSans-30" x="63.623047"/>
       <use xlink:href="#DejaVuSans-30" x="127.246094"/>
       <use xlink:href="#DejaVuSans-30" x="190.869141"/>
      </g>
     </g>
    </g>
    <g id="xtick_9">
     <g id="line2d_9">
      <g>
       <use xlink:href="#m71fbe52f4f" x="351.6" y="256.32" style="stroke: #000000; stroke-width: 0.8"/>
      </g>
     </g>
     <g id="text_9">
      <!-- 8000 -->
      <g transform="translate(338.875 270.918437) scale(0.1 -0.1)">
       <defs>
        <path id="DejaVuSans-38" d="M 2034 2216 
Q 1584 2216 1326 1975 
Q 1069 1734 1069 1313 
Q 1069 891 1326 650 
Q 1584 409 2034 409 
Q 2484 409 2743 651 
Q 3003 894 3003 1313 
Q 3003 1734 2745 1975 
Q 2488 2216 2034 2216 
z
M 1403 2484 
Q 997 2584 770 2862 
Q 544 3141 544 3541 
Q 544 4100 942 4425 
Q 1341 4750 2034 4750 
Q 2731 4750 3128 4425 
Q 3525 4100 3525 3541 
Q 3525 3141 3298 2862 
Q 3072 2584 2669 2484 
Q 3125 2378 3379 2068 
Q 3634 1759 3634 1313 
Q 3634 634 3220 271 
Q 2806 -91 2034 -91 
Q 1263 -91 848 271 
Q 434 634 434 1313 
Q 434 1759 690 2068 
Q 947 2378 1403 2484 
z
M 1172 3481 
Q 1172 3119 1398 2916 
Q 1625 2713 2034 2713 
Q 2441 2713 2670 2916 
Q 2900 3119 2900 3481 
Q 2900 3844 2670 4047 
Q 2441 4250 2034 4250 
Q 1625 4250 1398 4047 
Q 1172 3844 1172 3481 
z
" transform="scale(0.015625)"/>
       </defs>
       <use xlink:href="#DejaVuSans-38"/>
       <use xlink:href="#DejaVuSans-30" x="63.623047"/>
       <use xlink:href="#DejaVuSans-30" x="127.246094"/>
       <use xlink:href="#DejaVuSans-30" x="190.869141"/>
      </g>
     </g>
    </g>
    <g id="xtick_10">
     <g id="line2d_10">
      <g>
       <use xlink:href="#m71fbe52f4f" x="388.8" y="256.32" style="stroke: #000000; stroke-width: 0.8"/>
      </g>
     </g>
     <g id="text_10">
      <!-- 9000 -->
      <g transform="translate(376.075 270.918437) scale(0.1 -0.1)">
       <defs>
        <path id="DejaVuSans-39" d="M 703 97 
L 703 672 
Q 941 559 1184 500 
Q 1428 441 1663 441 
Q 2288 441 2617 861 
Q 2947 1281 2994 2138 
Q 2813 1869 2534 1725 
Q 2256 1581 1919 1581 
Q 1219 1581 811 2004 
Q 403 2428 403 3163 
Q 403 3881 828 4315 
Q 1253 4750 1959 4750 
Q 2769 4750 3195 4129 
Q 3622 3509 3622 2328 
Q 3622 1225 3098 567 
Q 2575 -91 1691 -91 
Q 1453 -91 1209 -44 
Q 966 3 703 97 
z
M 1959 2075 
Q 2384 2075 2632 2365 
Q 2881 2656 2881 3163 
Q 2881 3666 2632 3958 
Q 2384 4250 1959 4250 
Q 1534 4250 1286 3958 
Q 1038 3666 1038 3163 
Q 1038 2656 1286 2365 
Q 1534 2075 1959 2075 
z
" transform="scale(0.015625)"/>
       </defs>
       <use xlink:href="#DejaVuSans-39"/>
       <use xlink:href="#DejaVuSans-30" x="63.623047"/>
       <use xlink:href="#DejaVuSans-30" x="127.246094"/>
       <use xlink:href="#DejaVuSans-30" x="190.869141"/>
      </g>
     </g>
    </g>
    <g id="text_11">
     <!-- Reaction time (secs) -->
     <g transform="translate(170.272656 284.596563) scale(0.1 -0.1)">
      <defs>
       <path id="DejaVuSans-52" d="M 2841 2188 
Q 3044 2119 3236 1894 
Q 3428 1669 3622 1275 
L 4263 0 
L 3584 0 
L 2988 1197 
Q 2756 1666 2539 1819 
Q 2322 1972 1947 1972 
L 1259 1972 
L 1259 0 
L 628 0 
L 628 4666 
L 2053 4666 
Q 2853 4666 3247 4331 
Q 3641 3997 3641 3322 
Q 3641 2881 3436 2590 
Q 3231 2300 2841 2188 
z
M 1259 4147 
L 1259 2491 
L 2053 2491 
Q 2509 2491 2742 2702 
Q 2975 2913 2975 3322 
Q 2975 3731 2742 3939 
Q 2509 4147 2053 4147 
L 1259 4147 
z
" transform="scale(0.015625)"/>
       <path id="DejaVuSans-65" d="M 3597 1894 
L 3597 1613 
L 953 1613 
Q 991 1019 1311 708 
Q 1631 397 2203 397 
Q 2534 397 2845 478 
Q 3156 559 3463 722 
L 3463 178 
Q 3153 47 2828 -22 
Q 2503 -91 2169 -91 
Q 1331 -91 842 396 
Q 353 884 353 1716 
Q 353 2575 817 3079 
Q 1281 3584 2069 3584 
Q 2775 3584 3186 3129 
Q 3597 2675 3597 1894 
z
M 3022 2063 
Q 3016 2534 2758 2815 
Q 2500 3097 2075 3097 
Q 1594 3097 1305 2825 
Q 1016 2553 972 2059 
L 3022 2063 
z
" transform="scale(0.015625)"/>
       <path id="DejaVuSans-61" d="M 2194 1759 
Q 1497 1759 1228 1600 
Q 959 1441 959 1056 
Q 959 750 1161 570 
Q 1363 391 1709 391 
Q 2188 391 2477 730 
Q 2766 1069 2766 1631 
L 2766 1759 
L 2194 1759 
z
M 3341 1997 
L 3341 0 
L 2766 0 
L 2766 531 
Q 2569 213 2275 61 
Q 1981 -91 1556 -91 
Q 1019 -91 701 211 
Q 384 513 384 1019 
Q 384 1609 779 1909 
Q 1175 2209 1959 2209 
L 2766 2209 
L 2766 2266 
Q 2766 2663 2505 2880 
Q 2244 3097 1772 3097 
Q 1472 3097 1187 3025 
Q 903 2953 641 2809 
L 641 3341 
Q 956 3463 1253 3523 
Q 1550 3584 1831 3584 
Q 2591 3584 2966 3190 
Q 3341 2797 3341 1997 
z
" transform="scale(0.015625)"/>
       <path id="DejaVuSans-63" d="M 3122 3366 
L 3122 2828 
Q 2878 2963 2633 3030 
Q 2388 3097 2138 3097 
Q 1578 3097 1268 2742 
Q 959 2388 959 1747 
Q 959 1106 1268 751 
Q 1578 397 2138 397 
Q 2388 397 2633 464 
Q 2878 531 3122 666 
L 3122 134 
Q 2881 22 2623 -34 
Q 2366 -91 2075 -91 
Q 1284 -91 818 406 
Q 353 903 353 1747 
Q 353 2603 823 3093 
Q 1294 3584 2113 3584 
Q 2378 3584 2631 3529 
Q 2884 3475 3122 3366 
z
" transform="scale(0.015625)"/>
       <path id="DejaVuSans-74" d="M 1172 4494 
L 1172 3500 
L 2356 3500 
L 2356 3053 
L 1172 3053 
L 1172 1153 
Q 1172 725 1289 603 
Q 1406 481 1766 481 
L 2356 481 
L 2356 0 
L 1766 0 
Q 1100 0 847 248 
Q 594 497 594 1153 
L 594 3053 
L 172 3053 
L 172 3500 
L 594 3500 
L 594 4494 
L 1172 4494 
z
" transform="scale(0.015625)"/>
       <path id="DejaVuSans-69" d="M 603 3500 
L 1178 3500 
L 1178 0 
L 603 0 
L 603 3500 
z
M 603 4863 
L 1178 4863 
L 1178 4134 
L 603 4134 
L 603 4863 
z
" transform="scale(0.015625)"/>
       <path id="DejaVuSans-6f" d="M 1959 3097 
Q 1497 3097 1228 2736 
Q 959 2375 959 1747 
Q 959 1119 1226 758 
Q 1494 397 1959 397 
Q 2419 397 2687 759 
Q 2956 1122 2956 1747 
Q 2956 2369 2687 2733 
Q 2419 3097 1959 3097 
z
M 1959 3584 
Q 2709 3584 3137 3096 
Q 3566 2609 3566 1747 
Q 3566 888 3137 398 
Q 2709 -91 1959 -91 
Q 1206 -91 779 398 
Q 353 888 353 1747 
Q 353 2609 779 3096 
Q 1206 3584 1959 3584 
z
" transform="scale(0.015625)"/>
       <path id="DejaVuSans-6e" d="M 3513 2113 
L 3513 0 
L 2938 0 
L 2938 2094 
Q 2938 2591 2744 2837 
Q 2550 3084 2163 3084 
Q 1697 3084 1428 2787 
Q 1159 2491 1159 1978 
L 1159 0 
L 581 0 
L 581 3500 
L 1159 3500 
L 1159 2956 
Q 1366 3272 1645 3428 
Q 1925 3584 2291 3584 
Q 2894 3584 3203 3211 
Q 3513 2838 3513 2113 
z
" transform="scale(0.015625)"/>
       <path id="DejaVuSans-20" transform="scale(0.015625)"/>
       <path id="DejaVuSans-6d" d="M 3328 2828 
Q 3544 3216 3844 3400 
Q 4144 3584 4550 3584 
Q 5097 3584 5394 3201 
Q 5691 2819 5691 2113 
L 5691 0 
L 5113 0 
L 5113 2094 
Q 5113 2597 4934 2840 
Q 4756 3084 4391 3084 
Q 3944 3084 3684 2787 
Q 3425 2491 3425 1978 
L 3425 0 
L 2847 0 
L 2847 2094 
Q 2847 2600 2669 2842 
Q 2491 3084 2119 3084 
Q 1678 3084 1418 2786 
Q 1159 2488 1159 1978 
L 1159 0 
L 581 0 
L 581 3500 
L 1159 3500 
L 1159 2956 
Q 1356 3278 1631 3431 
Q 1906 3584 2284 3584 
Q 2666 3584 2933 3390 
Q 3200 3197 3328 2828 
z
" transform="scale(0.015625)"/>
       <path id="DejaVuSans-28" d="M 1984 4856 
Q 1566 4138 1362 3434 
Q 1159 2731 1159 2009 
Q 1159 1288 1364 580 
Q 1569 -128 1984 -844 
L 1484 -844 
Q 1016 -109 783 600 
Q 550 1309 550 2009 
Q 550 2706 781 3412 
Q 1013 4119 1484 4856 
L 1984 4856 
z
" transform="scale(0.015625)"/>
       <path id="DejaVuSans-73" d="M 2834 3397 
L 2834 2853 
Q 2591 2978 2328 3040 
Q 2066 3103 1784 3103 
Q 1356 3103 1142 2972 
Q 928 2841 928 2578 
Q 928 2378 1081 2264 
Q 1234 2150 1697 2047 
L 1894 2003 
Q 2506 1872 2764 1633 
Q 3022 1394 3022 966 
Q 3022 478 2636 193 
Q 2250 -91 1575 -91 
Q 1294 -91 989 -36 
Q 684 19 347 128 
L 347 722 
Q 666 556 975 473 
Q 1284 391 1588 391 
Q 1994 391 2212 530 
Q 2431 669 2431 922 
Q 2431 1156 2273 1281 
Q 2116 1406 1581 1522 
L 1381 1569 
Q 847 1681 609 1914 
Q 372 2147 372 2553 
Q 372 3047 722 3315 
Q 1072 3584 1716 3584 
Q 2034 3584 2315 3537 
Q 2597 3491 2834 3397 
z
" transform="scale(0.015625)"/>
       <path id="DejaVuSans-29" d="M 513 4856 
L 1013 4856 
Q 1481 4119 1714 3412 
Q 1947 2706 1947 2009 
Q 1947 1309 1714 600 
Q 1481 -109 1013 -844 
L 513 -844 
Q 928 -128 1133 580 
Q 1338 1288 1338 2009 
Q 1338 2731 1133 3434 
Q 928 4138 513 4856 
z
" transform="scale(0.015625)"/>
      </defs>
      <use xlink:href="#DejaVuSans-52"/>
      <use xlink:href="#DejaVuSans-65" x="64.982422"/>
      <use xlink:href="#DejaVuSans-61" x="126.505859"/>
      <use xlink:href="#DejaVuSans-63" x="187.785156"/>
      <use xlink:href="#DejaVuSans-74" x="242.765625"/>
      <use xlink:href="#DejaVuSans-69" x="281.974609"/>
      <use xlink:href="#DejaVuSans-6f" x="309.757812"/>
      <use xlink:href="#DejaVuSans-6e" x="370.939453"/>
      <use xlink:href="#DejaVuSans-20" x="434.318359"/>
      <use xlink:href="#DejaVuSans-74" x="466.105469"/>
      <use xlink:href="#DejaVuSans-69" x="505.314453"/>
      <use xlink:href="#DejaVuSans-6d" x="533.097656"/>
      <use xlink:href="#DejaVuSans-65" x="630.509766"/>
      <use xlink:href="#DejaVuSans-20" x="692.033203"/>
      <use xlink:href="#DejaVuSans-28" x="723.820312"/>
      <use xlink:href="#DejaVuSans-73" x="762.833984"/>
      <use xlink:href="#DejaVuSans-65" x="814.933594"/>
      <use xlink:href="#DejaVuSans-63" x="876.457031"/>
      <use xlink:href="#DejaVuSans-73" x="931.4375"/>
      <use xlink:href="#DejaVuSans-29" x="983.537109"/>
     </g>
    </g>
   </g>
   <g id="matplotlib.axis_2">
    <g id="ytick_1">
     <g id="line2d_11">
      <defs>
       <path id="m5b53e177a3" d="M 0 0 
L -3.5 0 
" style="stroke: #000000; stroke-width: 0.8"/>
      </defs>
      <g>
       <use xlink:href="#m5b53e177a3" x="54" y="256.32" style="stroke: #000000; stroke-width: 0.8"/>
      </g>
     </g>
     <g id="text_12">
      <!-- 0 -->
      <g transform="translate(40.6375 260.119219) scale(0.1 -0.1)">
       <use xlink:href="#DejaVuSans-30"/>
      </g>
     </g>
    </g>
    <g id="ytick_2">
     <g id="line2d_12">
      <g>
       <use xlink:href="#m5b53e177a3" x="54" y="219.36" style="stroke: #000000; stroke-width: 0.8"/>
      </g>
     </g>
     <g id="text_13">
      <!-- 50 -->
      <g transform="translate(34.275 223.159219) scale(0.1 -0.1)">
       <use xlink:href="#DejaVuSans-35"/>
       <use xlink:href="#DejaVuSans-30" x="63.623047"/>
      </g>
     </g>
    </g>
    <g id="ytick_3">
     <g id="line2d_13">
      <g>
       <use xlink:href="#m5b53e177a3" x="54" y="182.4" style="stroke: #000000; stroke-width: 0.8"/>
      </g>
     </g>
     <g id="text_14">
      <!-- 100 -->
      <g transform="translate(27.9125 186.199219) scale(0.1 -0.1)">
       <use xlink:href="#DejaVuSans-31"/>
       <use xlink:href="#DejaVuSans-30" x="63.623047"/>
       <use xlink:href="#DejaVuSans-30" x="127.246094"/>
      </g>
     </g>
    </g>
    <g id="ytick_4">
     <g id="line2d_14">
      <g>
       <use xlink:href="#m5b53e177a3" x="54" y="145.44" style="stroke: #000000; stroke-width: 0.8"/>
      </g>
     </g>
     <g id="text_15">
      <!-- 150 -->
      <g transform="translate(27.9125 149.239219) scale(0.1 -0.1)">
       <use xlink:href="#DejaVuSans-31"/>
       <use xlink:href="#DejaVuSans-35" x="63.623047"/>
       <use xlink:href="#DejaVuSans-30" x="127.246094"/>
      </g>
     </g>
    </g>
    <g id="ytick_5">
     <g id="line2d_15">
      <g>
       <use xlink:href="#m5b53e177a3" x="54" y="108.48" style="stroke: #000000; stroke-width: 0.8"/>
      </g>
     </g>
     <g id="text_16">
      <!-- 200 -->
      <g transform="translate(27.9125 112.279219) scale(0.1 -0.1)">
       <use xlink:href="#DejaVuSans-32"/>
       <use xlink:href="#DejaVuSans-30" x="63.623047"/>
       <use xlink:href="#DejaVuSans-30" x="127.246094"/>
      </g>
     </g>
    </g>
    <g id="ytick_6">
     <g id="line2d_16">
      <g>
       <use xlink:href="#m5b53e177a3" x="54" y="71.52" style="stroke: #000000; stroke-width: 0.8"/>
      </g>
     </g>
     <g id="text_17">
      <!-- 250 -->
      <g transform="translate(27.9125 75.319219) scale(0.1 -0.1)">
       <use xlink:href="#DejaVuSans-32"/>
       <use xlink:href="#DejaVuSans-35" x="63.623047"/>
       <use xlink:href="#DejaVuSans-30" x="127.246094"/>
      </g>
     </g>
    </g>
    <g id="ytick_7">
     <g id="line2d_17">
      <g>
       <use xlink:href="#m5b53e177a3" x="54" y="34.56" style="stroke: #000000; stroke-width: 0.8"/>
      </g>
     </g>
     <g id="text_18">
      <!-- 300 -->
      <g transform="translate(27.9125 38.359219) scale(0.1 -0.1)">
       <use xlink:href="#DejaVuSans-33"/>
       <use xlink:href="#DejaVuSans-30" x="63.623047"/>
       <use xlink:href="#DejaVuSans-30" x="127.246094"/>
      </g>
     </g>
    </g>
    <g id="text_19">
     <!-- Concentration -->
     <g transform="translate(21.832812 180.811094) rotate(-90) scale(0.1 -0.1)">
      <defs>
       <path id="DejaVuSans-43" d="M 4122 4306 
L 4122 3641 
Q 3803 3938 3442 4084 
Q 3081 4231 2675 4231 
Q 1875 4231 1450 3742 
Q 1025 3253 1025 2328 
Q 1025 1406 1450 917 
Q 1875 428 2675 428 
Q 3081 428 3442 575 
Q 3803 722 4122 1019 
L 4122 359 
Q 3791 134 3420 21 
Q 3050 -91 2638 -91 
Q 1578 -91 968 557 
Q 359 1206 359 2328 
Q 359 3453 968 4101 
Q 1578 4750 2638 4750 
Q 3056 4750 3426 4639 
Q 3797 4528 4122 4306 
z
" transform="scale(0.015625)"/>
       <path id="DejaVuSans-72" d="M 2631 2963 
Q 2534 3019 2420 3045 
Q 2306 3072 2169 3072 
Q 1681 3072 1420 2755 
Q 1159 2438 1159 1844 
L 1159 0 
L 581 0 
L 581 3500 
L 1159 3500 
L 1159 2956 
Q 1341 3275 1631 3429 
Q 1922 3584 2338 3584 
Q 2397 3584 2469 3576 
Q 2541 3569 2628 3553 
L 2631 2963 
z
" transform="scale(0.015625)"/>
      </defs>
      <use xlink:href="#DejaVuSans-43"/>
      <use xlink:href="#DejaVuSans-6f" x="69.824219"/>
      <use xlink:href="#DejaVuSans-6e" x="131.005859"/>
      <use xlink:href="#DejaVuSans-63" x="194.384766"/>
      <use xlink:href="#DejaVuSans-65" x="249.365234"/>
      <use xlink:href="#DejaVuSans-6e" x="310.888672"/>
      <use xlink:href="#DejaVuSans-74" x="374.267578"/>
      <use xlink:href="#DejaVuSans-72" x="413.476562"/>
      <use xlink:href="#DejaVuSans-61" x="454.589844"/>
      <use xlink:href="#DejaVuSans-74" x="515.869141"/>
      <use xlink:href="#DejaVuSans-69" x="555.078125"/>
      <use xlink:href="#DejaVuSans-6f" x="582.861328"/>
      <use xlink:href="#DejaVuSans-6e" x="644.042969"/>
     </g>
    </g>
   </g>
   <g id="line2d_18">
    <path d="M 54 49.344 
L 54.3162 49.437641 
L 55.40244 49.48551 
L 55.685156 49.94557 
L 56.016231 50.980017 
L 56.388225 52.967903 
L 56.812298 56.567735 
L 57.295891 62.756731 
L 57.842723 72.837986 
L 58.467673 88.747953 
L 59.189374 113.177816 
L 60.037586 149.923701 
L 61.228059 212.504505 
L 61.994426 248.119079 
L 62.299484 253.889106 
L 62.55246 255.233121 
L 62.891 255.823489 
L 63.285344 256.150892 
L 63.791295 256.223389 
L 67.704974 256.258013 
L 81.623445 256.178703 
L 85.911558 255.970009 
L 87.957059 255.664949 
L 89.243864 255.259765 
L 90.192233 254.733378 
L 90.969523 254.046895 
L 91.664993 253.128506 
L 92.334432 251.859732 
L 93.018745 250.05802 
L 93.766282 247.418516 
L 94.655145 243.39617 
L 95.848974 236.860117 
L 97.652733 225.627268 
L 100.140806 208.672297 
L 103.718572 182.569691 
L 110.888981 130.09093 
L 112.748527 118.19699 
L 113.990704 111.569275 
L 114.875847 107.944369 
L 115.522969 106.124454 
L 116.002732 105.356548 
L 116.344889 105.168376 
L 116.620101 105.261329 
L 116.91391 105.624815 
L 117.267223 106.456235 
L 117.6912 108.075727 
L 118.189558 110.932559 
L 118.766017 115.641947 
L 119.420578 122.957745 
L 120.164396 133.933211 
L 121.016068 149.987982 
L 122.027661 173.530942 
L 123.485545 213.382108 
L 124.638463 242.713255 
L 125.133103 250.326263 
L 125.505012 253.08717 
L 125.854606 254.197347 
L 126.293459 254.841454 
L 127.182322 255.697821 
L 127.729029 255.918677 
L 128.621611 255.994004 
L 131.807133 255.94573 
L 134.793487 255.718405 
L 136.532423 255.377711 
L 137.716538 254.927781 
L 138.625105 254.348828 
L 139.395897 253.590929 
L 140.099663 252.578529 
L 140.788535 251.176758 
L 141.499749 249.195059 
L 142.281712 246.315818 
L 143.227515 241.914695 
L 144.512168 234.77633 
L 146.467075 222.527153 
L 149.047553 204.933497 
L 152.573833 179.160146 
L 159.231689 130.470974 
L 161.1084 118.444684 
L 162.352093 111.796158 
L 163.238318 108.156013 
L 163.889953 106.316947 
L 164.366578 105.549345 
L 164.712876 105.355071 
L 164.988425 105.447042 
L 165.282592 105.810033 
L 165.636337 106.641339 
L 166.060831 108.261543 
L 166.563522 111.146877 
L 167.136961 115.836324 
L 167.796044 123.209363 
L 168.544494 134.275436 
L 169.404654 150.537306 
L 170.428653 174.451846 
L 171.918106 215.219765 
L 173.016577 242.910126 
L 173.508097 250.38973 
L 173.88046 253.112726 
L 174.230482 254.206734 
L 174.66987 254.845475 
L 175.563542 255.70207 
L 176.11464 255.920238 
L 177.023206 255.993585 
L 180.266491 255.940714 
L 183.200713 255.710205 
L 184.917308 255.367276 
L 186.090252 254.915478 
L 186.995095 254.332704 
L 187.762163 253.571767 
L 188.46593 252.551527 
L 189.154802 251.139766 
L 189.866016 249.145879 
L 190.655426 246.221813 
L 191.604952 241.780703 
L 192.908224 234.510952 
L 194.885473 222.087991 
L 197.499463 204.220054 
L 201.096492 177.884813 
L 207.538368 130.765308 
L 209.389014 118.862785 
L 210.658772 112.007634 
L 211.556168 108.274356 
L 212.215251 106.374539 
L 212.699323 105.569073 
L 213.045621 105.357473 
L 213.317446 105.431082 
L 213.60789 105.765818 
L 213.957911 106.552797 
L 214.378682 108.106847 
L 214.870201 110.844118 
L 215.436193 115.344975 
L 216.084105 122.406018 
L 216.813938 132.921706 
L 217.659202 148.525204 
L 218.653412 171.254543 
L 220.049774 209.044987 
L 221.345599 242.494289 
L 221.840842 250.207663 
L 222.213205 253.035644 
L 222.559503 254.16532 
L 222.987721 254.809426 
L 223.877669 255.679298 
L 224.421319 255.911117 
L 225.281479 255.991698 
L 228.305068 255.952538 
L 231.380789 255.732207 
L 233.160686 255.396988 
L 234.359695 254.955061 
L 235.283156 254.381566 
L 236.061396 253.633071 
L 236.768886 252.630441 
L 237.457758 251.249376 
L 238.168972 249.296168 
L 238.939764 246.49036 
L 239.881843 242.156084 
L 241.144154 235.170525 
L 243.125127 222.798888 
L 245.716775 205.150223 
L 249.190925 179.756917 
L 255.80782 131.274703 
L 257.688255 119.12734 
L 258.961737 112.203533 
L 259.870304 108.379693 
L 260.53311 106.434342 
L 261.02463 105.591586 
L 261.378375 105.361511 
L 261.653924 105.429097 
L 261.944367 105.757133 
L 262.294389 106.535506 
L 262.715159 108.077679 
L 263.206679 110.799971 
L 263.768947 115.246924 
L 264.420583 122.320103 
L 265.157862 132.930436 
L 266.006851 148.61202 
L 266.997337 171.265089 
L 268.382528 208.743238 
L 269.689523 242.503528 
L 270.184767 250.211889 
L 270.55713 253.037921 
L 270.903428 254.166342 
L 271.335369 254.814406 
L 272.225317 255.68222 
L 272.768968 255.912105 
L 273.632851 255.991904 
L 276.678782 255.951486 
L 279.739608 255.730339 
L 281.515781 255.393946 
L 282.711067 254.951418 
L 283.634528 254.375723 
L 284.409044 253.628682 
L 285.116534 252.624104 
L 285.805406 251.240594 
L 286.520344 249.272494 
L 287.291136 246.459451 
L 288.233215 242.117737 
L 289.49925 235.104497 
L 291.472775 222.77466 
L 294.0607 205.149851 
L 297.490166 180.089904 
L 304.151745 131.275809 
L 306.043351 119.062045 
L 307.32428 112.115419 
L 308.225399 108.341953 
L 308.888206 106.410802 
L 309.379726 105.580815 
L 309.729747 105.361985 
L 310.001572 105.433259 
L 310.288292 105.758892 
L 310.63459 106.526696 
L 311.047913 108.029798 
L 311.539433 110.728742 
L 312.105425 115.179959 
L 312.753337 122.182552 
L 313.483169 132.62832 
L 314.328434 148.152028 
L 315.315196 170.61349 
L 316.674322 207.269953 
L 318.037172 242.57592 
L 318.532415 250.251133 
L 318.904778 253.05561 
L 319.251076 254.173992 
L 319.683018 254.818616 
L 320.572966 255.684538 
L 321.116616 255.912884 
L 321.984223 255.992069 
L 325.048772 255.950554 
L 328.098428 255.728491 
L 329.867153 255.391974 
L 331.058716 254.949719 
L 331.978453 254.375973 
L 332.752969 253.629053 
L 333.460459 252.624683 
L 334.149331 251.241466 
L 334.860545 249.28554 
L 335.631337 246.476364 
L 336.573416 242.138668 
L 337.839451 235.128364 
L 339.801806 222.873769 
L 342.359941 205.46813 
L 345.737276 180.813375 
L 352.49567 131.277354 
L 354.387275 119.063894 
L 355.664481 112.135158 
L 356.569324 108.343825 
L 357.235854 106.404327 
L 357.72365 105.582969 
L 358.073672 105.364286 
L 358.345497 105.435729 
L 358.632217 105.761543 
L 358.97737 106.527542 
L 359.396088 108.055763 
L 359.88521 110.748346 
L 360.455852 115.248435 
L 361.096898 122.192602 
L 361.837992 132.824287 
L 362.686545 148.44944 
L 363.687021 171.330938 
L 365.006168 206.973392 
L 366.380897 242.60586 
L 366.873724 250.253009 
L 367.244271 253.047952 
L 367.592585 254.177346 
L 368.02983 254.826027 
L 368.926554 255.693136 
L 369.474963 255.916757 
L 370.364276 255.992925 
L 373.51763 255.945563 
L 376.504238 255.719395 
L 378.249513 255.37901 
L 379.435263 254.929033 
L 380.350514 254.346506 
L 381.121252 253.590292 
L 381.825291 252.580733 
L 382.510802 251.193537 
L 383.225958 249.197431 
L 384.007812 246.316197 
L 384.956412 241.908306 
L 386.234798 234.825377 
L 388.128293 222.980381 
L 388.802688 218.538075 
L 388.802688 218.538075 
" clip-path="url(#pebd1240aa4)" style="fill: none; stroke: #7cfc00; stroke-width: 1.5; stroke-linecap: square"/>
   </g>
   <g id="line2d_19">
    <path d="M 54 248.928 
L 55.004402 250.677474 
L 55.435919 251.028858 
L 55.737235 251.018203 
L 56.012511 250.771831 
L 56.324986 250.155223 
L 56.6821 248.907546 
L 57.087574 246.607887 
L 57.541407 242.631734 
L 58.0436 236.103958 
L 58.605311 225.6648 
L 59.237737 209.445475 
L 59.955741 184.909723 
L 60.781632 148.579942 
L 61.789813 93.649597 
L 62.764513 42.84223 
L 63.05469 37.414948 
L 63.303946 36.158434 
L 63.560641 35.841689 
L 64.010788 35.717278 
L 66.65959 35.523929 
L 70.841125 35.482872 
L 76.543166 35.628465 
L 80.217629 35.895536 
L 83.025543 36.313705 
L 84.940875 36.821702 
L 86.342973 37.415174 
L 87.4587 38.122363 
L 88.414507 38.998245 
L 89.236426 40.058838 
L 89.991402 41.39963 
L 90.731501 43.190512 
L 91.460443 45.566112 
L 92.21914 48.838462 
L 93.052217 53.486119 
L 94.060091 60.495457 
L 95.514255 72.377644 
L 99.251943 105.4405 
L 106.890957 172.900599 
L 109.765815 196.197084 
L 111.744372 210.539872 
L 113.165065 219.330178 
L 114.225006 224.606012 
L 115.032049 227.596949 
L 115.649418 229.12006 
L 116.110586 229.742018 
L 116.452742 229.880488 
L 116.742831 229.761835 
L 117.058954 229.366392 
L 117.438302 228.497353 
L 117.888312 226.860989 
L 118.412704 224.048567 
L 119.011477 219.531826 
L 119.684633 212.639981 
L 120.432171 202.563452 
L 121.268966 188.108655 
L 122.213615 167.720587 
L 123.310748 138.913675 
L 124.720283 95.482844 
L 126.181886 51.742182 
L 126.687683 42.668348 
L 127.070749 39.271723 
L 127.416625 37.940496 
L 127.7625 37.396089 
L 128.17532 37.156652 
L 128.841037 37.062741 
L 130.421942 37.125882 
L 132.235351 37.40218 
L 133.765764 37.849223 
L 135.005734 38.441026 
L 136.044627 39.186655 
L 136.934575 40.103549 
L 137.73888 41.257489 
L 138.498501 42.747236 
L 139.254399 44.755221 
L 140.006573 47.419165 
L 140.795983 51.076703 
L 141.682207 56.300687 
L 142.769508 64.131158 
L 144.49355 78.410827 
L 149.304484 120.759725 
L 155.467096 174.66485 
L 158.278439 197.309121 
L 160.192386 211.074214 
L 161.596196 219.670643 
L 162.638813 224.788114 
L 163.43567 227.686132 
L 164.038899 229.138685 
L 164.493182 229.730907 
L 164.832033 229.855707 
L 165.122476 229.726624 
L 165.442708 229.312051 
L 165.826242 228.410691 
L 166.280526 226.723368 
L 166.813005 223.810523 
L 167.416234 219.174907 
L 168.093935 212.121212 
L 168.849832 201.776636 
L 169.695097 186.965634 
L 170.655794 165.944718 
L 171.765437 136.464522 
L 173.236272 90.749261 
L 174.543267 51.981731 
L 175.053405 42.755672 
L 175.436939 39.314652 
L 175.783237 37.961114 
L 176.129534 37.406827 
L 176.539134 37.164232 
L 177.201941 37.067546 
L 178.788208 37.130552 
L 180.590447 37.405654 
L 182.109689 37.850216 
L 183.323593 38.424558 
L 184.369934 39.167435 
L 185.252435 40.066305 
L 186.064187 41.217492 
L 186.827532 42.699817 
L 187.572258 44.65673 
L 188.324432 47.288235 
L 189.110118 50.886331 
L 189.988896 56.012208 
L 191.072473 63.757069 
L 192.755555 77.643372 
L 197.46595 119.068993 
L 203.855704 174.977924 
L 206.64842 197.451635 
L 208.562367 211.198659 
L 209.966177 219.773375 
L 211.00507 224.851811 
L 211.801928 227.730434 
L 212.405156 229.164808 
L 212.855716 229.739804 
L 213.190843 229.855535 
L 213.481286 229.720815 
L 213.801519 229.299243 
L 214.185053 228.388998 
L 214.64306 226.673144 
L 215.175539 223.738389 
L 215.778768 219.077868 
L 216.452745 212.032884 
L 217.208643 201.662772 
L 218.04646 186.963141 
L 219.003434 166.029719 
L 220.105629 136.773383 
L 221.546675 92.027081 
L 222.902077 51.755829 
L 223.408491 42.680485 
L 223.788302 39.303238 
L 224.1346 37.958362 
L 224.484621 37.404188 
L 224.897944 37.164277 
L 225.564475 37.070365 
L 227.065099 37.12683 
L 228.934362 37.407932 
L 230.52063 37.877038 
L 231.745705 38.470916 
L 232.818111 39.256609 
L 233.704336 40.194505 
L 234.504917 41.375041 
L 235.268262 42.912658 
L 236.005541 44.912319 
L 236.761438 47.646759 
L 237.558296 51.407322 
L 238.451968 56.757634 
L 239.598847 65.138377 
L 241.382467 80.055766 
L 246.565764 125.768105 
L 252.151213 174.597936 
L 254.999792 197.512222 
L 256.906292 211.201685 
L 258.306378 219.755796 
L 259.348995 224.853723 
L 260.142129 227.72044 
L 260.745357 229.158517 
L 261.195917 229.736908 
L 261.534768 229.855042 
L 261.825211 229.720043 
L 262.145443 229.298174 
L 262.528978 228.387535 
L 262.986984 226.671232 
L 263.519464 223.735913 
L 264.122692 219.074541 
L 264.792946 212.072779 
L 265.552567 201.657527 
L 266.386661 187.030033 
L 267.347358 166.02254 
L 268.457001 136.548045 
L 269.901771 91.65262 
L 271.246002 51.745317 
L 271.75614 42.627404 
L 272.13595 39.279258 
L 272.482248 37.948549 
L 272.83227 37.400443 
L 273.241869 37.164412 
L 273.908399 37.070839 
L 275.4053 37.127439 
L 277.282011 37.409421 
L 278.749122 37.833996 
L 280.093354 38.474096 
L 281.113629 39.215237 
L 281.99613 40.131702 
L 282.8265 41.338835 
L 283.589845 42.862442 
L 284.338295 44.879181 
L 285.090469 47.587701 
L 285.894773 51.370529 
L 286.792169 56.735842 
L 287.912982 64.907196 
L 289.651919 79.415632 
L 294.537325 122.450018 
L 300.491414 174.568581 
L 303.34744 197.541982 
L 305.261388 211.276782 
L 306.661474 219.817429 
L 307.696644 224.869897 
L 308.489777 227.731824 
L 309.089282 229.158824 
L 309.539842 229.736928 
L 309.878692 229.85498 
L 310.169136 229.719857 
L 310.489368 229.297734 
L 310.872902 228.386875 
L 311.330909 226.670332 
L 311.859665 223.759481 
L 312.466617 219.073918 
L 313.140595 212.028062 
L 313.900216 201.600127 
L 314.741757 186.810933 
L 315.695007 165.931471 
L 316.808373 136.334697 
L 318.275484 90.692741 
L 319.59365 51.662685 
L 320.100064 42.629638 
L 320.479875 39.280386 
L 320.826173 37.949181 
L 321.172471 37.404458 
L 321.585794 37.164615 
L 322.252324 37.070794 
L 323.749225 37.127145 
L 325.629659 37.409263 
L 327.148901 37.854051 
L 328.355358 38.42528 
L 329.360739 39.132063 
L 330.258135 40.032264 
L 331.077334 41.181872 
L 331.836955 42.641075 
L 332.581682 44.571188 
L 333.30779 47.076636 
L 334.100924 50.651022 
L 334.975978 55.687634 
L 336.052107 63.317199 
L 337.65327 76.464133 
L 342.162589 116.049784 
L 349.282175 178.29049 
L 351.992979 199.824145 
L 353.798941 212.549456 
L 355.146896 220.582117 
L 356.14483 225.301592 
L 356.911898 227.957215 
L 357.492785 229.261314 
L 357.92845 229.768639 
L 358.25613 229.850764 
L 358.546573 229.689422 
L 358.873617 229.223322 
L 359.266397 228.23205 
L 359.736991 226.381441 
L 360.27799 223.257914 
L 360.885687 218.375904 
L 361.574904 210.92722 
L 362.353052 199.865478 
L 363.194194 184.628671 
L 364.187259 162.316394 
L 365.354482 130.370442 
L 367.044176 76.92893 
L 367.992776 50.348579 
L 368.485603 42.092111 
L 368.859855 39.067884 
L 369.204464 37.865601 
L 369.556484 37.367823 
L 369.978907 37.151982 
L 370.727412 37.070275 
L 372.313352 37.152208 
L 374.143854 37.453095 
L 375.666802 37.928359 
L 376.815497 38.501956 
L 377.834501 39.251736 
L 378.746046 40.221778 
L 379.553838 41.423926 
L 380.306048 42.950849 
L 381.050848 44.98471 
L 381.810469 47.741686 
L 382.607145 51.517724 
L 383.503868 56.936027 
L 384.641447 65.274992 
L 386.538647 81.126735 
L 388.802688 100.965281 
L 388.802688 100.965281 
" clip-path="url(#pebd1240aa4)" style="fill: none; stroke: #0000ff; stroke-width: 1.5; stroke-linecap: square"/>
   </g>
   <g id="patch_3">
    <path d="M 54 256.32 
L 54 34.56 
" style="fill: none; stroke: #000000; stroke-width: 0.8; stroke-linejoin: miter; stroke-linecap: square"/>
   </g>
   <g id="patch_4">
    <path d="M 388.8 256.32 
L 388.8 34.56 
" style="fill: none; stroke: #000000; stroke-width: 0.8; stroke-linejoin: miter; stroke-linecap: square"/>
   </g>
   <g id="patch_5">
    <path d="M 54 256.32 
L 388.8 256.32 
" style="fill: none; stroke: #000000; stroke-width: 0.8; stroke-linejoin: miter; stroke-linecap: square"/>
   </g>
   <g id="patch_6">
    <path d="M 54 34.56 
L 388.8 34.56 
" style="fill: none; stroke: #000000; stroke-width: 0.8; stroke-linejoin: miter; stroke-linecap: square"/>
   </g>
   <g id="legend_1">
    <g id="patch_7">
     <path d="M 61 71.91625 
L 135.673438 71.91625 
Q 137.673438 71.91625 137.673438 69.91625 
L 137.673438 41.56 
Q 137.673438 39.56 135.673438 39.56 
L 61 39.56 
Q 59 39.56 59 41.56 
L 59 69.91625 
Q 59 71.91625 61 71.91625 
z
" style="fill: #ffffff; opacity: 0.8; stroke: #cccccc; stroke-linejoin: miter"/>
    </g>
    <g id="line2d_20">
     <path d="M 63 47.658437 
L 73 47.658437 
L 83 47.658437 
" style="fill: none; stroke: #7cfc00; stroke-width: 1.5; stroke-linecap: square"/>
    </g>
    <g id="text_20">
     <!-- MAPK -->
     <g transform="translate(91 51.158437) scale(0.1 -0.1)">
      <defs>
       <path id="DejaVuSans-4d" d="M 628 4666 
L 1569 4666 
L 2759 1491 
L 3956 4666 
L 4897 4666 
L 4897 0 
L 4281 0 
L 4281 4097 
L 3078 897 
L 2444 897 
L 1241 4097 
L 1241 0 
L 628 0 
L 628 4666 
z
" transform="scale(0.015625)"/>
       <path id="DejaVuSans-41" d="M 2188 4044 
L 1331 1722 
L 3047 1722 
L 2188 4044 
z
M 1831 4666 
L 2547 4666 
L 4325 0 
L 3669 0 
L 3244 1197 
L 1141 1197 
L 716 0 
L 50 0 
L 1831 4666 
z
" transform="scale(0.015625)"/>
       <path id="DejaVuSans-50" d="M 1259 4147 
L 1259 2394 
L 2053 2394 
Q 2494 2394 2734 2622 
Q 2975 2850 2975 3272 
Q 2975 3691 2734 3919 
Q 2494 4147 2053 4147 
L 1259 4147 
z
M 628 4666 
L 2053 4666 
Q 2838 4666 3239 4311 
Q 3641 3956 3641 3272 
Q 3641 2581 3239 2228 
Q 2838 1875 2053 1875 
L 1259 1875 
L 1259 0 
L 628 0 
L 628 4666 
z
" transform="scale(0.015625)"/>
       <path id="DejaVuSans-4b" d="M 628 4666 
L 1259 4666 
L 1259 2694 
L 3353 4666 
L 4166 4666 
L 1850 2491 
L 4331 0 
L 3500 0 
L 1259 2247 
L 1259 0 
L 628 0 
L 628 4666 
z
" transform="scale(0.015625)"/>
      </defs>
      <use xlink:href="#DejaVuSans-4d"/>
      <use xlink:href="#DejaVuSans-41" x="86.279297"/>
      <use xlink:href="#DejaVuSans-50" x="154.6875"/>
      <use xlink:href="#DejaVuSans-4b" x="214.990234"/>
     </g>
    </g>
    <g id="line2d_21">
     <path d="M 63 62.336562 
L 73 62.336562 
L 83 62.336562 
" style="fill: none; stroke: #0000ff; stroke-width: 1.5; stroke-linecap: square"/>
    </g>
    <g id="text_21">
     <!-- MAPK-PP -->
     <g transform="translate(91 65.836562) scale(0.1 -0.1)">
      <defs>
       <path id="DejaVuSans-2d" d="M 313 2009 
L 1997 2009 
L 1997 1497 
L 313 1497 
L 313 2009 
z
" transform="scale(0.015625)"/>
      </defs>
      <use xlink:href="#DejaVuSans-4d"/>
      <use xlink:href="#DejaVuSans-41" x="86.279297"/>
      <use xlink:href="#DejaVuSans-50" x="154.6875"/>
      <use xlink:href="#DejaVuSans-4b" x="214.990234"/>
      <use xlink:href="#DejaVuSans-2d" x="270.066406"/>
      <use xlink:href="#DejaVuSans-50" x="306.150391"/>
      <use xlink:href="#DejaVuSans-50" x="366.453125"/>
     </g>
    </g>
   </g>
  </g>
 </g>
 <defs>
  <clipPath id="pebd1240aa4">
   <rect x="54" y="34.56" width="334.8" height="221.76"/>
  </clipPath>
 </defs>
</svg>
