<?xml version="1.0" encoding="utf-8" standalone="no"?>
<!DOCTYPE svg PUBLIC "-//W3C//DTD SVG 1.1//EN"
  "http://www.w3.org/Graphics/SVG/1.1/DTD/svg11.dtd">
<svg xmlns:xlink="http://www.w3.org/1999/xlink" width="504pt" height="360pt" viewBox="0 0 504 360" xmlns="http://www.w3.org/2000/svg" version="1.1">
 <metadata>
  <rdf:RDF xmlns:dc="http://purl.org/dc/elements/1.1/" xmlns:cc="http://creativecommons.org/ns#" xmlns:rdf="http://www.w3.org/1999/02/22-rdf-syntax-ns#">
   <cc:Work>
    <dc:type rdf:resource="http://purl.org/dc/dcmitype/StillImage"/>
    <dc:date>2023-06-02T15:00:43.606205</dc:date>
    <dc:format>image/svg+xml</dc:format>
    <dc:creator>
     <cc:Agent>
      <dc:title>Matplotlib v3.7.1, https://matplotlib.org/</dc:title>
     </cc:Agent>
    </dc:creator>
   </cc:Work>
  </rdf:RDF>
 </metadata>
 <defs>
  <style type="text/css">*{stroke-linejoin: round; stroke-linecap: butt}</style>
 </defs>
 <g id="figure_1">
  <g id="patch_1">
   <path d="M 0 360 
L 504 360 
L 504 0 
L 0 0 
z
" style="fill: #ffffff"/>
  </g>
  <g id="axes_1">
   <g id="patch_2">
    <path d="M 63 320.4 
L 453.6 320.4 
L 453.6 43.2 
L 63 43.2 
z
" style="fill: #ffffff"/>
   </g>
   <g id="matplotlib.axis_1">
    <g id="xtick_1">
     <g id="line2d_1">
      <defs>
       <path id="m476d80d954" d="M 0 0 
L 0 3.5 
" style="stroke: #000000; stroke-width: 0.8"/>
      </defs>
      <g>
       <use xlink:href="#m476d80d954" x="80.754545" y="320.4" style="stroke: #000000; stroke-width: 0.8"/>
      </g>
     </g>
     <g id="text_1">
      <!-- 0 -->
      <g transform="translate(77.573295 334.998438) scale(0.1 -0.1)">
       <defs>
        <path id="DejaVuSans-30" d="M 2034 4250 
Q 1547 4250 1301 3770 
Q 1056 3291 1056 2328 
Q 1056 1369 1301 889 
Q 1547 409 2034 409 
Q 2525 409 2770 889 
Q 3016 1369 3016 2328 
Q 3016 3291 2770 3770 
Q 2525 4250 2034 4250 
z
M 2034 4750 
Q 2819 4750 3233 4129 
Q 3647 3509 3647 2328 
Q 3647 1150 3233 529 
Q 2819 -91 2034 -91 
Q 1250 -91 836 529 
Q 422 1150 422 2328 
Q 422 3509 836 4129 
Q 1250 4750 2034 4750 
z
" transform="scale(0.015625)"/>
       </defs>
       <use xlink:href="#DejaVuSans-30"/>
      </g>
     </g>
    </g>
    <g id="xtick_2">
     <g id="line2d_2">
      <g>
       <use xlink:href="#m476d80d954" x="151.915318" y="320.4" style="stroke: #000000; stroke-width: 0.8"/>
      </g>
     </g>
     <g id="text_2">
      <!-- 10 -->
      <g transform="translate(145.552818 334.998438) scale(0.1 -0.1)">
       <defs>
        <path id="DejaVuSans-31" d="M 794 531 
L 1825 531 
L 1825 4091 
L 703 3866 
L 703 4441 
L 1819 4666 
L 2450 4666 
L 2450 531 
L 3481 531 
L 3481 0 
L 794 0 
L 794 531 
z
" transform="scale(0.015625)"/>
       </defs>
       <use xlink:href="#DejaVuSans-31"/>
       <use xlink:href="#DejaVuSans-30" x="63.623047"/>
      </g>
     </g>
    </g>
    <g id="xtick_3">
     <g id="line2d_3">
      <g>
       <use xlink:href="#m476d80d954" x="223.076091" y="320.4" style="stroke: #000000; stroke-width: 0.8"/>
      </g>
     </g>
     <g id="text_3">
      <!-- 20 -->
      <g transform="translate(216.713591 334.998438) scale(0.1 -0.1)">
       <defs>
        <path id="DejaVuSans-32" d="M 1228 531 
L 3431 531 
L 3431 0 
L 469 0 
L 469 531 
Q 828 903 1448 1529 
Q 2069 2156 2228 2338 
Q 2531 2678 2651 2914 
Q 2772 3150 2772 3378 
Q 2772 3750 2511 3984 
Q 2250 4219 1831 4219 
Q 1534 4219 1204 4116 
Q 875 4013 500 3803 
L 500 4441 
Q 881 4594 1212 4672 
Q 1544 4750 1819 4750 
Q 2544 4750 2975 4387 
Q 3406 4025 3406 3419 
Q 3406 3131 3298 2873 
Q 3191 2616 2906 2266 
Q 2828 2175 2409 1742 
Q 1991 1309 1228 531 
z
" transform="scale(0.015625)"/>
       </defs>
       <use xlink:href="#DejaVuSans-32"/>
       <use xlink:href="#DejaVuSans-30" x="63.623047"/>
      </g>
     </g>
    </g>
    <g id="xtick_4">
     <g id="line2d_4">
      <g>
       <use xlink:href="#m476d80d954" x="294.236863" y="320.4" style="stroke: #000000; stroke-width: 0.8"/>
      </g>
     </g>
     <g id="text_4">
      <!-- 30 -->
      <g transform="translate(287.874363 334.998438) scale(0.1 -0.1)">
       <defs>
        <path id="DejaVuSans-33" d="M 2597 2516 
Q 3050 2419 3304 2112 
Q 3559 1806 3559 1356 
Q 3559 666 3084 287 
Q 2609 -91 1734 -91 
Q 1441 -91 1130 -33 
Q 819 25 488 141 
L 488 750 
Q 750 597 1062 519 
Q 1375 441 1716 441 
Q 2309 441 2620 675 
Q 2931 909 2931 1356 
Q 2931 1769 2642 2001 
Q 2353 2234 1838 2234 
L 1294 2234 
L 1294 2753 
L 1863 2753 
Q 2328 2753 2575 2939 
Q 2822 3125 2822 3475 
Q 2822 3834 2567 4026 
Q 2313 4219 1838 4219 
Q 1578 4219 1281 4162 
Q 984 4106 628 3988 
L 628 4550 
Q 988 4650 1302 4700 
Q 1616 4750 1894 4750 
Q 2613 4750 3031 4423 
Q 3450 4097 3450 3541 
Q 3450 3153 3228 2886 
Q 3006 2619 2597 2516 
z
" transform="scale(0.015625)"/>
       </defs>
       <use xlink:href="#DejaVuSans-33"/>
       <use xlink:href="#DejaVuSans-30" x="63.623047"/>
      </g>
     </g>
    </g>
    <g id="xtick_5">
     <g id="line2d_5">
      <g>
       <use xlink:href="#m476d80d954" x="365.397636" y="320.4" style="stroke: #000000; stroke-width: 0.8"/>
      </g>
     </g>
     <g id="text_5">
      <!-- 40 -->
      <g transform="translate(359.035136 334.998438) scale(0.1 -0.1)">
       <defs>
        <path id="DejaVuSans-34" d="M 2419 4116 
L 825 1625 
L 2419 1625 
L 2419 4116 
z
M 2253 4666 
L 3047 4666 
L 3047 1625 
L 3713 1625 
L 3713 1100 
L 3047 1100 
L 3047 0 
L 2419 0 
L 2419 1100 
L 313 1100 
L 313 1709 
L 2253 4666 
z
" transform="scale(0.015625)"/>
       </defs>
       <use xlink:href="#DejaVuSans-34"/>
       <use xlink:href="#DejaVuSans-30" x="63.623047"/>
      </g>
     </g>
    </g>
    <g id="xtick_6">
     <g id="line2d_6">
      <g>
       <use xlink:href="#m476d80d954" x="436.558409" y="320.4" style="stroke: #000000; stroke-width: 0.8"/>
      </g>
     </g>
     <g id="text_6">
      <!-- 50 -->
      <g transform="translate(430.195909 334.998438) scale(0.1 -0.1)">
       <defs>
        <path id="DejaVuSans-35" d="M 691 4666 
L 3169 4666 
L 3169 4134 
L 1269 4134 
L 1269 2991 
Q 1406 3038 1543 3061 
Q 1681 3084 1819 3084 
Q 2600 3084 3056 2656 
Q 3513 2228 3513 1497 
Q 3513 744 3044 326 
Q 2575 -91 1722 -91 
Q 1428 -91 1123 -41 
Q 819 9 494 109 
L 494 744 
Q 775 591 1075 516 
Q 1375 441 1709 441 
Q 2250 441 2565 725 
Q 2881 1009 2881 1497 
Q 2881 1984 2565 2268 
Q 2250 2553 1709 2553 
Q 1456 2553 1204 2497 
Q 953 2441 691 2322 
L 691 4666 
z
" transform="scale(0.015625)"/>
       </defs>
       <use xlink:href="#DejaVuSans-35"/>
       <use xlink:href="#DejaVuSans-30" x="63.623047"/>
      </g>
     </g>
    </g>
    <g id="text_7">
     <!-- Reaction time (secs) -->
     <g transform="translate(207.172656 348.676562) scale(0.1 -0.1)">
      <defs>
       <path id="DejaVuSans-52" d="M 2841 2188 
Q 3044 2119 3236 1894 
Q 3428 1669 3622 1275 
L 4263 0 
L 3584 0 
L 2988 1197 
Q 2756 1666 2539 1819 
Q 2322 1972 1947 1972 
L 1259 1972 
L 1259 0 
L 628 0 
L 628 4666 
L 2053 4666 
Q 2853 4666 3247 4331 
Q 3641 3997 3641 3322 
Q 3641 2881 3436 2590 
Q 3231 2300 2841 2188 
z
M 1259 4147 
L 1259 2491 
L 2053 2491 
Q 2509 2491 2742 2702 
Q 2975 2913 2975 3322 
Q 2975 3731 2742 3939 
Q 2509 4147 2053 4147 
L 1259 4147 
z
" transform="scale(0.015625)"/>
       <path id="DejaVuSans-65" d="M 3597 1894 
L 3597 1613 
L 953 1613 
Q 991 1019 1311 708 
Q 1631 397 2203 397 
Q 2534 397 2845 478 
Q 3156 559 3463 722 
L 3463 178 
Q 3153 47 2828 -22 
Q 2503 -91 2169 -91 
Q 1331 -91 842 396 
Q 353 884 353 1716 
Q 353 2575 817 3079 
Q 1281 3584 2069 3584 
Q 2775 3584 3186 3129 
Q 3597 2675 3597 1894 
z
M 3022 2063 
Q 3016 2534 2758 2815 
Q 2500 3097 2075 3097 
Q 1594 3097 1305 2825 
Q 1016 2553 972 2059 
L 3022 2063 
z
" transform="scale(0.015625)"/>
       <path id="DejaVuSans-61" d="M 2194 1759 
Q 1497 1759 1228 1600 
Q 959 1441 959 1056 
Q 959 750 1161 570 
Q 1363 391 1709 391 
Q 2188 391 2477 730 
Q 2766 1069 2766 1631 
L 2766 1759 
L 2194 1759 
z
M 3341 1997 
L 3341 0 
L 2766 0 
L 2766 531 
Q 2569 213 2275 61 
Q 1981 -91 1556 -91 
Q 1019 -91 701 211 
Q 384 513 384 1019 
Q 384 1609 779 1909 
Q 1175 2209 1959 2209 
L 2766 2209 
L 2766 2266 
Q 2766 2663 2505 2880 
Q 2244 3097 1772 3097 
Q 1472 3097 1187 3025 
Q 903 2953 641 2809 
L 641 3341 
Q 956 3463 1253 3523 
Q 1550 3584 1831 3584 
Q 2591 3584 2966 3190 
Q 3341 2797 3341 1997 
z
" transform="scale(0.015625)"/>
       <path id="DejaVuSans-63" d="M 3122 3366 
L 3122 2828 
Q 2878 2963 2633 3030 
Q 2388 3097 2138 3097 
Q 1578 3097 1268 2742 
Q 959 2388 959 1747 
Q 959 1106 1268 751 
Q 1578 397 2138 397 
Q 2388 397 2633 464 
Q 2878 531 3122 666 
L 3122 134 
Q 2881 22 2623 -34 
Q 2366 -91 2075 -91 
Q 1284 -91 818 406 
Q 353 903 353 1747 
Q 353 2603 823 3093 
Q 1294 3584 2113 3584 
Q 2378 3584 2631 3529 
Q 2884 3475 3122 3366 
z
" transform="scale(0.015625)"/>
       <path id="DejaVuSans-74" d="M 1172 4494 
L 1172 3500 
L 2356 3500 
L 2356 3053 
L 1172 3053 
L 1172 1153 
Q 1172 725 1289 603 
Q 1406 481 1766 481 
L 2356 481 
L 2356 0 
L 1766 0 
Q 1100 0 847 248 
Q 594 497 594 1153 
L 594 3053 
L 172 3053 
L 172 3500 
L 594 3500 
L 594 4494 
L 1172 4494 
z
" transform="scale(0.015625)"/>
       <path id="DejaVuSans-69" d="M 603 3500 
L 1178 3500 
L 1178 0 
L 603 0 
L 603 3500 
z
M 603 4863 
L 1178 4863 
L 1178 4134 
L 603 4134 
L 603 4863 
z
" transform="scale(0.015625)"/>
       <path id="DejaVuSans-6f" d="M 1959 3097 
Q 1497 3097 1228 2736 
Q 959 2375 959 1747 
Q 959 1119 1226 758 
Q 1494 397 1959 397 
Q 2419 397 2687 759 
Q 2956 1122 2956 1747 
Q 2956 2369 2687 2733 
Q 2419 3097 1959 3097 
z
M 1959 3584 
Q 2709 3584 3137 3096 
Q 3566 2609 3566 1747 
Q 3566 888 3137 398 
Q 2709 -91 1959 -91 
Q 1206 -91 779 398 
Q 353 888 353 1747 
Q 353 2609 779 3096 
Q 1206 3584 1959 3584 
z
" transform="scale(0.015625)"/>
       <path id="DejaVuSans-6e" d="M 3513 2113 
L 3513 0 
L 2938 0 
L 2938 2094 
Q 2938 2591 2744 2837 
Q 2550 3084 2163 3084 
Q 1697 3084 1428 2787 
Q 1159 2491 1159 1978 
L 1159 0 
L 581 0 
L 581 3500 
L 1159 3500 
L 1159 2956 
Q 1366 3272 1645 3428 
Q 1925 3584 2291 3584 
Q 2894 3584 3203 3211 
Q 3513 2838 3513 2113 
z
" transform="scale(0.015625)"/>
       <path id="DejaVuSans-20" transform="scale(0.015625)"/>
       <path id="DejaVuSans-6d" d="M 3328 2828 
Q 3544 3216 3844 3400 
Q 4144 3584 4550 3584 
Q 5097 3584 5394 3201 
Q 5691 2819 5691 2113 
L 5691 0 
L 5113 0 
L 5113 2094 
Q 5113 2597 4934 2840 
Q 4756 3084 4391 3084 
Q 3944 3084 3684 2787 
Q 3425 2491 3425 1978 
L 3425 0 
L 2847 0 
L 2847 2094 
Q 2847 2600 2669 2842 
Q 2491 3084 2119 3084 
Q 1678 3084 1418 2786 
Q 1159 2488 1159 1978 
L 1159 0 
L 581 0 
L 581 3500 
L 1159 3500 
L 1159 2956 
Q 1356 3278 1631 3431 
Q 1906 3584 2284 3584 
Q 2666 3584 2933 3390 
Q 3200 3197 3328 2828 
z
" transform="scale(0.015625)"/>
       <path id="DejaVuSans-28" d="M 1984 4856 
Q 1566 4138 1362 3434 
Q 1159 2731 1159 2009 
Q 1159 1288 1364 580 
Q 1569 -128 1984 -844 
L 1484 -844 
Q 1016 -109 783 600 
Q 550 1309 550 2009 
Q 550 2706 781 3412 
Q 1013 4119 1484 4856 
L 1984 4856 
z
" transform="scale(0.015625)"/>
       <path id="DejaVuSans-73" d="M 2834 3397 
L 2834 2853 
Q 2591 2978 2328 3040 
Q 2066 3103 1784 3103 
Q 1356 3103 1142 2972 
Q 928 2841 928 2578 
Q 928 2378 1081 2264 
Q 1234 2150 1697 2047 
L 1894 2003 
Q 2506 1872 2764 1633 
Q 3022 1394 3022 966 
Q 3022 478 2636 193 
Q 2250 -91 1575 -91 
Q 1294 -91 989 -36 
Q 684 19 347 128 
L 347 722 
Q 666 556 975 473 
Q 1284 391 1588 391 
Q 1994 391 2212 530 
Q 2431 669 2431 922 
Q 2431 1156 2273 1281 
Q 2116 1406 1581 1522 
L 1381 1569 
Q 847 1681 609 1914 
Q 372 2147 372 2553 
Q 372 3047 722 3315 
Q 1072 3584 1716 3584 
Q 2034 3584 2315 3537 
Q 2597 3491 2834 3397 
z
" transform="scale(0.015625)"/>
       <path id="DejaVuSans-29" d="M 513 4856 
L 1013 4856 
Q 1481 4119 1714 3412 
Q 1947 2706 1947 2009 
Q 1947 1309 1714 600 
Q 1481 -109 1013 -844 
L 513 -844 
Q 928 -128 1133 580 
Q 1338 1288 1338 2009 
Q 1338 2731 1133 3434 
Q 928 4138 513 4856 
z
" transform="scale(0.015625)"/>
      </defs>
      <use xlink:href="#DejaVuSans-52"/>
      <use xlink:href="#DejaVuSans-65" x="64.982422"/>
      <use xlink:href="#DejaVuSans-61" x="126.505859"/>
      <use xlink:href="#DejaVuSans-63" x="187.785156"/>
      <use xlink:href="#DejaVuSans-74" x="242.765625"/>
      <use xlink:href="#DejaVuSans-69" x="281.974609"/>
      <use xlink:href="#DejaVuSans-6f" x="309.757812"/>
      <use xlink:href="#DejaVuSans-6e" x="370.939453"/>
      <use xlink:href="#DejaVuSans-20" x="434.318359"/>
      <use xlink:href="#DejaVuSans-74" x="466.105469"/>
      <use xlink:href="#DejaVuSans-69" x="505.314453"/>
      <use xlink:href="#DejaVuSans-6d" x="533.097656"/>
      <use xlink:href="#DejaVuSans-65" x="630.509766"/>
      <use xlink:href="#DejaVuSans-20" x="692.033203"/>
      <use xlink:href="#DejaVuSans-28" x="723.820312"/>
      <use xlink:href="#DejaVuSans-73" x="762.833984"/>
      <use xlink:href="#DejaVuSans-65" x="814.933594"/>
      <use xlink:href="#DejaVuSans-63" x="876.457031"/>
      <use xlink:href="#DejaVuSans-73" x="931.4375"/>
      <use xlink:href="#DejaVuSans-29" x="983.537109"/>
     </g>
    </g>
   </g>
   <g id="matplotlib.axis_2">
    <g id="ytick_1">
     <g id="line2d_7">
      <defs>
       <path id="md4b5479ea3" d="M 0 0 
L -3.5 0 
" style="stroke: #000000; stroke-width: 0.8"/>
      </defs>
      <g>
       <use xlink:href="#md4b5479ea3" x="63" y="307.817047" style="stroke: #000000; stroke-width: 0.8"/>
      </g>
     </g>
     <g id="text_8">
      <!-- 0 -->
      <g transform="translate(49.6375 311.616266) scale(0.1 -0.1)">
       <use xlink:href="#DejaVuSans-30"/>
      </g>
     </g>
    </g>
    <g id="ytick_2">
     <g id="line2d_8">
      <g>
       <use xlink:href="#md4b5479ea3" x="63" y="257.41409" style="stroke: #000000; stroke-width: 0.8"/>
      </g>
     </g>
     <g id="text_9">
      <!-- 200 -->
      <g transform="translate(36.9125 261.213308) scale(0.1 -0.1)">
       <use xlink:href="#DejaVuSans-32"/>
       <use xlink:href="#DejaVuSans-30" x="63.623047"/>
       <use xlink:href="#DejaVuSans-30" x="127.246094"/>
      </g>
     </g>
    </g>
    <g id="ytick_3">
     <g id="line2d_9">
      <g>
       <use xlink:href="#md4b5479ea3" x="63" y="207.011133" style="stroke: #000000; stroke-width: 0.8"/>
      </g>
     </g>
     <g id="text_10">
      <!-- 400 -->
      <g transform="translate(36.9125 210.810351) scale(0.1 -0.1)">
       <use xlink:href="#DejaVuSans-34"/>
       <use xlink:href="#DejaVuSans-30" x="63.623047"/>
       <use xlink:href="#DejaVuSans-30" x="127.246094"/>
      </g>
     </g>
    </g>
    <g id="ytick_4">
     <g id="line2d_10">
      <g>
       <use xlink:href="#md4b5479ea3" x="63" y="156.608175" style="stroke: #000000; stroke-width: 0.8"/>
      </g>
     </g>
     <g id="text_11">
      <!-- 600 -->
      <g transform="translate(36.9125 160.407394) scale(0.1 -0.1)">
       <defs>
        <path id="DejaVuSans-36" d="M 2113 2584 
Q 1688 2584 1439 2293 
Q 1191 2003 1191 1497 
Q 1191 994 1439 701 
Q 1688 409 2113 409 
Q 2538 409 2786 701 
Q 3034 994 3034 1497 
Q 3034 2003 2786 2293 
Q 2538 2584 2113 2584 
z
M 3366 4563 
L 3366 3988 
Q 3128 4100 2886 4159 
Q 2644 4219 2406 4219 
Q 1781 4219 1451 3797 
Q 1122 3375 1075 2522 
Q 1259 2794 1537 2939 
Q 1816 3084 2150 3084 
Q 2853 3084 3261 2657 
Q 3669 2231 3669 1497 
Q 3669 778 3244 343 
Q 2819 -91 2113 -91 
Q 1303 -91 875 529 
Q 447 1150 447 2328 
Q 447 3434 972 4092 
Q 1497 4750 2381 4750 
Q 2619 4750 2861 4703 
Q 3103 4656 3366 4563 
z
" transform="scale(0.015625)"/>
       </defs>
       <use xlink:href="#DejaVuSans-36"/>
       <use xlink:href="#DejaVuSans-30" x="63.623047"/>
       <use xlink:href="#DejaVuSans-30" x="127.246094"/>
      </g>
     </g>
    </g>
    <g id="ytick_5">
     <g id="line2d_11">
      <g>
       <use xlink:href="#md4b5479ea3" x="63" y="106.205218" style="stroke: #000000; stroke-width: 0.8"/>
      </g>
     </g>
     <g id="text_12">
      <!-- 800 -->
      <g transform="translate(36.9125 110.004437) scale(0.1 -0.1)">
       <defs>
        <path id="DejaVuSans-38" d="M 2034 2216 
Q 1584 2216 1326 1975 
Q 1069 1734 1069 1313 
Q 1069 891 1326 650 
Q 1584 409 2034 409 
Q 2484 409 2743 651 
Q 3003 894 3003 1313 
Q 3003 1734 2745 1975 
Q 2488 2216 2034 2216 
z
M 1403 2484 
Q 997 2584 770 2862 
Q 544 3141 544 3541 
Q 544 4100 942 4425 
Q 1341 4750 2034 4750 
Q 2731 4750 3128 4425 
Q 3525 4100 3525 3541 
Q 3525 3141 3298 2862 
Q 3072 2584 2669 2484 
Q 3125 2378 3379 2068 
Q 3634 1759 3634 1313 
Q 3634 634 3220 271 
Q 2806 -91 2034 -91 
Q 1263 -91 848 271 
Q 434 634 434 1313 
Q 434 1759 690 2068 
Q 947 2378 1403 2484 
z
M 1172 3481 
Q 1172 3119 1398 2916 
Q 1625 2713 2034 2713 
Q 2441 2713 2670 2916 
Q 2900 3119 2900 3481 
Q 2900 3844 2670 4047 
Q 2441 4250 2034 4250 
Q 1625 4250 1398 4047 
Q 1172 3844 1172 3481 
z
" transform="scale(0.015625)"/>
       </defs>
       <use xlink:href="#DejaVuSans-38"/>
       <use xlink:href="#DejaVuSans-30" x="63.623047"/>
       <use xlink:href="#DejaVuSans-30" x="127.246094"/>
      </g>
     </g>
    </g>
    <g id="ytick_6">
     <g id="line2d_12">
      <g>
       <use xlink:href="#md4b5479ea3" x="63" y="55.802261" style="stroke: #000000; stroke-width: 0.8"/>
      </g>
     </g>
     <g id="text_13">
      <!-- 1000 -->
      <g transform="translate(30.55 59.60148) scale(0.1 -0.1)">
       <use xlink:href="#DejaVuSans-31"/>
       <use xlink:href="#DejaVuSans-30" x="63.623047"/>
       <use xlink:href="#DejaVuSans-30" x="127.246094"/>
       <use xlink:href="#DejaVuSans-30" x="190.869141"/>
      </g>
     </g>
    </g>
    <g id="text_14">
     <!-- Concentration (nM) -->
     <g transform="translate(24.470312 230.144531) rotate(-90) scale(0.1 -0.1)">
      <defs>
       <path id="DejaVuSans-43" d="M 4122 4306 
L 4122 3641 
Q 3803 3938 3442 4084 
Q 3081 4231 2675 4231 
Q 1875 4231 1450 3742 
Q 1025 3253 1025 2328 
Q 1025 1406 1450 917 
Q 1875 428 2675 428 
Q 3081 428 3442 575 
Q 3803 722 4122 1019 
L 4122 359 
Q 3791 134 3420 21 
Q 3050 -91 2638 -91 
Q 1578 -91 968 557 
Q 359 1206 359 2328 
Q 359 3453 968 4101 
Q 1578 4750 2638 4750 
Q 3056 4750 3426 4639 
Q 3797 4528 4122 4306 
z
" transform="scale(0.015625)"/>
       <path id="DejaVuSans-72" d="M 2631 2963 
Q 2534 3019 2420 3045 
Q 2306 3072 2169 3072 
Q 1681 3072 1420 2755 
Q 1159 2438 1159 1844 
L 1159 0 
L 581 0 
L 581 3500 
L 1159 3500 
L 1159 2956 
Q 1341 3275 1631 3429 
Q 1922 3584 2338 3584 
Q 2397 3584 2469 3576 
Q 2541 3569 2628 3553 
L 2631 2963 
z
" transform="scale(0.015625)"/>
       <path id="DejaVuSans-4d" d="M 628 4666 
L 1569 4666 
L 2759 1491 
L 3956 4666 
L 4897 4666 
L 4897 0 
L 4281 0 
L 4281 4097 
L 3078 897 
L 2444 897 
L 1241 4097 
L 1241 0 
L 628 0 
L 628 4666 
z
" transform="scale(0.015625)"/>
      </defs>
      <use xlink:href="#DejaVuSans-43"/>
      <use xlink:href="#DejaVuSans-6f" x="69.824219"/>
      <use xlink:href="#DejaVuSans-6e" x="131.005859"/>
      <use xlink:href="#DejaVuSans-63" x="194.384766"/>
      <use xlink:href="#DejaVuSans-65" x="249.365234"/>
      <use xlink:href="#DejaVuSans-6e" x="310.888672"/>
      <use xlink:href="#DejaVuSans-74" x="374.267578"/>
      <use xlink:href="#DejaVuSans-72" x="413.476562"/>
      <use xlink:href="#DejaVuSans-61" x="454.589844"/>
      <use xlink:href="#DejaVuSans-74" x="515.869141"/>
      <use xlink:href="#DejaVuSans-69" x="555.078125"/>
      <use xlink:href="#DejaVuSans-6f" x="582.861328"/>
      <use xlink:href="#DejaVuSans-6e" x="644.042969"/>
      <use xlink:href="#DejaVuSans-20" x="707.421875"/>
      <use xlink:href="#DejaVuSans-28" x="739.208984"/>
      <use xlink:href="#DejaVuSans-6e" x="778.222656"/>
      <use xlink:href="#DejaVuSans-4d" x="841.601562"/>
      <use xlink:href="#DejaVuSans-29" x="927.880859"/>
     </g>
    </g>
   </g>
   <g id="line2d_13">
    <path d="M 80.754545 307.565032 
L 83.600976 307.603522 
L 92.851879 307.765854 
L 113.488487 307.799991 
L 181.80297 307.689455 
L 193.188737 307.480131 
L 198.881621 307.186897 
L 202.439673 306.833416 
L 205.286115 306.36816 
L 207.420946 305.844689 
L 209.555777 305.09446 
L 211.690609 304.026802 
L 213.82544 302.591595 
L 216.671882 300.574378 
L 217.383492 300.237839 
L 218.095103 300.035563 
L 218.806713 299.987834 
L 219.518324 300.099877 
L 220.229934 300.36114 
L 221.653155 301.228158 
L 225.922818 304.406001 
L 227.346038 305.193741 
L 229.48087 306.061497 
L 231.615701 306.63963 
L 234.462143 307.115208 
L 238.020195 307.435133 
L 243.001468 307.637285 
L 252.252404 307.749417 
L 277.87038 307.755182 
L 298.507083 307.60266 
L 306.334797 307.361214 
L 311.316003 307.002377 
L 314.873987 306.518575 
L 317.720374 305.872161 
L 319.855165 305.139606 
L 321.989956 304.097842 
L 324.124746 302.692325 
L 326.971134 300.674254 
L 327.682731 300.322279 
L 328.394327 300.099046 
L 329.105924 300.026991 
L 329.817521 300.11404 
L 330.529118 300.352308 
L 331.952312 301.186538 
L 336.93349 304.784638 
L 338.356684 305.49267 
L 340.491474 306.262939 
L 342.626265 306.772786 
L 345.472652 307.191369 
L 349.030637 307.473253 
L 354.723412 307.666754 
L 365.397365 307.759564 
L 395.284433 307.730158 
L 410.939564 307.551371 
L 418.055533 307.265462 
L 422.325114 306.891967 
L 425.171502 306.465272 
L 427.306292 305.987556 
L 429.441083 305.304805 
L 431.575873 304.330618 
L 433.710664 302.993373 
L 435.845455 301.415291 
L 435.845455 301.415291 
" clip-path="url(#p1b3a9d5569)" style="fill: none; stroke: #cc79a7; stroke-width: 1.5; stroke-linecap: square"/>
   </g>
   <g id="line2d_14">
    <path d="M 80.754545 305.548914 
L 100.679558 306.196188 
L 124.162592 306.726197 
L 153.338553 307.1501 
L 191.053906 307.46396 
L 213.82544 307.504272 
L 217.383492 307.263268 
L 224.499597 306.60152 
L 228.769259 306.621792 
L 265.061392 307.166881 
L 303.488356 307.476948 
L 324.124746 307.509306 
L 327.682731 307.279054 
L 334.798699 306.614865 
L 339.06828 306.631039 
L 376.071318 307.179475 
L 415.209145 307.487507 
L 434.422261 307.500327 
L 435.845455 307.430462 
L 435.845455 307.430462 
" clip-path="url(#p1b3a9d5569)" style="fill: none; stroke: #0072b2; stroke-width: 1.5; stroke-linecap: square"/>
   </g>
   <g id="line2d_15">
    <path d="M 80.754545 307.565032 
L 81.466153 304.750483 
L 82.177761 302.480244 
L 82.889369 300.655238 
L 83.600976 299.194369 
L 84.312584 298.031214 
L 85.024192 297.111434 
L 85.7358 296.390507 
L 87.159016 295.406111 
L 88.582231 294.85893 
L 90.005447 294.60215 
L 92.140271 294.555547 
L 94.986702 294.835373 
L 99.256344 295.54542 
L 114.911701 298.323393 
L 124.162592 299.693784 
L 134.125091 300.949947 
L 145.510838 302.149585 
L 157.608215 303.195445 
L 171.128814 304.137682 
L 186.072633 304.957281 
L 203.151283 305.672307 
L 212.402219 305.904012 
L 214.53705 305.793032 
L 215.960271 305.573225 
L 217.383492 305.176827 
L 218.806713 304.576804 
L 220.941544 303.340765 
L 224.499597 301.135718 
L 225.922818 300.511258 
L 227.346038 300.094958 
L 229.48087 299.792062 
L 231.615701 299.747736 
L 235.173753 299.965312 
L 242.289858 300.730844 
L 255.810456 302.158483 
L 267.907834 303.202314 
L 281.428432 304.143138 
L 296.372251 304.961522 
L 313.450793 305.675489 
L 322.701552 305.911551 
L 324.836343 305.811879 
L 326.259537 305.60693 
L 327.682731 305.230994 
L 329.105924 304.654211 
L 331.240715 303.448025 
L 334.798699 301.249182 
L 336.221893 300.615096 
L 337.645087 300.188447 
L 339.06828 299.942073 
L 341.203071 299.81637 
L 344.049459 299.916853 
L 349.030637 300.387213 
L 368.243752 302.399505 
L 381.052496 303.451701 
L 395.284433 304.383128 
L 410.939564 305.17987 
L 428.729486 305.855225 
L 433.710664 305.891887 
L 435.845455 305.688551 
L 435.845455 305.688551 
" clip-path="url(#p1b3a9d5569)" style="fill: none; stroke: #e69f00; stroke-width: 1.5; stroke-linecap: square"/>
   </g>
   <g id="line2d_16">
    <path d="M 80.754545 55.802261 
L 82.177761 55.824826 
L 83.600976 56.077241 
L 86.447408 56.911394 
L 112.77688 65.251539 
L 121.316164 67.588675 
L 129.143842 69.484123 
L 136.259912 70.973524 
L 143.376006 72.226183 
L 150.492111 73.243226 
L 157.608215 74.039632 
L 165.43593 74.692603 
L 173.975255 75.187157 
L 184.649412 75.56641 
L 198.17001 75.796936 
L 221.653155 76.102434 
L 224.499597 76.518726 
L 228.769259 77.455921 
L 242.289858 80.607506 
L 249.405962 81.995263 
L 256.522067 83.147634 
L 263.638171 84.069356 
L 271.465886 84.840966 
L 280.005211 85.438517 
L 289.256147 85.861638 
L 300.641914 86.156168 
L 315.585584 86.310217 
L 331.240715 86.485184 
L 334.087102 86.823183 
L 337.645087 87.536605 
L 356.858202 91.838453 
L 363.974171 93.069701 
L 371.09014 94.066978 
L 378.206108 94.845818 
L 386.033674 95.482115 
L 395.284433 95.993159 
L 405.958386 96.344355 
L 419.478727 96.552286 
L 435.845455 96.618197 
L 435.845455 96.618197 
" clip-path="url(#p1b3a9d5569)" style="fill: none; stroke: #009e73; stroke-width: 1.5; stroke-linecap: square"/>
   </g>
   <g id="line2d_17">
    <path d="M 80.754545 257.41409 
L 81.466153 257.455159 
L 82.177761 257.222667 
L 82.889369 256.265284 
L 83.600976 254.740443 
L 85.024192 250.879517 
L 88.582231 239.966719 
L 94.275095 222.487915 
L 98.544737 210.034241 
L 102.814379 198.27886 
L 106.372414 189.054133 
L 109.930451 180.37372 
L 113.488487 172.25981 
L 117.046522 164.734883 
L 120.604557 157.821443 
L 123.450985 152.745354 
L 126.297413 148.083941 
L 129.143842 143.845328 
L 131.99027 140.035342 
L 134.836698 136.657107 
L 137.683126 133.710592 
L 139.817954 131.782027 
L 141.952786 130.091648 
L 144.087617 128.635472 
L 146.222448 127.408439 
L 148.357279 126.404394 
L 150.492111 125.616233 
L 152.626942 125.035909 
L 154.761773 124.654565 
L 156.896605 124.462708 
L 159.031436 124.450403 
L 161.877878 124.695296 
L 164.72432 125.215876 
L 167.570761 125.986595 
L 170.417203 126.981979 
L 173.975255 128.505235 
L 177.533308 130.296134 
L 181.80297 132.738927 
L 186.072633 135.439718 
L 191.053906 138.839087 
L 197.4584 143.482857 
L 207.420946 151.029764 
L 215.960271 157.456003 
L 218.095103 158.804768 
L 219.518324 159.430467 
L 220.229934 159.598759 
L 220.941544 159.637752 
L 221.653155 159.526865 
L 222.364765 159.253854 
L 223.076376 158.81755 
L 224.499597 157.501041 
L 225.922818 155.725954 
L 228.057649 152.561788 
L 237.308585 138.078105 
L 240.155026 134.180367 
L 243.001468 130.673125 
L 245.84791 127.576823 
L 247.982741 125.529433 
L 250.117573 123.718292 
L 252.252404 122.141754 
L 254.387235 120.796588 
L 256.522067 119.678134 
L 258.656898 118.780562 
L 260.791729 118.096889 
L 262.92656 117.619224 
L 265.061392 117.338799 
L 267.196223 117.246201 
L 269.331054 117.331508 
L 272.177496 117.704147 
L 275.023938 118.349996 
L 277.87038 119.24303 
L 280.716822 120.358577 
L 284.274874 122.028852 
L 287.832926 123.963385 
L 292.102589 126.574455 
L 297.083862 129.937231 
L 302.776745 134.087184 
L 309.892809 139.571721 
L 327.682731 153.510335 
L 329.105924 154.345118 
L 330.529118 154.876358 
L 331.240715 154.969187 
L 331.952312 154.916951 
L 332.663909 154.705544 
L 333.375506 154.331475 
L 334.087102 153.802188 
L 335.510296 152.346566 
L 336.93349 150.504538 
L 339.06828 147.345525 
L 346.895846 135.387851 
L 349.742233 131.520691 
L 352.588621 128.03383 
L 355.435008 124.95234 
L 357.569799 122.913995 
L 359.70459 121.110776 
L 361.83938 119.54156 
L 363.974171 118.203408 
L 366.108961 117.091983 
L 368.243752 116.201595 
L 370.378543 115.525458 
L 372.513333 115.055822 
L 374.648124 114.784058 
L 376.782914 114.700873 
L 378.917705 114.796424 
L 381.764093 115.184091 
L 384.61048 115.846276 
L 387.456868 116.757738 
L 390.303255 117.893404 
L 393.861239 119.591166 
L 397.419224 121.555663 
L 401.688805 124.205663 
L 405.958386 127.112247 
L 411.651161 131.286688 
L 418.76713 136.824153 
L 430.864276 146.593864 
L 435.845455 150.551007 
L 435.845455 150.551007 
" clip-path="url(#p1b3a9d5569)" style="fill: none; stroke: #7f7f7f; stroke-width: 1.5; stroke-linecap: square"/>
   </g>
   <g id="line2d_18">
    <path d="M 80.754545 239.067678 
L 82.889369 240.927425 
L 85.024192 242.478445 
L 87.159016 243.665794 
L 88.582231 244.233966 
L 90.005447 244.612557 
L 91.428663 244.795592 
L 92.851879 244.780187 
L 94.275095 244.566581 
L 95.698309 244.158149 
L 97.121523 243.561333 
L 98.544737 242.785534 
L 100.679558 241.313746 
L 102.814379 239.519548 
L 105.660807 236.736987 
L 109.218843 232.881364 
L 114.200094 227.460139 
L 117.046522 224.707203 
L 119.181343 222.943538 
L 121.316164 221.508243 
L 122.739378 220.759444 
L 124.162592 220.191264 
L 125.585806 219.812673 
L 127.009021 219.62963 
L 128.432235 219.645035 
L 129.855449 219.858634 
L 131.278663 220.267066 
L 132.701877 220.863878 
L 134.125091 221.639673 
L 136.259912 223.111446 
L 138.394733 224.905636 
L 141.241175 227.688227 
L 144.799227 231.543851 
L 149.7805 236.965099 
L 152.626942 239.718057 
L 154.761773 241.481715 
L 156.896605 242.91701 
L 158.319826 243.665806 
L 159.743047 244.233977 
L 161.166267 244.612568 
L 162.589488 244.795596 
L 164.012709 244.780183 
L 165.43593 244.566565 
L 166.859151 244.158126 
L 168.282372 243.56129 
L 169.705593 242.78548 
L 171.840424 241.313684 
L 173.975255 239.519456 
L 176.821697 236.736849 
L 180.379749 232.88121 
L 185.361022 227.46 
L 188.207464 224.707057 
L 190.342295 222.9434 
L 192.477127 221.508128 
L 193.900348 220.759351 
L 195.323569 220.191195 
L 196.746789 219.812635 
L 198.17001 219.629622 
L 199.593231 219.64505 
L 201.016452 219.85868 
L 202.439673 220.26715 
L 203.862894 220.864001 
L 205.286115 221.639826 
L 207.420946 223.111653 
L 209.555777 224.905882 
L 212.402219 227.688504 
L 215.960271 231.544174 
L 220.941544 236.965368 
L 223.787986 239.718296 
L 225.922818 241.481915 
L 228.057649 242.917179 
L 229.48087 243.66594 
L 230.904091 244.234073 
L 232.327312 244.612618 
L 233.750532 244.795611 
L 235.173753 244.78016 
L 236.596974 244.566508 
L 238.020195 244.15803 
L 239.443416 243.561152 
L 240.866637 242.785311 
L 243.001468 241.313461 
L 245.136299 239.519209 
L 247.982741 236.736595 
L 251.540793 232.880918 
L 256.522067 227.459701 
L 259.368508 224.706819 
L 261.50334 222.943192 
L 263.638171 221.507966 
L 265.061392 220.759228 
L 266.484613 220.191103 
L 267.907834 219.812573 
L 269.331054 219.629599 
L 270.754275 219.645073 
L 272.177496 219.858749 
L 273.600717 220.267243 
L 275.023938 220.864132 
L 276.447159 221.639988 
L 278.58199 223.111869 
L 280.716822 224.906143 
L 283.563263 227.688781 
L 287.121315 231.544466 
L 292.102589 236.965668 
L 294.94903 239.718534 
L 297.083862 241.482122 
L 299.218693 242.917333 
L 300.641914 243.666063 
L 302.065135 244.234162 
L 303.488356 244.612672 
L 304.911577 244.795631 
L 306.334797 244.780137 
L 307.758018 244.56645 
L 309.181212 244.157941 
L 310.604406 243.561056 
L 312.027599 242.785204 
L 314.16239 241.313338 
L 316.297181 239.519109 
L 319.143568 236.736518 
L 322.701552 232.880933 
L 327.682731 227.459808 
L 330.529118 224.706942 
L 332.663909 222.943354 
L 334.798699 221.508089 
L 336.221893 220.759344 
L 337.645087 220.19121 
L 339.06828 219.812635 
L 340.491474 219.629622 
L 341.914668 219.645043 
L 343.337862 219.858649 
L 344.761055 220.267096 
L 346.184249 220.863901 
L 347.607443 221.63968 
L 349.742233 223.111461 
L 351.877024 224.905621 
L 354.723412 227.688135 
L 358.281396 231.543704 
L 363.262574 236.964853 
L 366.108961 239.717788 
L 368.243752 241.481453 
L 370.378543 242.916787 
L 371.801736 243.665625 
L 373.22493 244.233846 
L 374.648124 244.612476 
L 376.071318 244.795565 
L 377.494511 244.780222 
L 378.917705 244.566681 
L 380.340899 244.158322 
L 381.764093 243.561583 
L 383.187286 242.78585 
L 385.322077 241.314184 
L 387.456868 239.520102 
L 390.303255 236.737656 
L 393.861239 232.882125 
L 398.842417 227.460931 
L 401.688805 224.707926 
L 403.823595 222.944146 
L 405.958386 221.508735 
L 407.38158 220.759851 
L 408.804774 220.191572 
L 410.227967 219.81285 
L 411.651161 219.629684 
L 413.074355 219.644958 
L 414.497548 219.858411 
L 415.920742 220.266704 
L 417.343936 220.863393 
L 418.76713 221.639042 
L 420.90192 223.110623 
L 423.036711 224.904667 
L 425.883098 227.687005 
L 429.441083 231.542489 
L 434.422261 236.963722 
L 435.845455 238.38895 
L 435.845455 238.38895 
" clip-path="url(#p1b3a9d5569)" style="fill: none; stroke-dasharray: 1.5,2.475; stroke-dashoffset: 0; stroke: #7f7f7f; stroke-width: 1.5"/>
   </g>
   <g id="patch_3">
    <path d="M 63 320.4 
L 63 43.2 
" style="fill: none; stroke: #000000; stroke-width: 0.8; stroke-linejoin: miter; stroke-linecap: square"/>
   </g>
   <g id="patch_4">
    <path d="M 453.6 320.4 
L 453.6 43.2 
" style="fill: none; stroke: #000000; stroke-width: 0.8; stroke-linejoin: miter; stroke-linecap: square"/>
   </g>
   <g id="patch_5">
    <path d="M 63 320.4 
L 453.6 320.4 
" style="fill: none; stroke: #000000; stroke-width: 0.8; stroke-linejoin: miter; stroke-linecap: square"/>
   </g>
   <g id="patch_6">
    <path d="M 63 43.2 
L 453.6 43.2 
" style="fill: none; stroke: #000000; stroke-width: 0.8; stroke-linejoin: miter; stroke-linecap: square"/>
   </g>
   <g id="text_15">
    <!-- Simulation with default (y0, w0, c) -->
    <g transform="translate(155.078438 37.2) scale(0.12 -0.12)">
     <defs>
      <path id="DejaVuSans-53" d="M 3425 4513 
L 3425 3897 
Q 3066 4069 2747 4153 
Q 2428 4238 2131 4238 
Q 1616 4238 1336 4038 
Q 1056 3838 1056 3469 
Q 1056 3159 1242 3001 
Q 1428 2844 1947 2747 
L 2328 2669 
Q 3034 2534 3370 2195 
Q 3706 1856 3706 1288 
Q 3706 609 3251 259 
Q 2797 -91 1919 -91 
Q 1588 -91 1214 -16 
Q 841 59 441 206 
L 441 856 
Q 825 641 1194 531 
Q 1563 422 1919 422 
Q 2459 422 2753 634 
Q 3047 847 3047 1241 
Q 3047 1584 2836 1778 
Q 2625 1972 2144 2069 
L 1759 2144 
Q 1053 2284 737 2584 
Q 422 2884 422 3419 
Q 422 4038 858 4394 
Q 1294 4750 2059 4750 
Q 2388 4750 2728 4690 
Q 3069 4631 3425 4513 
z
" transform="scale(0.015625)"/>
      <path id="DejaVuSans-75" d="M 544 1381 
L 544 3500 
L 1119 3500 
L 1119 1403 
Q 1119 906 1312 657 
Q 1506 409 1894 409 
Q 2359 409 2629 706 
Q 2900 1003 2900 1516 
L 2900 3500 
L 3475 3500 
L 3475 0 
L 2900 0 
L 2900 538 
Q 2691 219 2414 64 
Q 2138 -91 1772 -91 
Q 1169 -91 856 284 
Q 544 659 544 1381 
z
M 1991 3584 
L 1991 3584 
z
" transform="scale(0.015625)"/>
      <path id="DejaVuSans-6c" d="M 603 4863 
L 1178 4863 
L 1178 0 
L 603 0 
L 603 4863 
z
" transform="scale(0.015625)"/>
      <path id="DejaVuSans-77" d="M 269 3500 
L 844 3500 
L 1563 769 
L 2278 3500 
L 2956 3500 
L 3675 769 
L 4391 3500 
L 4966 3500 
L 4050 0 
L 3372 0 
L 2619 2869 
L 1863 0 
L 1184 0 
L 269 3500 
z
" transform="scale(0.015625)"/>
      <path id="DejaVuSans-68" d="M 3513 2113 
L 3513 0 
L 2938 0 
L 2938 2094 
Q 2938 2591 2744 2837 
Q 2550 3084 2163 3084 
Q 1697 3084 1428 2787 
Q 1159 2491 1159 1978 
L 1159 0 
L 581 0 
L 581 4863 
L 1159 4863 
L 1159 2956 
Q 1366 3272 1645 3428 
Q 1925 3584 2291 3584 
Q 2894 3584 3203 3211 
Q 3513 2838 3513 2113 
z
" transform="scale(0.015625)"/>
      <path id="DejaVuSans-64" d="M 2906 2969 
L 2906 4863 
L 3481 4863 
L 3481 0 
L 2906 0 
L 2906 525 
Q 2725 213 2448 61 
Q 2172 -91 1784 -91 
Q 1150 -91 751 415 
Q 353 922 353 1747 
Q 353 2572 751 3078 
Q 1150 3584 1784 3584 
Q 2172 3584 2448 3432 
Q 2725 3281 2906 2969 
z
M 947 1747 
Q 947 1113 1208 752 
Q 1469 391 1925 391 
Q 2381 391 2643 752 
Q 2906 1113 2906 1747 
Q 2906 2381 2643 2742 
Q 2381 3103 1925 3103 
Q 1469 3103 1208 2742 
Q 947 2381 947 1747 
z
" transform="scale(0.015625)"/>
      <path id="DejaVuSans-66" d="M 2375 4863 
L 2375 4384 
L 1825 4384 
Q 1516 4384 1395 4259 
Q 1275 4134 1275 3809 
L 1275 3500 
L 2222 3500 
L 2222 3053 
L 1275 3053 
L 1275 0 
L 697 0 
L 697 3053 
L 147 3053 
L 147 3500 
L 697 3500 
L 697 3744 
Q 697 4328 969 4595 
Q 1241 4863 1831 4863 
L 2375 4863 
z
" transform="scale(0.015625)"/>
      <path id="DejaVuSans-79" d="M 2059 -325 
Q 1816 -950 1584 -1140 
Q 1353 -1331 966 -1331 
L 506 -1331 
L 506 -850 
L 844 -850 
Q 1081 -850 1212 -737 
Q 1344 -625 1503 -206 
L 1606 56 
L 191 3500 
L 800 3500 
L 1894 763 
L 2988 3500 
L 3597 3500 
L 2059 -325 
z
" transform="scale(0.015625)"/>
      <path id="DejaVuSans-2c" d="M 750 794 
L 1409 794 
L 1409 256 
L 897 -744 
L 494 -744 
L 750 256 
L 750 794 
z
" transform="scale(0.015625)"/>
     </defs>
     <use xlink:href="#DejaVuSans-53"/>
     <use xlink:href="#DejaVuSans-69" x="63.476562"/>
     <use xlink:href="#DejaVuSans-6d" x="91.259766"/>
     <use xlink:href="#DejaVuSans-75" x="188.671875"/>
     <use xlink:href="#DejaVuSans-6c" x="252.050781"/>
     <use xlink:href="#DejaVuSans-61" x="279.833984"/>
     <use xlink:href="#DejaVuSans-74" x="341.113281"/>
     <use xlink:href="#DejaVuSans-69" x="380.322266"/>
     <use xlink:href="#DejaVuSans-6f" x="408.105469"/>
     <use xlink:href="#DejaVuSans-6e" x="469.287109"/>
     <use xlink:href="#DejaVuSans-20" x="532.666016"/>
     <use xlink:href="#DejaVuSans-77" x="564.453125"/>
     <use xlink:href="#DejaVuSans-69" x="646.240234"/>
     <use xlink:href="#DejaVuSans-74" x="674.023438"/>
     <use xlink:href="#DejaVuSans-68" x="713.232422"/>
     <use xlink:href="#DejaVuSans-20" x="776.611328"/>
     <use xlink:href="#DejaVuSans-64" x="808.398438"/>
     <use xlink:href="#DejaVuSans-65" x="871.875"/>
     <use xlink:href="#DejaVuSans-66" x="933.398438"/>
     <use xlink:href="#DejaVuSans-61" x="968.603516"/>
     <use xlink:href="#DejaVuSans-75" x="1029.882812"/>
     <use xlink:href="#DejaVuSans-6c" x="1093.261719"/>
     <use xlink:href="#DejaVuSans-74" x="1121.044922"/>
     <use xlink:href="#DejaVuSans-20" x="1160.253906"/>
     <use xlink:href="#DejaVuSans-28" x="1192.041016"/>
     <use xlink:href="#DejaVuSans-79" x="1231.054688"/>
     <use xlink:href="#DejaVuSans-30" x="1290.234375"/>
     <use xlink:href="#DejaVuSans-2c" x="1353.857422"/>
     <use xlink:href="#DejaVuSans-20" x="1385.644531"/>
     <use xlink:href="#DejaVuSans-77" x="1417.431641"/>
     <use xlink:href="#DejaVuSans-30" x="1499.21875"/>
     <use xlink:href="#DejaVuSans-2c" x="1562.841797"/>
     <use xlink:href="#DejaVuSans-20" x="1594.628906"/>
     <use xlink:href="#DejaVuSans-63" x="1626.416016"/>
     <use xlink:href="#DejaVuSans-29" x="1681.396484"/>
    </g>
   </g>
   <g id="legend_1">
    <g id="patch_7">
     <path d="M 344.260938 227.890625 
L 446.6 227.890625 
Q 448.6 227.890625 448.6 225.890625 
L 448.6 137.709375 
Q 448.6 135.709375 446.6 135.709375 
L 344.260938 135.709375 
Q 342.260938 135.709375 342.260938 137.709375 
L 342.260938 225.890625 
Q 342.260938 227.890625 344.260938 227.890625 
z
" style="fill: #ffffff; opacity: 0.8; stroke: #cccccc; stroke-linejoin: miter"/>
    </g>
    <g id="line2d_19">
     <path d="M 346.260938 143.807812 
L 356.260938 143.807812 
L 366.260938 143.807812 
" style="fill: none; stroke: #cc79a7; stroke-width: 1.5; stroke-linecap: square"/>
    </g>
    <g id="text_16">
     <!-- Galpha_GTP -->
     <g transform="translate(374.260938 147.307812) scale(0.1 -0.1)">
      <defs>
       <path id="DejaVuSans-47" d="M 3809 666 
L 3809 1919 
L 2778 1919 
L 2778 2438 
L 4434 2438 
L 4434 434 
Q 4069 175 3628 42 
Q 3188 -91 2688 -91 
Q 1594 -91 976 548 
Q 359 1188 359 2328 
Q 359 3472 976 4111 
Q 1594 4750 2688 4750 
Q 3144 4750 3555 4637 
Q 3966 4525 4313 4306 
L 4313 3634 
Q 3963 3931 3569 4081 
Q 3175 4231 2741 4231 
Q 1884 4231 1454 3753 
Q 1025 3275 1025 2328 
Q 1025 1384 1454 906 
Q 1884 428 2741 428 
Q 3075 428 3337 486 
Q 3600 544 3809 666 
z
" transform="scale(0.015625)"/>
       <path id="DejaVuSans-70" d="M 1159 525 
L 1159 -1331 
L 581 -1331 
L 581 3500 
L 1159 3500 
L 1159 2969 
Q 1341 3281 1617 3432 
Q 1894 3584 2278 3584 
Q 2916 3584 3314 3078 
Q 3713 2572 3713 1747 
Q 3713 922 3314 415 
Q 2916 -91 2278 -91 
Q 1894 -91 1617 61 
Q 1341 213 1159 525 
z
M 3116 1747 
Q 3116 2381 2855 2742 
Q 2594 3103 2138 3103 
Q 1681 3103 1420 2742 
Q 1159 2381 1159 1747 
Q 1159 1113 1420 752 
Q 1681 391 2138 391 
Q 2594 391 2855 752 
Q 3116 1113 3116 1747 
z
" transform="scale(0.015625)"/>
       <path id="DejaVuSans-5f" d="M 3263 -1063 
L 3263 -1509 
L -63 -1509 
L -63 -1063 
L 3263 -1063 
z
" transform="scale(0.015625)"/>
       <path id="DejaVuSans-54" d="M -19 4666 
L 3928 4666 
L 3928 4134 
L 2272 4134 
L 2272 0 
L 1638 0 
L 1638 4134 
L -19 4134 
L -19 4666 
z
" transform="scale(0.015625)"/>
       <path id="DejaVuSans-50" d="M 1259 4147 
L 1259 2394 
L 2053 2394 
Q 2494 2394 2734 2622 
Q 2975 2850 2975 3272 
Q 2975 3691 2734 3919 
Q 2494 4147 2053 4147 
L 1259 4147 
z
M 628 4666 
L 2053 4666 
Q 2838 4666 3239 4311 
Q 3641 3956 3641 3272 
Q 3641 2581 3239 2228 
Q 2838 1875 2053 1875 
L 1259 1875 
L 1259 0 
L 628 0 
L 628 4666 
z
" transform="scale(0.015625)"/>
      </defs>
      <use xlink:href="#DejaVuSans-47"/>
      <use xlink:href="#DejaVuSans-61" x="77.490234"/>
      <use xlink:href="#DejaVuSans-6c" x="138.769531"/>
      <use xlink:href="#DejaVuSans-70" x="166.552734"/>
      <use xlink:href="#DejaVuSans-68" x="230.029297"/>
      <use xlink:href="#DejaVuSans-61" x="293.408203"/>
      <use xlink:href="#DejaVuSans-5f" x="354.6875"/>
      <use xlink:href="#DejaVuSans-47" x="404.6875"/>
      <use xlink:href="#DejaVuSans-54" x="478.552734"/>
      <use xlink:href="#DejaVuSans-50" x="539.636719"/>
     </g>
    </g>
    <g id="line2d_20">
     <path d="M 346.260938 158.764062 
L 356.260938 158.764062 
L 366.260938 158.764062 
" style="fill: none; stroke: #0072b2; stroke-width: 1.5; stroke-linecap: square"/>
    </g>
    <g id="text_17">
     <!-- APLC -->
     <g transform="translate(374.260938 162.264062) scale(0.1 -0.1)">
      <defs>
       <path id="DejaVuSans-41" d="M 2188 4044 
L 1331 1722 
L 3047 1722 
L 2188 4044 
z
M 1831 4666 
L 2547 4666 
L 4325 0 
L 3669 0 
L 3244 1197 
L 1141 1197 
L 716 0 
L 50 0 
L 1831 4666 
z
" transform="scale(0.015625)"/>
       <path id="DejaVuSans-4c" d="M 628 4666 
L 1259 4666 
L 1259 531 
L 3531 531 
L 3531 0 
L 628 0 
L 628 4666 
z
" transform="scale(0.015625)"/>
      </defs>
      <use xlink:href="#DejaVuSans-41"/>
      <use xlink:href="#DejaVuSans-50" x="68.408203"/>
      <use xlink:href="#DejaVuSans-4c" x="128.710938"/>
      <use xlink:href="#DejaVuSans-43" x="184.423828"/>
     </g>
    </g>
    <g id="line2d_21">
     <path d="M 346.260938 173.442187 
L 356.260938 173.442187 
L 366.260938 173.442187 
" style="fill: none; stroke: #e69f00; stroke-width: 1.5; stroke-linecap: square"/>
    </g>
    <g id="text_18">
     <!-- IP3 -->
     <g transform="translate(374.260938 176.942187) scale(0.1 -0.1)">
      <defs>
       <path id="DejaVuSans-49" d="M 628 4666 
L 1259 4666 
L 1259 0 
L 628 0 
L 628 4666 
z
" transform="scale(0.015625)"/>
      </defs>
      <use xlink:href="#DejaVuSans-49"/>
      <use xlink:href="#DejaVuSans-50" x="29.492188"/>
      <use xlink:href="#DejaVuSans-33" x="89.794922"/>
     </g>
    </g>
    <g id="line2d_22">
     <path d="M 346.260938 188.120312 
L 356.260938 188.120312 
L 366.260938 188.120312 
" style="fill: none; stroke: #009e73; stroke-width: 1.5; stroke-linecap: square"/>
    </g>
    <g id="text_19">
     <!-- Ca_ER -->
     <g transform="translate(374.260938 191.620312) scale(0.1 -0.1)">
      <defs>
       <path id="DejaVuSans-45" d="M 628 4666 
L 3578 4666 
L 3578 4134 
L 1259 4134 
L 1259 2753 
L 3481 2753 
L 3481 2222 
L 1259 2222 
L 1259 531 
L 3634 531 
L 3634 0 
L 628 0 
L 628 4666 
z
" transform="scale(0.015625)"/>
      </defs>
      <use xlink:href="#DejaVuSans-43"/>
      <use xlink:href="#DejaVuSans-61" x="69.824219"/>
      <use xlink:href="#DejaVuSans-5f" x="131.103516"/>
      <use xlink:href="#DejaVuSans-45" x="181.103516"/>
      <use xlink:href="#DejaVuSans-52" x="244.287109"/>
     </g>
    </g>
    <g id="line2d_23">
     <path d="M 346.260938 203.076562 
L 356.260938 203.076562 
L 366.260938 203.076562 
" style="fill: none; stroke: #7f7f7f; stroke-width: 1.5; stroke-linecap: square"/>
    </g>
    <g id="text_20">
     <!-- Ca_Cyt -->
     <g transform="translate(374.260938 206.576562) scale(0.1 -0.1)">
      <use xlink:href="#DejaVuSans-43"/>
      <use xlink:href="#DejaVuSans-61" x="69.824219"/>
      <use xlink:href="#DejaVuSans-5f" x="131.103516"/>
      <use xlink:href="#DejaVuSans-43" x="181.103516"/>
      <use xlink:href="#DejaVuSans-79" x="250.927734"/>
      <use xlink:href="#DejaVuSans-74" x="310.107422"/>
     </g>
    </g>
    <g id="line2d_24">
     <path d="M 346.260938 218.032812 
L 356.260938 218.032812 
L 366.260938 218.032812 
" style="fill: none; stroke-dasharray: 1.5,2.475; stroke-dashoffset: 0; stroke: #7f7f7f; stroke-width: 1.5"/>
    </g>
    <g id="text_21">
     <!-- target_Ca_Cyt -->
     <g transform="translate(374.260938 221.532812) scale(0.1 -0.1)">
      <defs>
       <path id="DejaVuSans-67" d="M 2906 1791 
Q 2906 2416 2648 2759 
Q 2391 3103 1925 3103 
Q 1463 3103 1205 2759 
Q 947 2416 947 1791 
Q 947 1169 1205 825 
Q 1463 481 1925 481 
Q 2391 481 2648 825 
Q 2906 1169 2906 1791 
z
M 3481 434 
Q 3481 -459 3084 -895 
Q 2688 -1331 1869 -1331 
Q 1566 -1331 1297 -1286 
Q 1028 -1241 775 -1147 
L 775 -588 
Q 1028 -725 1275 -790 
Q 1522 -856 1778 -856 
Q 2344 -856 2625 -561 
Q 2906 -266 2906 331 
L 2906 616 
Q 2728 306 2450 153 
Q 2172 0 1784 0 
Q 1141 0 747 490 
Q 353 981 353 1791 
Q 353 2603 747 3093 
Q 1141 3584 1784 3584 
Q 2172 3584 2450 3431 
Q 2728 3278 2906 2969 
L 2906 3500 
L 3481 3500 
L 3481 434 
z
" transform="scale(0.015625)"/>
      </defs>
      <use xlink:href="#DejaVuSans-74"/>
      <use xlink:href="#DejaVuSans-61" x="39.208984"/>
      <use xlink:href="#DejaVuSans-72" x="100.488281"/>
      <use xlink:href="#DejaVuSans-67" x="139.851562"/>
      <use xlink:href="#DejaVuSans-65" x="203.328125"/>
      <use xlink:href="#DejaVuSans-74" x="264.851562"/>
      <use xlink:href="#DejaVuSans-5f" x="304.060547"/>
      <use xlink:href="#DejaVuSans-43" x="354.060547"/>
      <use xlink:href="#DejaVuSans-61" x="423.884766"/>
      <use xlink:href="#DejaVuSans-5f" x="485.164062"/>
      <use xlink:href="#DejaVuSans-43" x="535.164062"/>
      <use xlink:href="#DejaVuSans-79" x="604.988281"/>
      <use xlink:href="#DejaVuSans-74" x="664.167969"/>
     </g>
    </g>
   </g>
  </g>
 </g>
 <defs>
  <clipPath id="p1b3a9d5569">
   <rect x="63" y="43.2" width="390.6" height="277.2"/>
  </clipPath>
 </defs>
</svg>
