<?xml version="1.0" encoding="utf-8" standalone="no"?>
<!DOCTYPE svg PUBLIC "-//W3C//DTD SVG 1.1//EN"
  "http://www.w3.org/Graphics/SVG/1.1/DTD/svg11.dtd">
<svg xmlns:xlink="http://www.w3.org/1999/xlink" width="1176.528125pt" height="357.95625pt" viewBox="0 0 1176.528125 357.95625" xmlns="http://www.w3.org/2000/svg" version="1.1">
 <metadata>
  <rdf:RDF xmlns:dc="http://purl.org/dc/elements/1.1/" xmlns:cc="http://creativecommons.org/ns#" xmlns:rdf="http://www.w3.org/1999/02/22-rdf-syntax-ns#">
   <cc:Work>
    <dc:type rdf:resource="http://purl.org/dc/dcmitype/StillImage"/>
    <dc:date>2023-05-19T11:01:11.708868</dc:date>
    <dc:format>image/svg+xml</dc:format>
    <dc:creator>
     <cc:Agent>
      <dc:title>Matplotlib v3.7.1, https://matplotlib.org/</dc:title>
     </cc:Agent>
    </dc:creator>
   </cc:Work>
  </rdf:RDF>
 </metadata>
 <defs>
  <style type="text/css">*{stroke-linejoin: round; stroke-linecap: butt}</style>
 </defs>
 <g id="figure_1">
  <g id="patch_1">
   <path d="M 0 357.95625 
L 1176.528125 357.95625 
L 1176.528125 0 
L 0 0 
z
" style="fill: #ffffff"/>
  </g>
  <g id="axes_1">
   <g id="patch_2">
    <path d="M 53.328125 320.4 
L 381.563419 320.4 
L 381.563419 43.2 
L 53.328125 43.2 
z
" style="fill: #ffffff"/>
   </g>
   <g id="matplotlib.axis_1">
    <g id="xtick_1">
     <g id="line2d_1">
      <defs>
       <path id="m63c2ec9b4d" d="M 0 0 
L 0 3.5 
" style="stroke: #000000; stroke-width: 0.8"/>
      </defs>
      <g>
       <use xlink:href="#m63c2ec9b4d" x="68.247911" y="320.4" style="stroke: #000000; stroke-width: 0.8"/>
      </g>
     </g>
     <g id="text_1">
      <!-- 0 -->
      <g transform="translate(65.066661 334.998437) scale(0.1 -0.1)">
       <defs>
        <path id="DejaVuSans-30" d="M 2034 4250 
Q 1547 4250 1301 3770 
Q 1056 3291 1056 2328 
Q 1056 1369 1301 889 
Q 1547 409 2034 409 
Q 2525 409 2770 889 
Q 3016 1369 3016 2328 
Q 3016 3291 2770 3770 
Q 2525 4250 2034 4250 
z
M 2034 4750 
Q 2819 4750 3233 4129 
Q 3647 3509 3647 2328 
Q 3647 1150 3233 529 
Q 2819 -91 2034 -91 
Q 1250 -91 836 529 
Q 422 1150 422 2328 
Q 422 3509 836 4129 
Q 1250 4750 2034 4750 
z
" transform="scale(0.015625)"/>
       </defs>
       <use xlink:href="#DejaVuSans-30"/>
      </g>
     </g>
    </g>
    <g id="xtick_2">
     <g id="line2d_2">
      <g>
       <use xlink:href="#m63c2ec9b4d" x="128.04688" y="320.4" style="stroke: #000000; stroke-width: 0.8"/>
      </g>
     </g>
     <g id="text_2">
      <!-- 10 -->
      <g transform="translate(121.68438 334.998437) scale(0.1 -0.1)">
       <defs>
        <path id="DejaVuSans-31" d="M 794 531 
L 1825 531 
L 1825 4091 
L 703 3866 
L 703 4441 
L 1819 4666 
L 2450 4666 
L 2450 531 
L 3481 531 
L 3481 0 
L 794 0 
L 794 531 
z
" transform="scale(0.015625)"/>
       </defs>
       <use xlink:href="#DejaVuSans-31"/>
       <use xlink:href="#DejaVuSans-30" x="63.623047"/>
      </g>
     </g>
    </g>
    <g id="xtick_3">
     <g id="line2d_3">
      <g>
       <use xlink:href="#m63c2ec9b4d" x="187.845848" y="320.4" style="stroke: #000000; stroke-width: 0.8"/>
      </g>
     </g>
     <g id="text_3">
      <!-- 20 -->
      <g transform="translate(181.483348 334.998437) scale(0.1 -0.1)">
       <defs>
        <path id="DejaVuSans-32" d="M 1228 531 
L 3431 531 
L 3431 0 
L 469 0 
L 469 531 
Q 828 903 1448 1529 
Q 2069 2156 2228 2338 
Q 2531 2678 2651 2914 
Q 2772 3150 2772 3378 
Q 2772 3750 2511 3984 
Q 2250 4219 1831 4219 
Q 1534 4219 1204 4116 
Q 875 4013 500 3803 
L 500 4441 
Q 881 4594 1212 4672 
Q 1544 4750 1819 4750 
Q 2544 4750 2975 4387 
Q 3406 4025 3406 3419 
Q 3406 3131 3298 2873 
Q 3191 2616 2906 2266 
Q 2828 2175 2409 1742 
Q 1991 1309 1228 531 
z
" transform="scale(0.015625)"/>
       </defs>
       <use xlink:href="#DejaVuSans-32"/>
       <use xlink:href="#DejaVuSans-30" x="63.623047"/>
      </g>
     </g>
    </g>
    <g id="xtick_4">
     <g id="line2d_4">
      <g>
       <use xlink:href="#m63c2ec9b4d" x="247.644817" y="320.4" style="stroke: #000000; stroke-width: 0.8"/>
      </g>
     </g>
     <g id="text_4">
      <!-- 30 -->
      <g transform="translate(241.282317 334.998437) scale(0.1 -0.1)">
       <defs>
        <path id="DejaVuSans-33" d="M 2597 2516 
Q 3050 2419 3304 2112 
Q 3559 1806 3559 1356 
Q 3559 666 3084 287 
Q 2609 -91 1734 -91 
Q 1441 -91 1130 -33 
Q 819 25 488 141 
L 488 750 
Q 750 597 1062 519 
Q 1375 441 1716 441 
Q 2309 441 2620 675 
Q 2931 909 2931 1356 
Q 2931 1769 2642 2001 
Q 2353 2234 1838 2234 
L 1294 2234 
L 1294 2753 
L 1863 2753 
Q 2328 2753 2575 2939 
Q 2822 3125 2822 3475 
Q 2822 3834 2567 4026 
Q 2313 4219 1838 4219 
Q 1578 4219 1281 4162 
Q 984 4106 628 3988 
L 628 4550 
Q 988 4650 1302 4700 
Q 1616 4750 1894 4750 
Q 2613 4750 3031 4423 
Q 3450 4097 3450 3541 
Q 3450 3153 3228 2886 
Q 3006 2619 2597 2516 
z
" transform="scale(0.015625)"/>
       </defs>
       <use xlink:href="#DejaVuSans-33"/>
       <use xlink:href="#DejaVuSans-30" x="63.623047"/>
      </g>
     </g>
    </g>
    <g id="xtick_5">
     <g id="line2d_5">
      <g>
       <use xlink:href="#m63c2ec9b4d" x="307.443786" y="320.4" style="stroke: #000000; stroke-width: 0.8"/>
      </g>
     </g>
     <g id="text_5">
      <!-- 40 -->
      <g transform="translate(301.081286 334.998437) scale(0.1 -0.1)">
       <defs>
        <path id="DejaVuSans-34" d="M 2419 4116 
L 825 1625 
L 2419 1625 
L 2419 4116 
z
M 2253 4666 
L 3047 4666 
L 3047 1625 
L 3713 1625 
L 3713 1100 
L 3047 1100 
L 3047 0 
L 2419 0 
L 2419 1100 
L 313 1100 
L 313 1709 
L 2253 4666 
z
" transform="scale(0.015625)"/>
       </defs>
       <use xlink:href="#DejaVuSans-34"/>
       <use xlink:href="#DejaVuSans-30" x="63.623047"/>
      </g>
     </g>
    </g>
    <g id="xtick_6">
     <g id="line2d_6">
      <g>
       <use xlink:href="#m63c2ec9b4d" x="367.242754" y="320.4" style="stroke: #000000; stroke-width: 0.8"/>
      </g>
     </g>
     <g id="text_6">
      <!-- 50 -->
      <g transform="translate(360.880254 334.998437) scale(0.1 -0.1)">
       <defs>
        <path id="DejaVuSans-35" d="M 691 4666 
L 3169 4666 
L 3169 4134 
L 1269 4134 
L 1269 2991 
Q 1406 3038 1543 3061 
Q 1681 3084 1819 3084 
Q 2600 3084 3056 2656 
Q 3513 2228 3513 1497 
Q 3513 744 3044 326 
Q 2575 -91 1722 -91 
Q 1428 -91 1123 -41 
Q 819 9 494 109 
L 494 744 
Q 775 591 1075 516 
Q 1375 441 1709 441 
Q 2250 441 2565 725 
Q 2881 1009 2881 1497 
Q 2881 1984 2565 2268 
Q 2250 2553 1709 2553 
Q 1456 2553 1204 2497 
Q 953 2441 691 2322 
L 691 4666 
z
" transform="scale(0.015625)"/>
       </defs>
       <use xlink:href="#DejaVuSans-35"/>
       <use xlink:href="#DejaVuSans-30" x="63.623047"/>
      </g>
     </g>
    </g>
    <g id="text_7">
     <!-- Reaction time (secs) -->
     <g transform="translate(166.318428 348.676562) scale(0.1 -0.1)">
      <defs>
       <path id="DejaVuSans-52" d="M 2841 2188 
Q 3044 2119 3236 1894 
Q 3428 1669 3622 1275 
L 4263 0 
L 3584 0 
L 2988 1197 
Q 2756 1666 2539 1819 
Q 2322 1972 1947 1972 
L 1259 1972 
L 1259 0 
L 628 0 
L 628 4666 
L 2053 4666 
Q 2853 4666 3247 4331 
Q 3641 3997 3641 3322 
Q 3641 2881 3436 2590 
Q 3231 2300 2841 2188 
z
M 1259 4147 
L 1259 2491 
L 2053 2491 
Q 2509 2491 2742 2702 
Q 2975 2913 2975 3322 
Q 2975 3731 2742 3939 
Q 2509 4147 2053 4147 
L 1259 4147 
z
" transform="scale(0.015625)"/>
       <path id="DejaVuSans-65" d="M 3597 1894 
L 3597 1613 
L 953 1613 
Q 991 1019 1311 708 
Q 1631 397 2203 397 
Q 2534 397 2845 478 
Q 3156 559 3463 722 
L 3463 178 
Q 3153 47 2828 -22 
Q 2503 -91 2169 -91 
Q 1331 -91 842 396 
Q 353 884 353 1716 
Q 353 2575 817 3079 
Q 1281 3584 2069 3584 
Q 2775 3584 3186 3129 
Q 3597 2675 3597 1894 
z
M 3022 2063 
Q 3016 2534 2758 2815 
Q 2500 3097 2075 3097 
Q 1594 3097 1305 2825 
Q 1016 2553 972 2059 
L 3022 2063 
z
" transform="scale(0.015625)"/>
       <path id="DejaVuSans-61" d="M 2194 1759 
Q 1497 1759 1228 1600 
Q 959 1441 959 1056 
Q 959 750 1161 570 
Q 1363 391 1709 391 
Q 2188 391 2477 730 
Q 2766 1069 2766 1631 
L 2766 1759 
L 2194 1759 
z
M 3341 1997 
L 3341 0 
L 2766 0 
L 2766 531 
Q 2569 213 2275 61 
Q 1981 -91 1556 -91 
Q 1019 -91 701 211 
Q 384 513 384 1019 
Q 384 1609 779 1909 
Q 1175 2209 1959 2209 
L 2766 2209 
L 2766 2266 
Q 2766 2663 2505 2880 
Q 2244 3097 1772 3097 
Q 1472 3097 1187 3025 
Q 903 2953 641 2809 
L 641 3341 
Q 956 3463 1253 3523 
Q 1550 3584 1831 3584 
Q 2591 3584 2966 3190 
Q 3341 2797 3341 1997 
z
" transform="scale(0.015625)"/>
       <path id="DejaVuSans-63" d="M 3122 3366 
L 3122 2828 
Q 2878 2963 2633 3030 
Q 2388 3097 2138 3097 
Q 1578 3097 1268 2742 
Q 959 2388 959 1747 
Q 959 1106 1268 751 
Q 1578 397 2138 397 
Q 2388 397 2633 464 
Q 2878 531 3122 666 
L 3122 134 
Q 2881 22 2623 -34 
Q 2366 -91 2075 -91 
Q 1284 -91 818 406 
Q 353 903 353 1747 
Q 353 2603 823 3093 
Q 1294 3584 2113 3584 
Q 2378 3584 2631 3529 
Q 2884 3475 3122 3366 
z
" transform="scale(0.015625)"/>
       <path id="DejaVuSans-74" d="M 1172 4494 
L 1172 3500 
L 2356 3500 
L 2356 3053 
L 1172 3053 
L 1172 1153 
Q 1172 725 1289 603 
Q 1406 481 1766 481 
L 2356 481 
L 2356 0 
L 1766 0 
Q 1100 0 847 248 
Q 594 497 594 1153 
L 594 3053 
L 172 3053 
L 172 3500 
L 594 3500 
L 594 4494 
L 1172 4494 
z
" transform="scale(0.015625)"/>
       <path id="DejaVuSans-69" d="M 603 3500 
L 1178 3500 
L 1178 0 
L 603 0 
L 603 3500 
z
M 603 4863 
L 1178 4863 
L 1178 4134 
L 603 4134 
L 603 4863 
z
" transform="scale(0.015625)"/>
       <path id="DejaVuSans-6f" d="M 1959 3097 
Q 1497 3097 1228 2736 
Q 959 2375 959 1747 
Q 959 1119 1226 758 
Q 1494 397 1959 397 
Q 2419 397 2687 759 
Q 2956 1122 2956 1747 
Q 2956 2369 2687 2733 
Q 2419 3097 1959 3097 
z
M 1959 3584 
Q 2709 3584 3137 3096 
Q 3566 2609 3566 1747 
Q 3566 888 3137 398 
Q 2709 -91 1959 -91 
Q 1206 -91 779 398 
Q 353 888 353 1747 
Q 353 2609 779 3096 
Q 1206 3584 1959 3584 
z
" transform="scale(0.015625)"/>
       <path id="DejaVuSans-6e" d="M 3513 2113 
L 3513 0 
L 2938 0 
L 2938 2094 
Q 2938 2591 2744 2837 
Q 2550 3084 2163 3084 
Q 1697 3084 1428 2787 
Q 1159 2491 1159 1978 
L 1159 0 
L 581 0 
L 581 3500 
L 1159 3500 
L 1159 2956 
Q 1366 3272 1645 3428 
Q 1925 3584 2291 3584 
Q 2894 3584 3203 3211 
Q 3513 2838 3513 2113 
z
" transform="scale(0.015625)"/>
       <path id="DejaVuSans-20" transform="scale(0.015625)"/>
       <path id="DejaVuSans-6d" d="M 3328 2828 
Q 3544 3216 3844 3400 
Q 4144 3584 4550 3584 
Q 5097 3584 5394 3201 
Q 5691 2819 5691 2113 
L 5691 0 
L 5113 0 
L 5113 2094 
Q 5113 2597 4934 2840 
Q 4756 3084 4391 3084 
Q 3944 3084 3684 2787 
Q 3425 2491 3425 1978 
L 3425 0 
L 2847 0 
L 2847 2094 
Q 2847 2600 2669 2842 
Q 2491 3084 2119 3084 
Q 1678 3084 1418 2786 
Q 1159 2488 1159 1978 
L 1159 0 
L 581 0 
L 581 3500 
L 1159 3500 
L 1159 2956 
Q 1356 3278 1631 3431 
Q 1906 3584 2284 3584 
Q 2666 3584 2933 3390 
Q 3200 3197 3328 2828 
z
" transform="scale(0.015625)"/>
       <path id="DejaVuSans-28" d="M 1984 4856 
Q 1566 4138 1362 3434 
Q 1159 2731 1159 2009 
Q 1159 1288 1364 580 
Q 1569 -128 1984 -844 
L 1484 -844 
Q 1016 -109 783 600 
Q 550 1309 550 2009 
Q 550 2706 781 3412 
Q 1013 4119 1484 4856 
L 1984 4856 
z
" transform="scale(0.015625)"/>
       <path id="DejaVuSans-73" d="M 2834 3397 
L 2834 2853 
Q 2591 2978 2328 3040 
Q 2066 3103 1784 3103 
Q 1356 3103 1142 2972 
Q 928 2841 928 2578 
Q 928 2378 1081 2264 
Q 1234 2150 1697 2047 
L 1894 2003 
Q 2506 1872 2764 1633 
Q 3022 1394 3022 966 
Q 3022 478 2636 193 
Q 2250 -91 1575 -91 
Q 1294 -91 989 -36 
Q 684 19 347 128 
L 347 722 
Q 666 556 975 473 
Q 1284 391 1588 391 
Q 1994 391 2212 530 
Q 2431 669 2431 922 
Q 2431 1156 2273 1281 
Q 2116 1406 1581 1522 
L 1381 1569 
Q 847 1681 609 1914 
Q 372 2147 372 2553 
Q 372 3047 722 3315 
Q 1072 3584 1716 3584 
Q 2034 3584 2315 3537 
Q 2597 3491 2834 3397 
z
" transform="scale(0.015625)"/>
       <path id="DejaVuSans-29" d="M 513 4856 
L 1013 4856 
Q 1481 4119 1714 3412 
Q 1947 2706 1947 2009 
Q 1947 1309 1714 600 
Q 1481 -109 1013 -844 
L 513 -844 
Q 928 -128 1133 580 
Q 1338 1288 1338 2009 
Q 1338 2731 1133 3434 
Q 928 4138 513 4856 
z
" transform="scale(0.015625)"/>
      </defs>
      <use xlink:href="#DejaVuSans-52"/>
      <use xlink:href="#DejaVuSans-65" x="64.982422"/>
      <use xlink:href="#DejaVuSans-61" x="126.505859"/>
      <use xlink:href="#DejaVuSans-63" x="187.785156"/>
      <use xlink:href="#DejaVuSans-74" x="242.765625"/>
      <use xlink:href="#DejaVuSans-69" x="281.974609"/>
      <use xlink:href="#DejaVuSans-6f" x="309.757812"/>
      <use xlink:href="#DejaVuSans-6e" x="370.939453"/>
      <use xlink:href="#DejaVuSans-20" x="434.318359"/>
      <use xlink:href="#DejaVuSans-74" x="466.105469"/>
      <use xlink:href="#DejaVuSans-69" x="505.314453"/>
      <use xlink:href="#DejaVuSans-6d" x="533.097656"/>
      <use xlink:href="#DejaVuSans-65" x="630.509766"/>
      <use xlink:href="#DejaVuSans-20" x="692.033203"/>
      <use xlink:href="#DejaVuSans-28" x="723.820312"/>
      <use xlink:href="#DejaVuSans-73" x="762.833984"/>
      <use xlink:href="#DejaVuSans-65" x="814.933594"/>
      <use xlink:href="#DejaVuSans-63" x="876.457031"/>
      <use xlink:href="#DejaVuSans-73" x="931.4375"/>
      <use xlink:href="#DejaVuSans-29" x="983.537109"/>
     </g>
    </g>
   </g>
   <g id="matplotlib.axis_2">
    <g id="ytick_1">
     <g id="line2d_7">
      <defs>
       <path id="m5fda361c47" d="M 0 0 
L -3.5 0 
" style="stroke: #000000; stroke-width: 0.8"/>
      </defs>
      <g>
       <use xlink:href="#m5fda361c47" x="53.328125" y="307.817047" style="stroke: #000000; stroke-width: 0.8"/>
      </g>
     </g>
     <g id="text_8">
      <!-- 0 -->
      <g transform="translate(39.965625 311.616266) scale(0.1 -0.1)">
       <use xlink:href="#DejaVuSans-30"/>
      </g>
     </g>
    </g>
    <g id="ytick_2">
     <g id="line2d_8">
      <g>
       <use xlink:href="#m5fda361c47" x="53.328125" y="257.41409" style="stroke: #000000; stroke-width: 0.8"/>
      </g>
     </g>
     <g id="text_9">
      <!-- 200 -->
      <g transform="translate(27.240625 261.213308) scale(0.1 -0.1)">
       <use xlink:href="#DejaVuSans-32"/>
       <use xlink:href="#DejaVuSans-30" x="63.623047"/>
       <use xlink:href="#DejaVuSans-30" x="127.246094"/>
      </g>
     </g>
    </g>
    <g id="ytick_3">
     <g id="line2d_9">
      <g>
       <use xlink:href="#m5fda361c47" x="53.328125" y="207.011133" style="stroke: #000000; stroke-width: 0.8"/>
      </g>
     </g>
     <g id="text_10">
      <!-- 400 -->
      <g transform="translate(27.240625 210.810351) scale(0.1 -0.1)">
       <use xlink:href="#DejaVuSans-34"/>
       <use xlink:href="#DejaVuSans-30" x="63.623047"/>
       <use xlink:href="#DejaVuSans-30" x="127.246094"/>
      </g>
     </g>
    </g>
    <g id="ytick_4">
     <g id="line2d_10">
      <g>
       <use xlink:href="#m5fda361c47" x="53.328125" y="156.608175" style="stroke: #000000; stroke-width: 0.8"/>
      </g>
     </g>
     <g id="text_11">
      <!-- 600 -->
      <g transform="translate(27.240625 160.407394) scale(0.1 -0.1)">
       <defs>
        <path id="DejaVuSans-36" d="M 2113 2584 
Q 1688 2584 1439 2293 
Q 1191 2003 1191 1497 
Q 1191 994 1439 701 
Q 1688 409 2113 409 
Q 2538 409 2786 701 
Q 3034 994 3034 1497 
Q 3034 2003 2786 2293 
Q 2538 2584 2113 2584 
z
M 3366 4563 
L 3366 3988 
Q 3128 4100 2886 4159 
Q 2644 4219 2406 4219 
Q 1781 4219 1451 3797 
Q 1122 3375 1075 2522 
Q 1259 2794 1537 2939 
Q 1816 3084 2150 3084 
Q 2853 3084 3261 2657 
Q 3669 2231 3669 1497 
Q 3669 778 3244 343 
Q 2819 -91 2113 -91 
Q 1303 -91 875 529 
Q 447 1150 447 2328 
Q 447 3434 972 4092 
Q 1497 4750 2381 4750 
Q 2619 4750 2861 4703 
Q 3103 4656 3366 4563 
z
" transform="scale(0.015625)"/>
       </defs>
       <use xlink:href="#DejaVuSans-36"/>
       <use xlink:href="#DejaVuSans-30" x="63.623047"/>
       <use xlink:href="#DejaVuSans-30" x="127.246094"/>
      </g>
     </g>
    </g>
    <g id="ytick_5">
     <g id="line2d_11">
      <g>
       <use xlink:href="#m5fda361c47" x="53.328125" y="106.205218" style="stroke: #000000; stroke-width: 0.8"/>
      </g>
     </g>
     <g id="text_12">
      <!-- 800 -->
      <g transform="translate(27.240625 110.004437) scale(0.1 -0.1)">
       <defs>
        <path id="DejaVuSans-38" d="M 2034 2216 
Q 1584 2216 1326 1975 
Q 1069 1734 1069 1313 
Q 1069 891 1326 650 
Q 1584 409 2034 409 
Q 2484 409 2743 651 
Q 3003 894 3003 1313 
Q 3003 1734 2745 1975 
Q 2488 2216 2034 2216 
z
M 1403 2484 
Q 997 2584 770 2862 
Q 544 3141 544 3541 
Q 544 4100 942 4425 
Q 1341 4750 2034 4750 
Q 2731 4750 3128 4425 
Q 3525 4100 3525 3541 
Q 3525 3141 3298 2862 
Q 3072 2584 2669 2484 
Q 3125 2378 3379 2068 
Q 3634 1759 3634 1313 
Q 3634 634 3220 271 
Q 2806 -91 2034 -91 
Q 1263 -91 848 271 
Q 434 634 434 1313 
Q 434 1759 690 2068 
Q 947 2378 1403 2484 
z
M 1172 3481 
Q 1172 3119 1398 2916 
Q 1625 2713 2034 2713 
Q 2441 2713 2670 2916 
Q 2900 3119 2900 3481 
Q 2900 3844 2670 4047 
Q 2441 4250 2034 4250 
Q 1625 4250 1398 4047 
Q 1172 3844 1172 3481 
z
" transform="scale(0.015625)"/>
       </defs>
       <use xlink:href="#DejaVuSans-38"/>
       <use xlink:href="#DejaVuSans-30" x="63.623047"/>
       <use xlink:href="#DejaVuSans-30" x="127.246094"/>
      </g>
     </g>
    </g>
    <g id="ytick_6">
     <g id="line2d_12">
      <g>
       <use xlink:href="#m5fda361c47" x="53.328125" y="55.802261" style="stroke: #000000; stroke-width: 0.8"/>
      </g>
     </g>
     <g id="text_13">
      <!-- 1000 -->
      <g transform="translate(20.878125 59.60148) scale(0.1 -0.1)">
       <use xlink:href="#DejaVuSans-31"/>
       <use xlink:href="#DejaVuSans-30" x="63.623047"/>
       <use xlink:href="#DejaVuSans-30" x="127.246094"/>
       <use xlink:href="#DejaVuSans-30" x="190.869141"/>
      </g>
     </g>
    </g>
    <g id="text_14">
     <!-- Concentration (nM) -->
     <g transform="translate(14.798437 230.144531) rotate(-90) scale(0.1 -0.1)">
      <defs>
       <path id="DejaVuSans-43" d="M 4122 4306 
L 4122 3641 
Q 3803 3938 3442 4084 
Q 3081 4231 2675 4231 
Q 1875 4231 1450 3742 
Q 1025 3253 1025 2328 
Q 1025 1406 1450 917 
Q 1875 428 2675 428 
Q 3081 428 3442 575 
Q 3803 722 4122 1019 
L 4122 359 
Q 3791 134 3420 21 
Q 3050 -91 2638 -91 
Q 1578 -91 968 557 
Q 359 1206 359 2328 
Q 359 3453 968 4101 
Q 1578 4750 2638 4750 
Q 3056 4750 3426 4639 
Q 3797 4528 4122 4306 
z
" transform="scale(0.015625)"/>
       <path id="DejaVuSans-72" d="M 2631 2963 
Q 2534 3019 2420 3045 
Q 2306 3072 2169 3072 
Q 1681 3072 1420 2755 
Q 1159 2438 1159 1844 
L 1159 0 
L 581 0 
L 581 3500 
L 1159 3500 
L 1159 2956 
Q 1341 3275 1631 3429 
Q 1922 3584 2338 3584 
Q 2397 3584 2469 3576 
Q 2541 3569 2628 3553 
L 2631 2963 
z
" transform="scale(0.015625)"/>
       <path id="DejaVuSans-4d" d="M 628 4666 
L 1569 4666 
L 2759 1491 
L 3956 4666 
L 4897 4666 
L 4897 0 
L 4281 0 
L 4281 4097 
L 3078 897 
L 2444 897 
L 1241 4097 
L 1241 0 
L 628 0 
L 628 4666 
z
" transform="scale(0.015625)"/>
      </defs>
      <use xlink:href="#DejaVuSans-43"/>
      <use xlink:href="#DejaVuSans-6f" x="69.824219"/>
      <use xlink:href="#DejaVuSans-6e" x="131.005859"/>
      <use xlink:href="#DejaVuSans-63" x="194.384766"/>
      <use xlink:href="#DejaVuSans-65" x="249.365234"/>
      <use xlink:href="#DejaVuSans-6e" x="310.888672"/>
      <use xlink:href="#DejaVuSans-74" x="374.267578"/>
      <use xlink:href="#DejaVuSans-72" x="413.476562"/>
      <use xlink:href="#DejaVuSans-61" x="454.589844"/>
      <use xlink:href="#DejaVuSans-74" x="515.869141"/>
      <use xlink:href="#DejaVuSans-69" x="555.078125"/>
      <use xlink:href="#DejaVuSans-6f" x="582.861328"/>
      <use xlink:href="#DejaVuSans-6e" x="644.042969"/>
      <use xlink:href="#DejaVuSans-20" x="707.421875"/>
      <use xlink:href="#DejaVuSans-28" x="739.208984"/>
      <use xlink:href="#DejaVuSans-6e" x="778.222656"/>
      <use xlink:href="#DejaVuSans-4d" x="841.601562"/>
      <use xlink:href="#DejaVuSans-29" x="927.880859"/>
     </g>
    </g>
   </g>
   <g id="line2d_13">
    <path d="M 68.247911 307.565032 
L 70.63987 307.603522 
L 78.413737 307.765854 
L 95.755425 307.799991 
L 153.162554 307.689455 
L 162.730425 307.480131 
L 167.514361 307.186897 
L 170.504321 306.833416 
L 172.896289 306.36816 
L 174.690265 305.844689 
L 176.48424 305.09446 
L 178.278216 304.026802 
L 180.072192 302.591595 
L 182.46416 300.574378 
L 183.062152 300.237839 
L 183.660144 300.035563 
L 184.258136 299.987834 
L 184.856128 300.099877 
L 185.45412 300.36114 
L 186.650104 301.228158 
L 190.238056 304.406001 
L 192.032032 305.521544 
L 193.826008 306.281402 
L 195.619983 306.78455 
L 198.011951 307.198003 
L 201.001911 307.476749 
L 205.785847 307.668294 
L 215.353718 307.762104 
L 241.067373 307.724736 
L 253.625204 307.540887 
L 259.007132 307.283439 
L 262.595015 306.925874 
L 264.986938 306.518575 
L 267.37886 305.872161 
L 269.172801 305.139606 
L 270.966743 304.097842 
L 272.760685 302.692325 
L 275.152607 300.674254 
L 276.348568 300.099046 
L 276.946549 300.026991 
L 277.544529 300.11404 
L 278.14251 300.352308 
L 279.338471 301.186538 
L 283.524335 304.784638 
L 285.318277 305.784578 
L 287.112218 306.457092 
L 288.90616 306.900367 
L 291.298082 307.264258 
L 294.885966 307.542123 
L 300.267791 307.701034 
L 312.227402 307.76919 
L 338.538547 307.682975 
L 348.106236 307.467853 
L 352.89008 307.166156 
L 355.879983 306.802609 
L 358.271905 306.324346 
L 360.065847 305.786636 
L 361.859789 305.0171 
L 363.65373 303.926151 
L 365.447672 302.475814 
L 366.643633 301.415291 
L 366.643633 301.415291 
" clip-path="url(#p943e285ab5)" style="fill: none; stroke: #cc79a7; stroke-width: 1.5; stroke-linecap: square"/>
   </g>
   <g id="line2d_14">
    <path d="M 68.247911 305.548914 
L 84.991619 306.196188 
L 104.725261 306.726197 
L 129.242875 307.1501 
L 160.936449 307.46396 
L 180.072192 307.504272 
L 183.062152 307.263268 
L 189.042072 306.60152 
L 192.630024 306.621792 
L 223.127614 307.166881 
L 255.41918 307.476948 
L 272.760685 307.509306 
L 275.750588 307.279054 
L 281.730393 306.614865 
L 285.318277 306.631039 
L 316.413266 307.179475 
L 349.302197 307.487507 
L 365.447672 307.500327 
L 366.643633 307.430462 
L 366.643633 307.430462 
" clip-path="url(#p943e285ab5)" style="fill: none; stroke: #0072b2; stroke-width: 1.5; stroke-linecap: square"/>
   </g>
   <g id="line2d_15">
    <path d="M 68.247911 307.565032 
L 68.845901 304.750483 
L 69.44389 302.480244 
L 70.04188 300.655238 
L 70.63987 299.194369 
L 71.23786 298.031214 
L 72.433839 296.390507 
L 73.629819 295.406111 
L 74.825798 294.85893 
L 76.021778 294.60215 
L 77.815748 294.555547 
L 80.207706 294.835373 
L 83.795641 295.54542 
L 96.951403 298.323393 
L 104.725261 299.693784 
L 113.097109 300.949947 
L 122.664963 302.149585 
L 132.830827 303.195445 
L 144.192674 304.137682 
L 156.750506 304.957281 
L 171.102313 305.672307 
L 178.876208 305.904012 
L 180.670184 305.793032 
L 181.866168 305.573225 
L 183.062152 305.176827 
L 184.258136 304.576804 
L 186.052112 303.340765 
L 189.042072 301.135718 
L 190.238056 300.511258 
L 191.43404 300.094958 
L 193.228016 299.792062 
L 195.021991 299.747736 
L 198.011951 299.965312 
L 203.991871 300.730844 
L 215.353718 302.158483 
L 225.519582 303.202314 
L 236.881429 304.143138 
L 249.43926 304.961522 
L 263.790976 305.675489 
L 271.564724 305.911551 
L 273.358665 305.811879 
L 274.554627 305.60693 
L 275.750588 305.230994 
L 276.946549 304.654211 
L 278.74049 303.448025 
L 281.730393 301.249182 
L 282.926354 300.615096 
L 284.122316 300.188447 
L 285.916257 299.872933 
L 287.710199 299.81997 
L 290.700102 300.028754 
L 296.679907 300.784856 
L 308.041538 302.201142 
L 318.207208 303.237062 
L 329.568838 304.17079 
L 342.724411 305.016804 
L 357.673925 305.741235 
L 364.251711 305.912394 
L 366.045652 305.786679 
L 366.643633 305.688551 
L 366.643633 305.688551 
" clip-path="url(#p943e285ab5)" style="fill: none; stroke: #e69f00; stroke-width: 1.5; stroke-linecap: square"/>
   </g>
   <g id="line2d_16">
    <path d="M 68.247911 55.802261 
L 69.44389 55.824826 
L 70.63987 56.077241 
L 73.031829 56.911394 
L 95.157436 65.251539 
L 102.333305 67.588675 
L 108.911185 69.484123 
L 114.891076 70.973524 
L 120.870988 72.226183 
L 126.850907 73.243226 
L 132.830827 74.039632 
L 139.408738 74.692603 
L 146.584642 75.187157 
L 155.554522 75.56641 
L 166.916369 75.796936 
L 186.650104 76.102434 
L 189.042072 76.518726 
L 192.630024 77.455921 
L 203.991871 80.607506 
L 209.971791 81.995263 
L 215.95171 83.147634 
L 221.93163 84.069356 
L 228.509542 84.840966 
L 235.685445 85.438517 
L 243.459341 85.861638 
L 253.027212 86.156168 
L 265.584918 86.310217 
L 278.74049 86.485184 
L 281.132413 86.823183 
L 284.122316 87.536605 
L 300.267791 91.838453 
L 306.247596 93.069701 
L 312.227402 94.066978 
L 318.207208 94.845818 
L 324.784994 95.482115 
L 332.558741 95.993159 
L 341.528449 96.344355 
L 352.89008 96.552286 
L 366.643633 96.618197 
L 366.643633 96.618197 
" clip-path="url(#p943e285ab5)" style="fill: none; stroke: #009e73; stroke-width: 1.5; stroke-linecap: square"/>
   </g>
   <g id="line2d_17">
    <path d="M 68.247911 257.41409 
L 68.845901 257.455159 
L 69.44389 257.222667 
L 70.04188 256.265284 
L 70.63987 254.740443 
L 71.835849 250.879517 
L 74.825798 239.966719 
L 80.207706 220.367039 
L 84.39363 206.035121 
L 87.981565 194.525072 
L 91.569499 183.779158 
L 94.559446 175.435959 
L 97.549392 167.672738 
L 100.539338 160.512036 
L 103.529283 153.975864 
L 105.92124 149.209948 
L 108.313196 144.865 
L 110.705153 140.947435 
L 113.097109 137.461143 
L 115.489066 134.406863 
L 117.881028 131.782027 
L 119.675004 130.091648 
L 121.468979 128.635472 
L 123.262955 127.408439 
L 125.056931 126.404394 
L 126.850907 125.616233 
L 128.644883 125.035909 
L 130.438859 124.654565 
L 132.232835 124.462708 
L 134.026811 124.450403 
L 136.418779 124.695296 
L 138.810747 125.215876 
L 141.202714 125.986595 
L 143.594682 126.981979 
L 146.584642 128.505235 
L 149.574602 130.296134 
L 153.162554 132.738927 
L 157.348498 135.910707 
L 162.132433 139.848777 
L 168.112353 145.077191 
L 183.062152 158.392967 
L 184.258136 159.157672 
L 185.45412 159.598759 
L 186.052112 159.637752 
L 186.650104 159.526865 
L 187.248096 159.253854 
L 187.846088 158.81755 
L 189.042072 157.501041 
L 190.238056 155.725954 
L 192.032032 152.561788 
L 199.805927 138.078105 
L 202.197895 134.180367 
L 204.589863 130.673125 
L 206.981831 127.576823 
L 209.373799 124.899519 
L 211.765767 122.641369 
L 213.559742 121.21951 
L 215.353718 120.026085 
L 217.147694 119.055619 
L 218.94167 118.301482 
L 220.735646 117.756075 
L 222.529622 117.410924 
L 224.323598 117.256799 
L 226.117574 117.283809 
L 228.509542 117.584415 
L 230.901509 118.16443 
L 233.293477 118.997937 
L 235.685445 120.060171 
L 238.675405 121.672241 
L 241.665365 123.557415 
L 245.253317 126.119955 
L 249.43926 129.439293 
L 254.223196 133.554345 
L 260.203093 139.013116 
L 276.348568 153.955144 
L 277.544529 154.660091 
L 278.14251 154.876358 
L 278.74049 154.969187 
L 279.338471 154.916951 
L 279.936452 154.705544 
L 280.534432 154.331475 
L 281.730393 153.13362 
L 282.926354 151.463253 
L 284.720296 148.431615 
L 293.092024 133.409095 
L 295.483946 129.727731 
L 297.875868 126.44151 
L 300.267791 123.567305 
L 302.659713 121.110776 
L 304.453655 119.54156 
L 306.247596 118.203408 
L 308.041538 117.091983 
L 309.83548 116.201595 
L 311.629421 115.525458 
L 313.423363 115.055822 
L 315.217305 114.784058 
L 317.011246 114.700873 
L 318.805188 114.796424 
L 321.19711 115.184091 
L 323.589033 115.846276 
L 325.980955 116.757738 
L 328.372877 117.893404 
L 331.36278 119.591166 
L 334.352683 121.555663 
L 337.940566 124.205663 
L 342.12643 127.617369 
L 346.910274 131.827203 
L 353.488061 137.959235 
L 366.643633 150.551007 
L 366.643633 150.551007 
" clip-path="url(#p943e285ab5)" style="fill: none; stroke: #7f7f7f; stroke-width: 1.5; stroke-linecap: square"/>
   </g>
   <g id="line2d_18">
    <path d="M 68.247911 239.067678 
L 70.04188 240.927425 
L 71.835849 242.478445 
L 73.629819 243.665794 
L 74.825798 244.233966 
L 76.021778 244.612557 
L 77.217758 244.795592 
L 78.413737 244.780187 
L 79.609717 244.566581 
L 80.805695 244.158149 
L 82.001674 243.561333 
L 83.795641 242.334241 
L 85.589608 240.748581 
L 87.383576 238.860539 
L 89.775532 235.98961 
L 98.74537 224.707203 
L 100.539338 222.943538 
L 102.333305 221.508243 
L 104.127272 220.452147 
L 105.323251 219.977827 
L 106.519229 219.696456 
L 107.715207 219.612472 
L 108.911185 219.727197 
L 110.107163 220.038823 
L 111.303142 220.542438 
L 112.49912 221.230102 
L 114.293087 222.582205 
L 116.087055 224.27546 
L 117.881028 226.249917 
L 120.272996 229.197878 
L 127.448899 238.39028 
L 129.242875 240.338788 
L 131.036851 241.999403 
L 132.830827 243.313313 
L 134.026811 243.973099 
L 135.222795 244.447418 
L 136.418779 244.728781 
L 137.614763 244.81275 
L 138.810747 244.69801 
L 140.00673 244.386368 
L 141.202714 243.882735 
L 142.398698 243.195058 
L 144.192674 241.84294 
L 145.98665 240.149639 
L 147.780626 238.175174 
L 150.172594 235.227183 
L 157.348498 226.034803 
L 159.142473 224.086311 
L 160.936449 222.425719 
L 162.730425 221.111832 
L 163.926409 220.45207 
L 165.122393 219.977773 
L 166.318377 219.696425 
L 167.514361 219.612472 
L 168.710345 219.727227 
L 169.906329 220.0389 
L 171.102313 220.542545 
L 172.298297 221.230241 
L 174.092273 222.58239 
L 175.886248 224.275691 
L 177.680224 226.250186 
L 180.072192 229.19817 
L 187.248096 238.390542 
L 189.042072 240.339011 
L 190.836048 241.999603 
L 192.630024 243.313467 
L 193.826008 243.973214 
L 195.021991 244.447487 
L 196.217975 244.728812 
L 197.413959 244.81275 
L 198.609943 244.697976 
L 199.805927 244.386291 
L 201.001911 243.882623 
L 202.197895 243.194904 
L 203.991871 241.842732 
L 205.785847 240.149408 
L 207.579823 238.174913 
L 209.971791 235.226898 
L 217.147694 226.034542 
L 218.94167 224.086103 
L 220.735646 222.425534 
L 222.529622 221.111694 
L 223.725606 220.451962 
L 224.92159 219.977696 
L 226.117574 219.696395 
L 227.313558 219.612472 
L 228.509542 219.727266 
L 229.705526 220.03897 
L 230.901509 220.542661 
L 232.097493 221.230387 
L 233.891469 222.582582 
L 235.685445 224.275945 
L 237.479421 226.250448 
L 239.871389 229.198478 
L 247.047293 238.390819 
L 248.841269 240.339242 
L 250.635244 241.999788 
L 252.42922 243.313606 
L 253.625204 243.973318 
L 254.821188 244.447561 
L 256.017172 244.728851 
L 257.213156 244.812747 
L 258.40914 244.697929 
L 259.605113 244.386214 
L 260.801074 243.882523 
L 261.997035 243.194789 
L 263.790976 241.842617 
L 265.584918 240.149308 
L 267.37886 238.174828 
L 269.770782 235.226867 
L 276.946549 226.034665 
L 278.74049 224.086226 
L 280.534432 222.425681 
L 282.328374 221.111824 
L 283.524335 220.452062 
L 284.720296 219.977781 
L 285.916257 219.696433 
L 287.112218 219.612472 
L 288.308179 219.72722 
L 289.504141 220.038854 
L 290.700102 220.542461 
L 291.896063 221.230133 
L 293.690005 222.582213 
L 295.483946 224.275445 
L 297.277888 226.24984 
L 299.66981 229.197786 
L 306.845577 238.390011 
L 308.639519 240.338496 
L 310.43346 241.999157 
L 312.227402 243.313109 
L 313.423363 243.972926 
L 314.619324 244.447295 
L 315.815285 244.72872 
L 317.011246 244.812758 
L 318.207208 244.698095 
L 319.403169 244.38653 
L 320.59913 243.882973 
L 321.795091 243.195389 
L 323.589033 241.843371 
L 325.382974 240.150215 
L 327.176916 238.175874 
L 329.568838 235.228075 
L 336.744605 226.035703 
L 338.538547 224.087157 
L 340.332488 222.426442 
L 342.12643 221.112401 
L 343.322391 220.4525 
L 344.518352 219.978073 
L 345.714313 219.696579 
L 346.910274 219.612456 
L 348.106236 219.72705 
L 349.302197 220.038539 
L 350.498158 220.542007 
L 351.694119 221.229533 
L 353.488061 222.581429 
L 355.282002 224.274499 
L 357.075944 226.24881 
L 359.467866 229.196609 
L 366.643633 238.38895 
L 366.643633 238.38895 
" clip-path="url(#p943e285ab5)" style="fill: none; stroke-dasharray: 1.5,2.475; stroke-dashoffset: 0; stroke: #7f7f7f; stroke-width: 1.5"/>
   </g>
   <g id="patch_3">
    <path d="M 53.328125 320.4 
L 53.328125 43.2 
" style="fill: none; stroke: #000000; stroke-width: 0.8; stroke-linejoin: miter; stroke-linecap: square"/>
   </g>
   <g id="patch_4">
    <path d="M 381.563419 320.4 
L 381.563419 43.2 
" style="fill: none; stroke: #000000; stroke-width: 0.8; stroke-linejoin: miter; stroke-linecap: square"/>
   </g>
   <g id="patch_5">
    <path d="M 53.328125 320.4 
L 381.563419 320.4 
" style="fill: none; stroke: #000000; stroke-width: 0.8; stroke-linejoin: miter; stroke-linecap: square"/>
   </g>
   <g id="patch_6">
    <path d="M 53.328125 43.2 
L 381.563419 43.2 
" style="fill: none; stroke: #000000; stroke-width: 0.8; stroke-linejoin: miter; stroke-linecap: square"/>
   </g>
   <g id="text_15">
    <!-- default c -->
    <g transform="translate(191.128272 37.2) scale(0.12 -0.12)">
     <defs>
      <path id="DejaVuSans-64" d="M 2906 2969 
L 2906 4863 
L 3481 4863 
L 3481 0 
L 2906 0 
L 2906 525 
Q 2725 213 2448 61 
Q 2172 -91 1784 -91 
Q 1150 -91 751 415 
Q 353 922 353 1747 
Q 353 2572 751 3078 
Q 1150 3584 1784 3584 
Q 2172 3584 2448 3432 
Q 2725 3281 2906 2969 
z
M 947 1747 
Q 947 1113 1208 752 
Q 1469 391 1925 391 
Q 2381 391 2643 752 
Q 2906 1113 2906 1747 
Q 2906 2381 2643 2742 
Q 2381 3103 1925 3103 
Q 1469 3103 1208 2742 
Q 947 2381 947 1747 
z
" transform="scale(0.015625)"/>
      <path id="DejaVuSans-66" d="M 2375 4863 
L 2375 4384 
L 1825 4384 
Q 1516 4384 1395 4259 
Q 1275 4134 1275 3809 
L 1275 3500 
L 2222 3500 
L 2222 3053 
L 1275 3053 
L 1275 0 
L 697 0 
L 697 3053 
L 147 3053 
L 147 3500 
L 697 3500 
L 697 3744 
Q 697 4328 969 4595 
Q 1241 4863 1831 4863 
L 2375 4863 
z
" transform="scale(0.015625)"/>
      <path id="DejaVuSans-75" d="M 544 1381 
L 544 3500 
L 1119 3500 
L 1119 1403 
Q 1119 906 1312 657 
Q 1506 409 1894 409 
Q 2359 409 2629 706 
Q 2900 1003 2900 1516 
L 2900 3500 
L 3475 3500 
L 3475 0 
L 2900 0 
L 2900 538 
Q 2691 219 2414 64 
Q 2138 -91 1772 -91 
Q 1169 -91 856 284 
Q 544 659 544 1381 
z
M 1991 3584 
L 1991 3584 
z
" transform="scale(0.015625)"/>
      <path id="DejaVuSans-6c" d="M 603 4863 
L 1178 4863 
L 1178 0 
L 603 0 
L 603 4863 
z
" transform="scale(0.015625)"/>
     </defs>
     <use xlink:href="#DejaVuSans-64"/>
     <use xlink:href="#DejaVuSans-65" x="63.476562"/>
     <use xlink:href="#DejaVuSans-66" x="125"/>
     <use xlink:href="#DejaVuSans-61" x="160.205078"/>
     <use xlink:href="#DejaVuSans-75" x="221.484375"/>
     <use xlink:href="#DejaVuSans-6c" x="284.863281"/>
     <use xlink:href="#DejaVuSans-74" x="312.646484"/>
     <use xlink:href="#DejaVuSans-20" x="351.855469"/>
     <use xlink:href="#DejaVuSans-63" x="383.642578"/>
    </g>
   </g>
   <g id="legend_1">
    <g id="patch_7">
     <path d="M 60.328125 227.890625 
L 162.667188 227.890625 
Q 164.667188 227.890625 164.667188 225.890625 
L 164.667188 137.709375 
Q 164.667188 135.709375 162.667188 135.709375 
L 60.328125 135.709375 
Q 58.328125 135.709375 58.328125 137.709375 
L 58.328125 225.890625 
Q 58.328125 227.890625 60.328125 227.890625 
z
" style="fill: #ffffff; opacity: 0.8; stroke: #cccccc; stroke-linejoin: miter"/>
    </g>
    <g id="line2d_19">
     <path d="M 62.328125 143.807812 
L 72.328125 143.807812 
L 82.328125 143.807812 
" style="fill: none; stroke: #cc79a7; stroke-width: 1.5; stroke-linecap: square"/>
    </g>
    <g id="text_16">
     <!-- Galpha_GTP -->
     <g transform="translate(90.328125 147.307812) scale(0.1 -0.1)">
      <defs>
       <path id="DejaVuSans-47" d="M 3809 666 
L 3809 1919 
L 2778 1919 
L 2778 2438 
L 4434 2438 
L 4434 434 
Q 4069 175 3628 42 
Q 3188 -91 2688 -91 
Q 1594 -91 976 548 
Q 359 1188 359 2328 
Q 359 3472 976 4111 
Q 1594 4750 2688 4750 
Q 3144 4750 3555 4637 
Q 3966 4525 4313 4306 
L 4313 3634 
Q 3963 3931 3569 4081 
Q 3175 4231 2741 4231 
Q 1884 4231 1454 3753 
Q 1025 3275 1025 2328 
Q 1025 1384 1454 906 
Q 1884 428 2741 428 
Q 3075 428 3337 486 
Q 3600 544 3809 666 
z
" transform="scale(0.015625)"/>
       <path id="DejaVuSans-70" d="M 1159 525 
L 1159 -1331 
L 581 -1331 
L 581 3500 
L 1159 3500 
L 1159 2969 
Q 1341 3281 1617 3432 
Q 1894 3584 2278 3584 
Q 2916 3584 3314 3078 
Q 3713 2572 3713 1747 
Q 3713 922 3314 415 
Q 2916 -91 2278 -91 
Q 1894 -91 1617 61 
Q 1341 213 1159 525 
z
M 3116 1747 
Q 3116 2381 2855 2742 
Q 2594 3103 2138 3103 
Q 1681 3103 1420 2742 
Q 1159 2381 1159 1747 
Q 1159 1113 1420 752 
Q 1681 391 2138 391 
Q 2594 391 2855 752 
Q 3116 1113 3116 1747 
z
" transform="scale(0.015625)"/>
       <path id="DejaVuSans-68" d="M 3513 2113 
L 3513 0 
L 2938 0 
L 2938 2094 
Q 2938 2591 2744 2837 
Q 2550 3084 2163 3084 
Q 1697 3084 1428 2787 
Q 1159 2491 1159 1978 
L 1159 0 
L 581 0 
L 581 4863 
L 1159 4863 
L 1159 2956 
Q 1366 3272 1645 3428 
Q 1925 3584 2291 3584 
Q 2894 3584 3203 3211 
Q 3513 2838 3513 2113 
z
" transform="scale(0.015625)"/>
       <path id="DejaVuSans-5f" d="M 3263 -1063 
L 3263 -1509 
L -63 -1509 
L -63 -1063 
L 3263 -1063 
z
" transform="scale(0.015625)"/>
       <path id="DejaVuSans-54" d="M -19 4666 
L 3928 4666 
L 3928 4134 
L 2272 4134 
L 2272 0 
L 1638 0 
L 1638 4134 
L -19 4134 
L -19 4666 
z
" transform="scale(0.015625)"/>
       <path id="DejaVuSans-50" d="M 1259 4147 
L 1259 2394 
L 2053 2394 
Q 2494 2394 2734 2622 
Q 2975 2850 2975 3272 
Q 2975 3691 2734 3919 
Q 2494 4147 2053 4147 
L 1259 4147 
z
M 628 4666 
L 2053 4666 
Q 2838 4666 3239 4311 
Q 3641 3956 3641 3272 
Q 3641 2581 3239 2228 
Q 2838 1875 2053 1875 
L 1259 1875 
L 1259 0 
L 628 0 
L 628 4666 
z
" transform="scale(0.015625)"/>
      </defs>
      <use xlink:href="#DejaVuSans-47"/>
      <use xlink:href="#DejaVuSans-61" x="77.490234"/>
      <use xlink:href="#DejaVuSans-6c" x="138.769531"/>
      <use xlink:href="#DejaVuSans-70" x="166.552734"/>
      <use xlink:href="#DejaVuSans-68" x="230.029297"/>
      <use xlink:href="#DejaVuSans-61" x="293.408203"/>
      <use xlink:href="#DejaVuSans-5f" x="354.6875"/>
      <use xlink:href="#DejaVuSans-47" x="404.6875"/>
      <use xlink:href="#DejaVuSans-54" x="478.552734"/>
      <use xlink:href="#DejaVuSans-50" x="539.636719"/>
     </g>
    </g>
    <g id="line2d_20">
     <path d="M 62.328125 158.764062 
L 72.328125 158.764062 
L 82.328125 158.764062 
" style="fill: none; stroke: #0072b2; stroke-width: 1.5; stroke-linecap: square"/>
    </g>
    <g id="text_17">
     <!-- APLC -->
     <g transform="translate(90.328125 162.264062) scale(0.1 -0.1)">
      <defs>
       <path id="DejaVuSans-41" d="M 2188 4044 
L 1331 1722 
L 3047 1722 
L 2188 4044 
z
M 1831 4666 
L 2547 4666 
L 4325 0 
L 3669 0 
L 3244 1197 
L 1141 1197 
L 716 0 
L 50 0 
L 1831 4666 
z
" transform="scale(0.015625)"/>
       <path id="DejaVuSans-4c" d="M 628 4666 
L 1259 4666 
L 1259 531 
L 3531 531 
L 3531 0 
L 628 0 
L 628 4666 
z
" transform="scale(0.015625)"/>
      </defs>
      <use xlink:href="#DejaVuSans-41"/>
      <use xlink:href="#DejaVuSans-50" x="68.408203"/>
      <use xlink:href="#DejaVuSans-4c" x="128.710938"/>
      <use xlink:href="#DejaVuSans-43" x="184.423828"/>
     </g>
    </g>
    <g id="line2d_21">
     <path d="M 62.328125 173.442187 
L 72.328125 173.442187 
L 82.328125 173.442187 
" style="fill: none; stroke: #e69f00; stroke-width: 1.5; stroke-linecap: square"/>
    </g>
    <g id="text_18">
     <!-- IP3 -->
     <g transform="translate(90.328125 176.942187) scale(0.1 -0.1)">
      <defs>
       <path id="DejaVuSans-49" d="M 628 4666 
L 1259 4666 
L 1259 0 
L 628 0 
L 628 4666 
z
" transform="scale(0.015625)"/>
      </defs>
      <use xlink:href="#DejaVuSans-49"/>
      <use xlink:href="#DejaVuSans-50" x="29.492188"/>
      <use xlink:href="#DejaVuSans-33" x="89.794922"/>
     </g>
    </g>
    <g id="line2d_22">
     <path d="M 62.328125 188.120312 
L 72.328125 188.120312 
L 82.328125 188.120312 
" style="fill: none; stroke: #009e73; stroke-width: 1.5; stroke-linecap: square"/>
    </g>
    <g id="text_19">
     <!-- Ca_ER -->
     <g transform="translate(90.328125 191.620312) scale(0.1 -0.1)">
      <defs>
       <path id="DejaVuSans-45" d="M 628 4666 
L 3578 4666 
L 3578 4134 
L 1259 4134 
L 1259 2753 
L 3481 2753 
L 3481 2222 
L 1259 2222 
L 1259 531 
L 3634 531 
L 3634 0 
L 628 0 
L 628 4666 
z
" transform="scale(0.015625)"/>
      </defs>
      <use xlink:href="#DejaVuSans-43"/>
      <use xlink:href="#DejaVuSans-61" x="69.824219"/>
      <use xlink:href="#DejaVuSans-5f" x="131.103516"/>
      <use xlink:href="#DejaVuSans-45" x="181.103516"/>
      <use xlink:href="#DejaVuSans-52" x="244.287109"/>
     </g>
    </g>
    <g id="line2d_23">
     <path d="M 62.328125 203.076562 
L 72.328125 203.076562 
L 82.328125 203.076562 
" style="fill: none; stroke: #7f7f7f; stroke-width: 1.5; stroke-linecap: square"/>
    </g>
    <g id="text_20">
     <!-- Ca_Cyt -->
     <g transform="translate(90.328125 206.576562) scale(0.1 -0.1)">
      <defs>
       <path id="DejaVuSans-79" d="M 2059 -325 
Q 1816 -950 1584 -1140 
Q 1353 -1331 966 -1331 
L 506 -1331 
L 506 -850 
L 844 -850 
Q 1081 -850 1212 -737 
Q 1344 -625 1503 -206 
L 1606 56 
L 191 3500 
L 800 3500 
L 1894 763 
L 2988 3500 
L 3597 3500 
L 2059 -325 
z
" transform="scale(0.015625)"/>
      </defs>
      <use xlink:href="#DejaVuSans-43"/>
      <use xlink:href="#DejaVuSans-61" x="69.824219"/>
      <use xlink:href="#DejaVuSans-5f" x="131.103516"/>
      <use xlink:href="#DejaVuSans-43" x="181.103516"/>
      <use xlink:href="#DejaVuSans-79" x="250.927734"/>
      <use xlink:href="#DejaVuSans-74" x="310.107422"/>
     </g>
    </g>
    <g id="line2d_24">
     <path d="M 62.328125 218.032812 
L 72.328125 218.032812 
L 82.328125 218.032812 
" style="fill: none; stroke-dasharray: 1.5,2.475; stroke-dashoffset: 0; stroke: #7f7f7f; stroke-width: 1.5"/>
    </g>
    <g id="text_21">
     <!-- target_Ca_Cyt -->
     <g transform="translate(90.328125 221.532812) scale(0.1 -0.1)">
      <defs>
       <path id="DejaVuSans-67" d="M 2906 1791 
Q 2906 2416 2648 2759 
Q 2391 3103 1925 3103 
Q 1463 3103 1205 2759 
Q 947 2416 947 1791 
Q 947 1169 1205 825 
Q 1463 481 1925 481 
Q 2391 481 2648 825 
Q 2906 1169 2906 1791 
z
M 3481 434 
Q 3481 -459 3084 -895 
Q 2688 -1331 1869 -1331 
Q 1566 -1331 1297 -1286 
Q 1028 -1241 775 -1147 
L 775 -588 
Q 1028 -725 1275 -790 
Q 1522 -856 1778 -856 
Q 2344 -856 2625 -561 
Q 2906 -266 2906 331 
L 2906 616 
Q 2728 306 2450 153 
Q 2172 0 1784 0 
Q 1141 0 747 490 
Q 353 981 353 1791 
Q 353 2603 747 3093 
Q 1141 3584 1784 3584 
Q 2172 3584 2450 3431 
Q 2728 3278 2906 2969 
L 2906 3500 
L 3481 3500 
L 3481 434 
z
" transform="scale(0.015625)"/>
      </defs>
      <use xlink:href="#DejaVuSans-74"/>
      <use xlink:href="#DejaVuSans-61" x="39.208984"/>
      <use xlink:href="#DejaVuSans-72" x="100.488281"/>
      <use xlink:href="#DejaVuSans-67" x="139.851562"/>
      <use xlink:href="#DejaVuSans-65" x="203.328125"/>
      <use xlink:href="#DejaVuSans-74" x="264.851562"/>
      <use xlink:href="#DejaVuSans-5f" x="304.060547"/>
      <use xlink:href="#DejaVuSans-43" x="354.060547"/>
      <use xlink:href="#DejaVuSans-61" x="423.884766"/>
      <use xlink:href="#DejaVuSans-5f" x="485.164062"/>
      <use xlink:href="#DejaVuSans-43" x="535.164062"/>
      <use xlink:href="#DejaVuSans-79" x="604.988281"/>
      <use xlink:href="#DejaVuSans-74" x="664.167969"/>
     </g>
    </g>
   </g>
  </g>
  <g id="axes_2">
   <g id="patch_8">
    <path d="M 447.210478 320.4 
L 775.445772 320.4 
L 775.445772 43.2 
L 447.210478 43.2 
z
" style="fill: #ffffff"/>
   </g>
   <g id="matplotlib.axis_3">
    <g id="xtick_7">
     <g id="line2d_25">
      <g>
       <use xlink:href="#m63c2ec9b4d" x="462.130264" y="320.4" style="stroke: #000000; stroke-width: 0.8"/>
      </g>
     </g>
     <g id="text_22">
      <!-- 0 -->
      <g transform="translate(458.949014 334.998437) scale(0.1 -0.1)">
       <use xlink:href="#DejaVuSans-30"/>
      </g>
     </g>
    </g>
    <g id="xtick_8">
     <g id="line2d_26">
      <g>
       <use xlink:href="#m63c2ec9b4d" x="521.929233" y="320.4" style="stroke: #000000; stroke-width: 0.8"/>
      </g>
     </g>
     <g id="text_23">
      <!-- 10 -->
      <g transform="translate(515.566733 334.998437) scale(0.1 -0.1)">
       <use xlink:href="#DejaVuSans-31"/>
       <use xlink:href="#DejaVuSans-30" x="63.623047"/>
      </g>
     </g>
    </g>
    <g id="xtick_9">
     <g id="line2d_27">
      <g>
       <use xlink:href="#m63c2ec9b4d" x="581.728201" y="320.4" style="stroke: #000000; stroke-width: 0.8"/>
      </g>
     </g>
     <g id="text_24">
      <!-- 20 -->
      <g transform="translate(575.365701 334.998437) scale(0.1 -0.1)">
       <use xlink:href="#DejaVuSans-32"/>
       <use xlink:href="#DejaVuSans-30" x="63.623047"/>
      </g>
     </g>
    </g>
    <g id="xtick_10">
     <g id="line2d_28">
      <g>
       <use xlink:href="#m63c2ec9b4d" x="641.52717" y="320.4" style="stroke: #000000; stroke-width: 0.8"/>
      </g>
     </g>
     <g id="text_25">
      <!-- 30 -->
      <g transform="translate(635.16467 334.998437) scale(0.1 -0.1)">
       <use xlink:href="#DejaVuSans-33"/>
       <use xlink:href="#DejaVuSans-30" x="63.623047"/>
      </g>
     </g>
    </g>
    <g id="xtick_11">
     <g id="line2d_29">
      <g>
       <use xlink:href="#m63c2ec9b4d" x="701.326138" y="320.4" style="stroke: #000000; stroke-width: 0.8"/>
      </g>
     </g>
     <g id="text_26">
      <!-- 40 -->
      <g transform="translate(694.963638 334.998437) scale(0.1 -0.1)">
       <use xlink:href="#DejaVuSans-34"/>
       <use xlink:href="#DejaVuSans-30" x="63.623047"/>
      </g>
     </g>
    </g>
    <g id="xtick_12">
     <g id="line2d_30">
      <g>
       <use xlink:href="#m63c2ec9b4d" x="761.125107" y="320.4" style="stroke: #000000; stroke-width: 0.8"/>
      </g>
     </g>
     <g id="text_27">
      <!-- 50 -->
      <g transform="translate(754.762607 334.998437) scale(0.1 -0.1)">
       <use xlink:href="#DejaVuSans-35"/>
       <use xlink:href="#DejaVuSans-30" x="63.623047"/>
      </g>
     </g>
    </g>
    <g id="text_28">
     <!-- Reaction time (secs) -->
     <g transform="translate(560.200781 348.676562) scale(0.1 -0.1)">
      <use xlink:href="#DejaVuSans-52"/>
      <use xlink:href="#DejaVuSans-65" x="64.982422"/>
      <use xlink:href="#DejaVuSans-61" x="126.505859"/>
      <use xlink:href="#DejaVuSans-63" x="187.785156"/>
      <use xlink:href="#DejaVuSans-74" x="242.765625"/>
      <use xlink:href="#DejaVuSans-69" x="281.974609"/>
      <use xlink:href="#DejaVuSans-6f" x="309.757812"/>
      <use xlink:href="#DejaVuSans-6e" x="370.939453"/>
      <use xlink:href="#DejaVuSans-20" x="434.318359"/>
      <use xlink:href="#DejaVuSans-74" x="466.105469"/>
      <use xlink:href="#DejaVuSans-69" x="505.314453"/>
      <use xlink:href="#DejaVuSans-6d" x="533.097656"/>
      <use xlink:href="#DejaVuSans-65" x="630.509766"/>
      <use xlink:href="#DejaVuSans-20" x="692.033203"/>
      <use xlink:href="#DejaVuSans-28" x="723.820312"/>
      <use xlink:href="#DejaVuSans-73" x="762.833984"/>
      <use xlink:href="#DejaVuSans-65" x="814.933594"/>
      <use xlink:href="#DejaVuSans-63" x="876.457031"/>
      <use xlink:href="#DejaVuSans-73" x="931.4375"/>
      <use xlink:href="#DejaVuSans-29" x="983.537109"/>
     </g>
    </g>
   </g>
   <g id="matplotlib.axis_4">
    <g id="ytick_7">
     <g id="line2d_31">
      <g>
       <use xlink:href="#m5fda361c47" x="447.210478" y="307.80946" style="stroke: #000000; stroke-width: 0.8"/>
      </g>
     </g>
     <g id="text_29">
      <!-- 0 -->
      <g transform="translate(433.847978 311.608679) scale(0.1 -0.1)">
       <use xlink:href="#DejaVuSans-30"/>
      </g>
     </g>
    </g>
    <g id="ytick_8">
     <g id="line2d_32">
      <g>
       <use xlink:href="#m5fda361c47" x="447.210478" y="257.407857" style="stroke: #000000; stroke-width: 0.8"/>
      </g>
     </g>
     <g id="text_30">
      <!-- 200 -->
      <g transform="translate(421.122978 261.207076) scale(0.1 -0.1)">
       <use xlink:href="#DejaVuSans-32"/>
       <use xlink:href="#DejaVuSans-30" x="63.623047"/>
       <use xlink:href="#DejaVuSans-30" x="127.246094"/>
      </g>
     </g>
    </g>
    <g id="ytick_9">
     <g id="line2d_33">
      <g>
       <use xlink:href="#m5fda361c47" x="447.210478" y="207.006254" style="stroke: #000000; stroke-width: 0.8"/>
      </g>
     </g>
     <g id="text_31">
      <!-- 400 -->
      <g transform="translate(421.122978 210.805473) scale(0.1 -0.1)">
       <use xlink:href="#DejaVuSans-34"/>
       <use xlink:href="#DejaVuSans-30" x="63.623047"/>
       <use xlink:href="#DejaVuSans-30" x="127.246094"/>
      </g>
     </g>
    </g>
    <g id="ytick_10">
     <g id="line2d_34">
      <g>
       <use xlink:href="#m5fda361c47" x="447.210478" y="156.604652" style="stroke: #000000; stroke-width: 0.8"/>
      </g>
     </g>
     <g id="text_32">
      <!-- 600 -->
      <g transform="translate(421.122978 160.40387) scale(0.1 -0.1)">
       <use xlink:href="#DejaVuSans-36"/>
       <use xlink:href="#DejaVuSans-30" x="63.623047"/>
       <use xlink:href="#DejaVuSans-30" x="127.246094"/>
      </g>
     </g>
    </g>
    <g id="ytick_11">
     <g id="line2d_35">
      <g>
       <use xlink:href="#m5fda361c47" x="447.210478" y="106.203049" style="stroke: #000000; stroke-width: 0.8"/>
      </g>
     </g>
     <g id="text_33">
      <!-- 800 -->
      <g transform="translate(421.122978 110.002267) scale(0.1 -0.1)">
       <use xlink:href="#DejaVuSans-38"/>
       <use xlink:href="#DejaVuSans-30" x="63.623047"/>
       <use xlink:href="#DejaVuSans-30" x="127.246094"/>
      </g>
     </g>
    </g>
    <g id="ytick_12">
     <g id="line2d_36">
      <g>
       <use xlink:href="#m5fda361c47" x="447.210478" y="55.801446" style="stroke: #000000; stroke-width: 0.8"/>
      </g>
     </g>
     <g id="text_34">
      <!-- 1000 -->
      <g transform="translate(414.760478 59.600665) scale(0.1 -0.1)">
       <use xlink:href="#DejaVuSans-31"/>
       <use xlink:href="#DejaVuSans-30" x="63.623047"/>
       <use xlink:href="#DejaVuSans-30" x="127.246094"/>
       <use xlink:href="#DejaVuSans-30" x="190.869141"/>
      </g>
     </g>
    </g>
    <g id="text_35">
     <!-- Concentration (nM) -->
     <g transform="translate(408.68079 230.144531) rotate(-90) scale(0.1 -0.1)">
      <use xlink:href="#DejaVuSans-43"/>
      <use xlink:href="#DejaVuSans-6f" x="69.824219"/>
      <use xlink:href="#DejaVuSans-6e" x="131.005859"/>
      <use xlink:href="#DejaVuSans-63" x="194.384766"/>
      <use xlink:href="#DejaVuSans-65" x="249.365234"/>
      <use xlink:href="#DejaVuSans-6e" x="310.888672"/>
      <use xlink:href="#DejaVuSans-74" x="374.267578"/>
      <use xlink:href="#DejaVuSans-72" x="413.476562"/>
      <use xlink:href="#DejaVuSans-61" x="454.589844"/>
      <use xlink:href="#DejaVuSans-74" x="515.869141"/>
      <use xlink:href="#DejaVuSans-69" x="555.078125"/>
      <use xlink:href="#DejaVuSans-6f" x="582.861328"/>
      <use xlink:href="#DejaVuSans-6e" x="644.042969"/>
      <use xlink:href="#DejaVuSans-20" x="707.421875"/>
      <use xlink:href="#DejaVuSans-28" x="739.208984"/>
      <use xlink:href="#DejaVuSans-6e" x="778.222656"/>
      <use xlink:href="#DejaVuSans-4d" x="841.601562"/>
      <use xlink:href="#DejaVuSans-29" x="927.880859"/>
     </g>
    </g>
   </g>
   <g id="line2d_37">
    <path d="M 462.130264 307.557452 
L 464.522223 307.680329 
L 469.306141 307.786105 
L 489.637778 307.794596 
L 509.371418 307.672273 
L 513.557357 307.477918 
L 515.949324 307.210017 
L 517.7433 306.833613 
L 518.939284 306.431161 
L 520.135268 305.831296 
L 521.331252 304.926619 
L 522.527236 303.552377 
L 523.72322 301.481413 
L 524.919204 298.502249 
L 526.115188 294.620065 
L 528.507156 286.097845 
L 529.105148 284.470163 
L 529.70314 283.301585 
L 530.301132 282.686788 
L 530.899124 282.675012 
L 531.497116 283.261997 
L 532.095107 284.391555 
L 532.693099 285.965923 
L 533.889083 289.949803 
L 535.683059 296.238591 
L 536.879043 299.722152 
L 538.075027 302.369515 
L 539.271011 304.224218 
L 540.466995 305.452688 
L 541.662979 306.246613 
L 542.858963 306.7578 
L 544.652939 307.208395 
L 547.044907 307.501561 
L 550.632858 307.672347 
L 558.406754 307.749764 
L 571.562577 307.655668 
L 576.346513 307.436463 
L 578.738481 307.164868 
L 580.532457 306.79272 
L 581.728441 306.402024 
L 582.924425 305.828461 
L 584.120409 304.976571 
L 585.316393 303.702246 
L 586.512377 301.810164 
L 587.70836 299.123536 
L 588.904344 295.670266 
L 591.296312 288.367374 
L 591.894304 287.061121 
L 592.492296 286.182702 
L 593.090288 285.80444 
L 593.68828 285.956182 
L 594.286272 286.620464 
L 594.884264 287.736285 
L 596.080248 290.930441 
L 598.472216 298.210007 
L 599.6682 301.134701 
L 600.864184 303.315843 
L 602.060168 304.82231 
L 603.256152 305.817584 
L 604.452136 306.465419 
L 605.648119 306.887443 
L 607.442095 307.265717 
L 609.834063 307.518105 
L 614.020007 307.683231 
L 622.989887 307.740191 
L 633.753742 307.621928 
L 637.939686 307.398345 
L 640.331654 307.100062 
L 642.125629 306.691279 
L 643.321613 306.262156 
L 644.517597 305.632405 
L 645.713581 304.698129 
L 646.909565 303.30569 
L 648.105549 301.260465 
L 649.301533 298.427022 
L 651.095509 293.058257 
L 652.291493 289.567133 
L 652.889485 288.168136 
L 653.487465 287.146403 
L 654.085446 286.585108 
L 654.683427 286.530293 
L 655.281407 286.983093 
L 655.879388 287.900179 
L 656.477368 289.201803 
L 657.673329 292.540479 
L 659.467271 297.867971 
L 660.663232 300.830923 
L 661.859193 303.079599 
L 663.055154 304.652462 
L 664.251116 305.699398 
L 665.447077 306.38359 
L 666.643038 306.830364 
L 668.436979 307.231568 
L 670.828902 307.499758 
L 675.014766 307.675632 
L 683.386494 307.737567 
L 694.150144 307.633312 
L 698.933988 307.385624 
L 701.32591 307.078289 
L 703.119852 306.657047 
L 704.315813 306.21483 
L 705.511774 305.565945 
L 706.707735 304.603665 
L 707.903697 303.171457 
L 709.099658 301.076396 
L 710.295619 298.199307 
L 712.08956 292.843519 
L 713.285522 289.452707 
L 713.883502 288.133132 
L 714.481483 287.205046 
L 715.079463 286.744613 
L 715.677444 286.789052 
L 716.275424 287.330671 
L 716.873405 288.318775 
L 718.069366 291.277208 
L 721.059269 299.790276 
L 722.25523 302.305605 
L 723.451191 304.118051 
L 724.647152 305.344195 
L 725.843113 306.149863 
L 727.039075 306.676039 
L 728.833016 307.147188 
L 731.224938 307.460189 
L 734.812822 307.647567 
L 741.988589 307.73403 
L 753.9482 307.656009 
L 758.732044 307.461945 
L 760.525986 307.301367 
L 760.525986 307.301367 
" clip-path="url(#pd3e973c0f0)" style="fill: none; stroke: #cc79a7; stroke-width: 1.5; stroke-linecap: square"/>
   </g>
   <g id="line2d_38">
    <path d="M 462.130264 305.541388 
L 469.306141 306.173646 
L 478.275983 306.722209 
L 489.039789 307.143505 
L 503.391527 307.463043 
L 522.527236 307.657519 
L 526.71318 307.544837 
L 530.899124 307.215207 
L 537.477035 306.576176 
L 539.869003 306.602813 
L 555.416794 307.210129 
L 570.366593 307.506076 
L 587.110368 307.630683 
L 591.296312 307.420166 
L 596.080248 306.933132 
L 599.6682 306.618353 
L 602.060168 306.636015 
L 618.803943 307.256707 
L 634.351734 307.53717 
L 648.703541 307.620524 
L 652.889485 307.391339 
L 658.869291 306.76961 
L 661.859193 306.609069 
L 666.045057 306.775322 
L 677.406688 307.192777 
L 692.356202 307.497288 
L 709.099658 307.631516 
L 713.285522 307.428843 
L 718.069366 306.946802 
L 721.657249 306.630277 
L 724.049172 306.645482 
L 740.792627 307.260855 
L 756.340122 307.539212 
L 760.525986 307.586107 
L 760.525986 307.586107 
" clip-path="url(#pd3e973c0f0)" style="fill: none; stroke: #0072b2; stroke-width: 1.5; stroke-linecap: square"/>
   </g>
   <g id="line2d_39">
    <path d="M 462.130264 307.557452 
L 462.728254 304.295821 
L 463.326243 301.969837 
L 463.924233 300.334334 
L 464.522223 299.207824 
L 465.120212 298.455968 
L 465.718202 297.979337 
L 466.316192 297.704377 
L 467.512172 297.555956 
L 468.708151 297.724345 
L 470.502121 298.249482 
L 480.06995 301.492225 
L 484.255874 302.587435 
L 489.039789 303.609553 
L 494.421691 304.522469 
L 500.401582 305.306065 
L 507.577451 306.003921 
L 515.949324 306.576246 
L 523.72322 306.898273 
L 525.517196 306.807724 
L 527.311172 306.524253 
L 529.105148 306.035085 
L 530.899124 305.320112 
L 533.291091 304.043328 
L 537.477035 301.647561 
L 538.673019 301.209189 
L 539.869003 301.014887 
L 541.064987 301.038258 
L 542.858963 301.317267 
L 547.642899 302.442684 
L 553.024826 303.595961 
L 558.406754 304.510961 
L 564.386674 305.297236 
L 571.562577 305.997555 
L 579.934465 306.571824 
L 586.512377 306.846469 
L 588.306352 306.762828 
L 590.100328 306.478559 
L 591.894304 305.978199 
L 593.68828 305.247615 
L 596.080248 303.958086 
L 599.6682 301.913915 
L 600.864184 301.457687 
L 602.060168 301.241726 
L 603.256152 301.244634 
L 605.050128 301.499455 
L 609.236071 302.445874 
L 614.617999 303.593111 
L 619.999927 304.508366 
L 625.979846 305.295244 
L 633.15575 305.996114 
L 641.527638 306.570794 
L 648.105549 306.82971 
L 649.899525 306.714711 
L 651.693501 306.391597 
L 653.487465 305.847416 
L 655.281407 305.07151 
L 657.673329 303.743856 
L 660.663232 302.039031 
L 661.859193 301.554913 
L 663.055154 301.305533 
L 664.251116 301.281652 
L 666.045057 301.51353 
L 669.632941 302.30633 
L 675.612746 303.591101 
L 680.994571 304.506673 
L 686.974377 305.293937 
L 694.150144 305.995161 
L 702.521871 306.57012 
L 708.501677 306.826534 
L 710.295619 306.761604 
L 712.08956 306.497505 
L 713.883502 306.014614 
L 715.677444 305.300621 
L 718.069366 304.027549 
L 721.657249 301.986298 
L 722.853211 301.526599 
L 724.049172 301.305427 
L 725.245133 301.302825 
L 727.039075 301.550802 
L 731.224938 302.486701 
L 736.606764 303.624824 
L 741.988589 304.533147 
L 747.968394 305.314107 
L 755.144161 306.009712 
L 760.525986 306.400893 
L 760.525986 306.400893 
" clip-path="url(#pd3e973c0f0)" style="fill: none; stroke: #e69f00; stroke-width: 1.5; stroke-linecap: square"/>
   </g>
   <g id="line2d_40">
    <path d="M 462.130264 55.801446 
L 463.924233 55.885905 
L 466.914182 56.445632 
L 475.286037 58.052076 
L 480.667939 58.828618 
L 486.049842 59.355137 
L 492.029734 59.690097 
L 499.803593 59.877165 
L 512.959365 59.93463 
L 534.487075 60.019089 
L 538.075027 60.349726 
L 549.436875 61.693333 
L 555.416794 62.052549 
L 563.19069 62.257244 
L 575.748521 62.323445 
L 597.276232 62.41904 
L 600.864184 62.755646 
L 611.030047 63.91663 
L 617.009967 64.2768 
L 624.783862 64.481987 
L 637.341694 64.548342 
L 658.27131 64.631632 
L 661.859193 64.95201 
L 672.622843 66.152401 
L 678.602649 66.490529 
L 686.376396 66.680397 
L 699.531969 66.7388 
L 719.265327 66.829827 
L 722.853211 67.157065 
L 733.01888 68.301729 
L 738.998686 68.655516 
L 746.772433 68.855766 
L 759.330025 68.919706 
L 760.525986 68.919306 
L 760.525986 68.919306 
" clip-path="url(#pd3e973c0f0)" style="fill: none; stroke: #009e73; stroke-width: 1.5; stroke-linecap: square"/>
   </g>
   <g id="line2d_41">
    <path d="M 462.130264 257.407857 
L 462.728254 257.443861 
L 463.326243 257.259743 
L 463.924233 256.6284 
L 465.120212 254.6725 
L 472.29609 241.431443 
L 474.688048 237.744541 
L 476.482016 235.325717 
L 478.275983 233.222056 
L 480.06995 231.440465 
L 481.863918 229.978898 
L 483.657885 228.826612 
L 485.451852 227.965072 
L 487.245821 227.369576 
L 489.039789 227.011159 
L 490.833756 226.859146 
L 493.225712 226.924278 
L 495.617669 227.232751 
L 498.607614 227.869762 
L 502.195549 228.880593 
L 507.577451 230.665883 
L 526.71318 237.243179 
L 530.301132 238.245981 
L 532.095107 238.535904 
L 533.291091 238.54171 
L 534.487075 238.320911 
L 535.683059 237.827439 
L 536.879043 237.055941 
L 538.075027 236.044479 
L 540.466995 233.619448 
L 543.456955 230.653471 
L 545.250931 229.165602 
L 547.044907 227.954498 
L 548.838883 227.025049 
L 550.632858 226.363958 
L 552.426834 225.947516 
L 554.22081 225.747574 
L 556.014786 225.733546 
L 558.406754 225.952784 
L 560.798722 226.385016 
L 563.788682 227.141532 
L 567.974626 228.456506 
L 575.150529 231.015432 
L 587.70836 235.494419 
L 591.894304 236.821891 
L 594.286272 237.356308 
L 595.482256 237.447158 
L 596.67824 237.335967 
L 597.874224 236.967176 
L 599.070208 236.321167 
L 600.266192 235.425049 
L 602.060168 233.774262 
L 605.648119 230.411168 
L 607.442095 229.023778 
L 609.236071 227.906385 
L 611.030047 227.063133 
L 612.824023 226.479549 
L 614.617999 226.131231 
L 616.411975 225.9892 
L 618.803943 226.068552 
L 621.195911 226.392968 
L 624.18587 227.051989 
L 627.773822 228.091369 
L 633.15575 229.921626 
L 651.693501 236.441264 
L 654.683427 237.252554 
L 656.477368 237.485412 
L 657.673329 237.418526 
L 658.869291 237.10337 
L 660.065252 236.512357 
L 661.261213 235.664483 
L 663.055154 234.061731 
L 666.643038 230.72304 
L 668.436979 229.332805 
L 670.230921 228.209482 
L 672.024863 227.359147 
L 673.818805 226.768142 
L 675.612746 226.412471 
L 677.406688 226.263395 
L 679.79861 226.333765 
L 682.190532 226.649613 
L 685.180435 227.298498 
L 688.768319 228.326511 
L 694.150144 230.141172 
L 712.687541 236.612428 
L 715.677444 237.405759 
L 717.471386 237.614377 
L 718.667347 237.523396 
L 719.863308 237.179761 
L 721.059269 236.560408 
L 722.25523 235.689486 
L 724.049172 234.070775 
L 727.637055 230.755587 
L 729.430997 229.387993 
L 731.224938 228.288519 
L 733.01888 227.461087 
L 734.812822 226.890893 
L 736.606764 226.553349 
L 738.400705 226.419416 
L 740.792627 226.505713 
L 743.18455 226.832674 
L 746.174452 227.49005 
L 749.762336 228.522062 
L 755.144161 230.334584 
L 760.525986 232.258845 
L 760.525986 232.258845 
" clip-path="url(#pd3e973c0f0)" style="fill: none; stroke: #7f7f7f; stroke-width: 1.5; stroke-linecap: square"/>
   </g>
   <g id="line2d_42">
    <path d="M 462.130264 239.061938 
L 463.924233 240.921636 
L 465.718202 242.472614 
L 467.512172 243.659931 
L 468.708151 244.228087 
L 469.904131 244.606669 
L 471.100111 244.789699 
L 472.29609 244.774294 
L 473.49207 244.560694 
L 474.688048 244.152273 
L 475.884027 243.555473 
L 477.677994 242.328414 
L 479.471961 240.742797 
L 481.265929 238.854806 
L 483.657885 235.983954 
L 492.627723 224.70185 
L 494.421691 222.938232 
L 496.215658 221.502976 
L 498.009625 220.446908 
L 499.205603 219.972601 
L 500.401582 219.691237 
L 501.59756 219.607255 
L 502.793538 219.721977 
L 503.989516 220.033595 
L 505.185495 220.537196 
L 506.381473 221.224842 
L 508.17544 222.576909 
L 509.969408 224.270119 
L 511.763381 226.244522 
L 514.155348 229.192404 
L 521.331252 238.384559 
L 523.125228 240.333015 
L 524.919204 241.993585 
L 526.71318 243.30746 
L 527.909164 243.967227 
L 529.105148 244.441534 
L 530.301132 244.72289 
L 531.497116 244.806857 
L 532.693099 244.69212 
L 533.889083 244.380486 
L 535.085067 243.876866 
L 536.281051 243.189208 
L 538.075027 241.837126 
L 539.869003 240.14387 
L 541.662979 238.169459 
L 544.054947 235.221546 
L 551.23085 226.029414 
L 553.024826 224.080974 
L 554.818802 222.420427 
L 556.612778 221.106575 
L 557.808762 220.446831 
L 559.004746 219.972547 
L 560.20073 219.691206 
L 561.396714 219.607255 
L 562.592698 219.722008 
L 563.788682 220.033672 
L 564.984666 220.537304 
L 566.18065 221.224981 
L 567.974626 222.577094 
L 569.768601 224.270349 
L 571.562577 226.244791 
L 573.954545 229.192696 
L 581.130449 238.384821 
L 582.924425 240.333238 
L 584.718401 241.993785 
L 586.512377 243.307614 
L 587.70836 243.967343 
L 588.904344 244.441604 
L 590.100328 244.722921 
L 591.296312 244.806857 
L 592.492296 244.692085 
L 593.68828 244.380409 
L 594.884264 243.876754 
L 596.080248 243.189054 
L 597.874224 241.836918 
L 599.6682 240.143639 
L 601.462176 238.169197 
L 603.854144 235.221262 
L 611.030047 226.029153 
L 612.824023 224.080766 
L 614.617999 222.420242 
L 616.411975 221.106437 
L 617.607959 220.446723 
L 618.803943 219.97247 
L 619.999927 219.691176 
L 621.195911 219.607255 
L 622.391895 219.722046 
L 623.587878 220.033741 
L 624.783862 220.537419 
L 625.979846 221.225127 
L 627.773822 222.577286 
L 629.567798 224.270603 
L 631.361774 226.245053 
L 633.753742 229.193004 
L 640.929646 238.385098 
L 642.723621 240.333468 
L 644.517597 241.99397 
L 646.311573 243.307752 
L 647.507557 243.967447 
L 648.703541 244.441677 
L 649.899525 244.722959 
L 651.095509 244.806853 
L 652.291493 244.692039 
L 653.487465 244.380332 
L 654.683427 243.876654 
L 655.879388 243.188939 
L 657.673329 241.836803 
L 659.467271 240.14354 
L 661.261213 238.169113 
L 663.653135 235.221231 
L 670.828902 226.029276 
L 672.622843 224.08089 
L 674.416785 222.420388 
L 676.210727 221.106567 
L 677.406688 220.446823 
L 678.602649 219.972554 
L 679.79861 219.691214 
L 680.994571 219.607255 
L 682.190532 219.722 
L 683.386494 220.033626 
L 684.582455 220.537219 
L 685.778416 221.224873 
L 687.572357 222.576917 
L 689.366299 224.270103 
L 691.160241 226.244445 
L 693.552163 229.192312 
L 700.72793 238.38429 
L 702.521871 240.332722 
L 704.315813 241.993339 
L 706.109755 243.307256 
L 707.305716 243.967054 
L 708.501677 244.441411 
L 709.697638 244.722828 
L 710.893599 244.806864 
L 712.08956 244.692204 
L 713.285522 244.380647 
L 714.481483 243.877104 
L 715.677444 243.189539 
L 717.471386 241.837557 
L 719.265327 240.144447 
L 721.059269 238.170159 
L 723.451191 235.222439 
L 730.626958 226.030314 
L 732.4209 224.08182 
L 734.214841 222.42115 
L 736.008783 221.107144 
L 737.204744 220.447261 
L 738.400705 219.972847 
L 739.596666 219.69136 
L 740.792627 219.60724 
L 741.988589 219.721831 
L 743.18455 220.033311 
L 744.380511 220.536765 
L 745.576472 221.224273 
L 747.370414 222.576132 
L 749.164355 224.269157 
L 750.958297 226.243415 
L 753.350219 229.191135 
L 760.525986 238.383229 
L 760.525986 238.383229 
" clip-path="url(#pd3e973c0f0)" style="fill: none; stroke-dasharray: 1.5,2.475; stroke-dashoffset: 0; stroke: #7f7f7f; stroke-width: 1.5"/>
   </g>
   <g id="patch_9">
    <path d="M 447.210478 320.4 
L 447.210478 43.2 
" style="fill: none; stroke: #000000; stroke-width: 0.8; stroke-linejoin: miter; stroke-linecap: square"/>
   </g>
   <g id="patch_10">
    <path d="M 775.445772 320.4 
L 775.445772 43.2 
" style="fill: none; stroke: #000000; stroke-width: 0.8; stroke-linejoin: miter; stroke-linecap: square"/>
   </g>
   <g id="patch_11">
    <path d="M 447.210478 320.4 
L 775.445772 320.4 
" style="fill: none; stroke: #000000; stroke-width: 0.8; stroke-linejoin: miter; stroke-linecap: square"/>
   </g>
   <g id="patch_12">
    <path d="M 447.210478 43.2 
L 775.445772 43.2 
" style="fill: none; stroke: #000000; stroke-width: 0.8; stroke-linejoin: miter; stroke-linecap: square"/>
   </g>
   <g id="text_36">
    <!-- optimized c -->
    <g transform="translate(576.461563 37.2) scale(0.12 -0.12)">
     <defs>
      <path id="DejaVuSans-7a" d="M 353 3500 
L 3084 3500 
L 3084 2975 
L 922 459 
L 3084 459 
L 3084 0 
L 275 0 
L 275 525 
L 2438 3041 
L 353 3041 
L 353 3500 
z
" transform="scale(0.015625)"/>
     </defs>
     <use xlink:href="#DejaVuSans-6f"/>
     <use xlink:href="#DejaVuSans-70" x="61.181641"/>
     <use xlink:href="#DejaVuSans-74" x="124.658203"/>
     <use xlink:href="#DejaVuSans-69" x="163.867188"/>
     <use xlink:href="#DejaVuSans-6d" x="191.650391"/>
     <use xlink:href="#DejaVuSans-69" x="289.0625"/>
     <use xlink:href="#DejaVuSans-7a" x="316.845703"/>
     <use xlink:href="#DejaVuSans-65" x="369.335938"/>
     <use xlink:href="#DejaVuSans-64" x="430.859375"/>
     <use xlink:href="#DejaVuSans-20" x="494.335938"/>
     <use xlink:href="#DejaVuSans-63" x="526.123047"/>
    </g>
   </g>
   <g id="legend_2">
    <g id="patch_13">
     <path d="M 454.210478 227.890625 
L 556.54954 227.890625 
Q 558.54954 227.890625 558.54954 225.890625 
L 558.54954 137.709375 
Q 558.54954 135.709375 556.54954 135.709375 
L 454.210478 135.709375 
Q 452.210478 135.709375 452.210478 137.709375 
L 452.210478 225.890625 
Q 452.210478 227.890625 454.210478 227.890625 
z
" style="fill: #ffffff; opacity: 0.8; stroke: #cccccc; stroke-linejoin: miter"/>
    </g>
    <g id="line2d_43">
     <path d="M 456.210478 143.807812 
L 466.210478 143.807812 
L 476.210478 143.807812 
" style="fill: none; stroke: #cc79a7; stroke-width: 1.5; stroke-linecap: square"/>
    </g>
    <g id="text_37">
     <!-- Galpha_GTP -->
     <g transform="translate(484.210478 147.307812) scale(0.1 -0.1)">
      <use xlink:href="#DejaVuSans-47"/>
      <use xlink:href="#DejaVuSans-61" x="77.490234"/>
      <use xlink:href="#DejaVuSans-6c" x="138.769531"/>
      <use xlink:href="#DejaVuSans-70" x="166.552734"/>
      <use xlink:href="#DejaVuSans-68" x="230.029297"/>
      <use xlink:href="#DejaVuSans-61" x="293.408203"/>
      <use xlink:href="#DejaVuSans-5f" x="354.6875"/>
      <use xlink:href="#DejaVuSans-47" x="404.6875"/>
      <use xlink:href="#DejaVuSans-54" x="478.552734"/>
      <use xlink:href="#DejaVuSans-50" x="539.636719"/>
     </g>
    </g>
    <g id="line2d_44">
     <path d="M 456.210478 158.764062 
L 466.210478 158.764062 
L 476.210478 158.764062 
" style="fill: none; stroke: #0072b2; stroke-width: 1.5; stroke-linecap: square"/>
    </g>
    <g id="text_38">
     <!-- APLC -->
     <g transform="translate(484.210478 162.264062) scale(0.1 -0.1)">
      <use xlink:href="#DejaVuSans-41"/>
      <use xlink:href="#DejaVuSans-50" x="68.408203"/>
      <use xlink:href="#DejaVuSans-4c" x="128.710938"/>
      <use xlink:href="#DejaVuSans-43" x="184.423828"/>
     </g>
    </g>
    <g id="line2d_45">
     <path d="M 456.210478 173.442187 
L 466.210478 173.442187 
L 476.210478 173.442187 
" style="fill: none; stroke: #e69f00; stroke-width: 1.5; stroke-linecap: square"/>
    </g>
    <g id="text_39">
     <!-- IP3 -->
     <g transform="translate(484.210478 176.942187) scale(0.1 -0.1)">
      <use xlink:href="#DejaVuSans-49"/>
      <use xlink:href="#DejaVuSans-50" x="29.492188"/>
      <use xlink:href="#DejaVuSans-33" x="89.794922"/>
     </g>
    </g>
    <g id="line2d_46">
     <path d="M 456.210478 188.120312 
L 466.210478 188.120312 
L 476.210478 188.120312 
" style="fill: none; stroke: #009e73; stroke-width: 1.5; stroke-linecap: square"/>
    </g>
    <g id="text_40">
     <!-- Ca_ER -->
     <g transform="translate(484.210478 191.620312) scale(0.1 -0.1)">
      <use xlink:href="#DejaVuSans-43"/>
      <use xlink:href="#DejaVuSans-61" x="69.824219"/>
      <use xlink:href="#DejaVuSans-5f" x="131.103516"/>
      <use xlink:href="#DejaVuSans-45" x="181.103516"/>
      <use xlink:href="#DejaVuSans-52" x="244.287109"/>
     </g>
    </g>
    <g id="line2d_47">
     <path d="M 456.210478 203.076562 
L 466.210478 203.076562 
L 476.210478 203.076562 
" style="fill: none; stroke: #7f7f7f; stroke-width: 1.5; stroke-linecap: square"/>
    </g>
    <g id="text_41">
     <!-- Ca_Cyt -->
     <g transform="translate(484.210478 206.576562) scale(0.1 -0.1)">
      <use xlink:href="#DejaVuSans-43"/>
      <use xlink:href="#DejaVuSans-61" x="69.824219"/>
      <use xlink:href="#DejaVuSans-5f" x="131.103516"/>
      <use xlink:href="#DejaVuSans-43" x="181.103516"/>
      <use xlink:href="#DejaVuSans-79" x="250.927734"/>
      <use xlink:href="#DejaVuSans-74" x="310.107422"/>
     </g>
    </g>
    <g id="line2d_48">
     <path d="M 456.210478 218.032812 
L 466.210478 218.032812 
L 476.210478 218.032812 
" style="fill: none; stroke-dasharray: 1.5,2.475; stroke-dashoffset: 0; stroke: #7f7f7f; stroke-width: 1.5"/>
    </g>
    <g id="text_42">
     <!-- target_Ca_Cyt -->
     <g transform="translate(484.210478 221.532812) scale(0.1 -0.1)">
      <use xlink:href="#DejaVuSans-74"/>
      <use xlink:href="#DejaVuSans-61" x="39.208984"/>
      <use xlink:href="#DejaVuSans-72" x="100.488281"/>
      <use xlink:href="#DejaVuSans-67" x="139.851562"/>
      <use xlink:href="#DejaVuSans-65" x="203.328125"/>
      <use xlink:href="#DejaVuSans-74" x="264.851562"/>
      <use xlink:href="#DejaVuSans-5f" x="304.060547"/>
      <use xlink:href="#DejaVuSans-43" x="354.060547"/>
      <use xlink:href="#DejaVuSans-61" x="423.884766"/>
      <use xlink:href="#DejaVuSans-5f" x="485.164062"/>
      <use xlink:href="#DejaVuSans-43" x="535.164062"/>
      <use xlink:href="#DejaVuSans-79" x="604.988281"/>
      <use xlink:href="#DejaVuSans-74" x="664.167969"/>
     </g>
    </g>
   </g>
  </g>
  <g id="axes_3">
   <g id="patch_14">
    <path d="M 841.092831 320.4 
L 1169.328125 320.4 
L 1169.328125 43.2 
L 841.092831 43.2 
z
" style="fill: #ffffff"/>
   </g>
   <g id="matplotlib.axis_5">
    <g id="xtick_13">
     <g id="line2d_49">
      <g>
       <use xlink:href="#m63c2ec9b4d" x="856.012617" y="320.4" style="stroke: #000000; stroke-width: 0.8"/>
      </g>
     </g>
     <g id="text_43">
      <!-- 0 -->
      <g transform="translate(852.831367 334.998437) scale(0.1 -0.1)">
       <use xlink:href="#DejaVuSans-30"/>
      </g>
     </g>
    </g>
    <g id="xtick_14">
     <g id="line2d_50">
      <g>
       <use xlink:href="#m63c2ec9b4d" x="915.7515" y="320.4" style="stroke: #000000; stroke-width: 0.8"/>
      </g>
     </g>
     <g id="text_44">
      <!-- 200 -->
      <g transform="translate(906.20775 334.998437) scale(0.1 -0.1)">
       <use xlink:href="#DejaVuSans-32"/>
       <use xlink:href="#DejaVuSans-30" x="63.623047"/>
       <use xlink:href="#DejaVuSans-30" x="127.246094"/>
      </g>
     </g>
    </g>
    <g id="xtick_15">
     <g id="line2d_51">
      <g>
       <use xlink:href="#m63c2ec9b4d" x="975.490384" y="320.4" style="stroke: #000000; stroke-width: 0.8"/>
      </g>
     </g>
     <g id="text_45">
      <!-- 400 -->
      <g transform="translate(965.946634 334.998437) scale(0.1 -0.1)">
       <use xlink:href="#DejaVuSans-34"/>
       <use xlink:href="#DejaVuSans-30" x="63.623047"/>
       <use xlink:href="#DejaVuSans-30" x="127.246094"/>
      </g>
     </g>
    </g>
    <g id="xtick_16">
     <g id="line2d_52">
      <g>
       <use xlink:href="#m63c2ec9b4d" x="1035.229267" y="320.4" style="stroke: #000000; stroke-width: 0.8"/>
      </g>
     </g>
     <g id="text_46">
      <!-- 600 -->
      <g transform="translate(1025.685517 334.998437) scale(0.1 -0.1)">
       <use xlink:href="#DejaVuSans-36"/>
       <use xlink:href="#DejaVuSans-30" x="63.623047"/>
       <use xlink:href="#DejaVuSans-30" x="127.246094"/>
      </g>
     </g>
    </g>
    <g id="xtick_17">
     <g id="line2d_53">
      <g>
       <use xlink:href="#m63c2ec9b4d" x="1094.96815" y="320.4" style="stroke: #000000; stroke-width: 0.8"/>
      </g>
     </g>
     <g id="text_47">
      <!-- 800 -->
      <g transform="translate(1085.4244 334.998437) scale(0.1 -0.1)">
       <use xlink:href="#DejaVuSans-38"/>
       <use xlink:href="#DejaVuSans-30" x="63.623047"/>
       <use xlink:href="#DejaVuSans-30" x="127.246094"/>
      </g>
     </g>
    </g>
    <g id="xtick_18">
     <g id="line2d_54">
      <g>
       <use xlink:href="#m63c2ec9b4d" x="1154.707033" y="320.4" style="stroke: #000000; stroke-width: 0.8"/>
      </g>
     </g>
     <g id="text_48">
      <!-- 1000 -->
      <g transform="translate(1141.982033 334.998437) scale(0.1 -0.1)">
       <use xlink:href="#DejaVuSans-31"/>
       <use xlink:href="#DejaVuSans-30" x="63.623047"/>
       <use xlink:href="#DejaVuSans-30" x="127.246094"/>
       <use xlink:href="#DejaVuSans-30" x="190.869141"/>
      </g>
     </g>
    </g>
   </g>
   <g id="matplotlib.axis_6">
    <g id="ytick_13">
     <g id="line2d_55">
      <g>
       <use xlink:href="#m5fda361c47" x="841.092831" y="292.133611" style="stroke: #000000; stroke-width: 0.8"/>
      </g>
     </g>
     <g id="text_49">
      <!-- 1000 -->
      <g transform="translate(808.642831 295.93283) scale(0.1 -0.1)">
       <use xlink:href="#DejaVuSans-31"/>
       <use xlink:href="#DejaVuSans-30" x="63.623047"/>
       <use xlink:href="#DejaVuSans-30" x="127.246094"/>
       <use xlink:href="#DejaVuSans-30" x="190.869141"/>
      </g>
     </g>
    </g>
    <g id="ytick_14">
     <g id="line2d_56">
      <g>
       <use xlink:href="#m5fda361c47" x="841.092831" y="260.202616" style="stroke: #000000; stroke-width: 0.8"/>
      </g>
     </g>
     <g id="text_50">
      <!-- 2000 -->
      <g transform="translate(808.642831 264.001835) scale(0.1 -0.1)">
       <use xlink:href="#DejaVuSans-32"/>
       <use xlink:href="#DejaVuSans-30" x="63.623047"/>
       <use xlink:href="#DejaVuSans-30" x="127.246094"/>
       <use xlink:href="#DejaVuSans-30" x="190.869141"/>
      </g>
     </g>
    </g>
    <g id="ytick_15">
     <g id="line2d_57">
      <g>
       <use xlink:href="#m5fda361c47" x="841.092831" y="228.271621" style="stroke: #000000; stroke-width: 0.8"/>
      </g>
     </g>
     <g id="text_51">
      <!-- 3000 -->
      <g transform="translate(808.642831 232.07084) scale(0.1 -0.1)">
       <use xlink:href="#DejaVuSans-33"/>
       <use xlink:href="#DejaVuSans-30" x="63.623047"/>
       <use xlink:href="#DejaVuSans-30" x="127.246094"/>
       <use xlink:href="#DejaVuSans-30" x="190.869141"/>
      </g>
     </g>
    </g>
    <g id="ytick_16">
     <g id="line2d_58">
      <g>
       <use xlink:href="#m5fda361c47" x="841.092831" y="196.340626" style="stroke: #000000; stroke-width: 0.8"/>
      </g>
     </g>
     <g id="text_52">
      <!-- 4000 -->
      <g transform="translate(808.642831 200.139845) scale(0.1 -0.1)">
       <use xlink:href="#DejaVuSans-34"/>
       <use xlink:href="#DejaVuSans-30" x="63.623047"/>
       <use xlink:href="#DejaVuSans-30" x="127.246094"/>
       <use xlink:href="#DejaVuSans-30" x="190.869141"/>
      </g>
     </g>
    </g>
    <g id="ytick_17">
     <g id="line2d_59">
      <g>
       <use xlink:href="#m5fda361c47" x="841.092831" y="164.409631" style="stroke: #000000; stroke-width: 0.8"/>
      </g>
     </g>
     <g id="text_53">
      <!-- 5000 -->
      <g transform="translate(808.642831 168.20885) scale(0.1 -0.1)">
       <use xlink:href="#DejaVuSans-35"/>
       <use xlink:href="#DejaVuSans-30" x="63.623047"/>
       <use xlink:href="#DejaVuSans-30" x="127.246094"/>
       <use xlink:href="#DejaVuSans-30" x="190.869141"/>
      </g>
     </g>
    </g>
    <g id="ytick_18">
     <g id="line2d_60">
      <g>
       <use xlink:href="#m5fda361c47" x="841.092831" y="132.478636" style="stroke: #000000; stroke-width: 0.8"/>
      </g>
     </g>
     <g id="text_54">
      <!-- 6000 -->
      <g transform="translate(808.642831 136.277855) scale(0.1 -0.1)">
       <use xlink:href="#DejaVuSans-36"/>
       <use xlink:href="#DejaVuSans-30" x="63.623047"/>
       <use xlink:href="#DejaVuSans-30" x="127.246094"/>
       <use xlink:href="#DejaVuSans-30" x="190.869141"/>
      </g>
     </g>
    </g>
    <g id="ytick_19">
     <g id="line2d_61">
      <g>
       <use xlink:href="#m5fda361c47" x="841.092831" y="100.547641" style="stroke: #000000; stroke-width: 0.8"/>
      </g>
     </g>
     <g id="text_55">
      <!-- 7000 -->
      <g transform="translate(808.642831 104.34686) scale(0.1 -0.1)">
       <defs>
        <path id="DejaVuSans-37" d="M 525 4666 
L 3525 4666 
L 3525 4397 
L 1831 0 
L 1172 0 
L 2766 4134 
L 525 4134 
L 525 4666 
z
" transform="scale(0.015625)"/>
       </defs>
       <use xlink:href="#DejaVuSans-37"/>
       <use xlink:href="#DejaVuSans-30" x="63.623047"/>
       <use xlink:href="#DejaVuSans-30" x="127.246094"/>
       <use xlink:href="#DejaVuSans-30" x="190.869141"/>
      </g>
     </g>
    </g>
    <g id="ytick_20">
     <g id="line2d_62">
      <g>
       <use xlink:href="#m5fda361c47" x="841.092831" y="68.616646" style="stroke: #000000; stroke-width: 0.8"/>
      </g>
     </g>
     <g id="text_56">
      <!-- 8000 -->
      <g transform="translate(808.642831 72.415865) scale(0.1 -0.1)">
       <use xlink:href="#DejaVuSans-38"/>
       <use xlink:href="#DejaVuSans-30" x="63.623047"/>
       <use xlink:href="#DejaVuSans-30" x="127.246094"/>
       <use xlink:href="#DejaVuSans-30" x="190.869141"/>
      </g>
     </g>
    </g>
   </g>
   <g id="line2d_63">
    <path d="M 856.012617 55.8 
L 857.804783 68.684687 
L 858.999561 75.784094 
L 860.194339 81.720079 
L 861.687811 88.074659 
L 863.778672 95.904363 
L 866.765616 106.16218 
L 876.921226 140.300763 
L 881.401642 156.386251 
L 883.492503 162.616927 
L 886.778142 171.551619 
L 892.75203 187.087763 
L 896.037669 195.063581 
L 898.725919 201.04351 
L 901.712863 207.129467 
L 904.998501 213.271927 
L 908.28414 218.92245 
L 911.868473 224.626163 
L 916.348889 231.327034 
L 921.426694 238.509964 
L 926.205805 244.894573 
L 930.984915 250.91903 
L 935.764026 256.586345 
L 940.543137 261.901873 
L 945.322247 266.86804 
L 949.802664 271.209907 
L 954.28308 275.250756 
L 958.763496 278.993788 
L 963.243912 282.442457 
L 967.724329 285.601177 
L 971.906051 288.292552 
L 976.386467 290.906236 
L 980.866883 293.249134 
L 985.347299 295.332222 
L 989.827715 297.168582 
L 994.606826 298.873128 
L 999.684631 300.420807 
L 1004.762436 301.728969 
L 1010.43763 302.944613 
L 1016.411519 303.990244 
L 1023.28149 304.951335 
L 1031.346239 305.818749 
L 1039.709683 306.483407 
L 1049.267904 307.008395 
L 1060.319598 307.3771 
L 1074.059541 307.603128 
L 1096.162928 307.724654 
L 1154.408339 307.8 
L 1154.408339 307.8 
" clip-path="url(#p772c3df378)" style="fill: none; stroke: #000000; stroke-width: 1.5; stroke-linecap: square"/>
   </g>
   <g id="patch_15">
    <path d="M 841.092831 320.4 
L 841.092831 43.2 
" style="fill: none; stroke: #000000; stroke-width: 0.8; stroke-linejoin: miter; stroke-linecap: square"/>
   </g>
   <g id="patch_16">
    <path d="M 1169.328125 320.4 
L 1169.328125 43.2 
" style="fill: none; stroke: #000000; stroke-width: 0.8; stroke-linejoin: miter; stroke-linecap: square"/>
   </g>
   <g id="patch_17">
    <path d="M 841.092831 320.4 
L 1169.328125 320.4 
" style="fill: none; stroke: #000000; stroke-width: 0.8; stroke-linejoin: miter; stroke-linecap: square"/>
   </g>
   <g id="patch_18">
    <path d="M 841.092831 43.2 
L 1169.328125 43.2 
" style="fill: none; stroke: #000000; stroke-width: 0.8; stroke-linejoin: miter; stroke-linecap: square"/>
   </g>
   <g id="text_57">
    <!-- train loss -->
    <g transform="translate(977.749228 37.2) scale(0.12 -0.12)">
     <use xlink:href="#DejaVuSans-74"/>
     <use xlink:href="#DejaVuSans-72" x="39.208984"/>
     <use xlink:href="#DejaVuSans-61" x="80.322266"/>
     <use xlink:href="#DejaVuSans-69" x="141.601562"/>
     <use xlink:href="#DejaVuSans-6e" x="169.384766"/>
     <use xlink:href="#DejaVuSans-20" x="232.763672"/>
     <use xlink:href="#DejaVuSans-6c" x="264.550781"/>
     <use xlink:href="#DejaVuSans-6f" x="292.333984"/>
     <use xlink:href="#DejaVuSans-73" x="353.515625"/>
     <use xlink:href="#DejaVuSans-73" x="405.615234"/>
    </g>
   </g>
  </g>
  <g id="text_58">
   <!-- Optimization of kinematic parameters c -->
   <g transform="translate(454.065313 17.837812) scale(0.14 -0.14)">
    <defs>
     <path id="DejaVuSans-4f" d="M 2522 4238 
Q 1834 4238 1429 3725 
Q 1025 3213 1025 2328 
Q 1025 1447 1429 934 
Q 1834 422 2522 422 
Q 3209 422 3611 934 
Q 4013 1447 4013 2328 
Q 4013 3213 3611 3725 
Q 3209 4238 2522 4238 
z
M 2522 4750 
Q 3503 4750 4090 4092 
Q 4678 3434 4678 2328 
Q 4678 1225 4090 567 
Q 3503 -91 2522 -91 
Q 1538 -91 948 565 
Q 359 1222 359 2328 
Q 359 3434 948 4092 
Q 1538 4750 2522 4750 
z
" transform="scale(0.015625)"/>
     <path id="DejaVuSans-6b" d="M 581 4863 
L 1159 4863 
L 1159 1991 
L 2875 3500 
L 3609 3500 
L 1753 1863 
L 3688 0 
L 2938 0 
L 1159 1709 
L 1159 0 
L 581 0 
L 581 4863 
z
" transform="scale(0.015625)"/>
    </defs>
    <use xlink:href="#DejaVuSans-4f"/>
    <use xlink:href="#DejaVuSans-70" x="78.710938"/>
    <use xlink:href="#DejaVuSans-74" x="142.1875"/>
    <use xlink:href="#DejaVuSans-69" x="181.396484"/>
    <use xlink:href="#DejaVuSans-6d" x="209.179688"/>
    <use xlink:href="#DejaVuSans-69" x="306.591797"/>
    <use xlink:href="#DejaVuSans-7a" x="334.375"/>
    <use xlink:href="#DejaVuSans-61" x="386.865234"/>
    <use xlink:href="#DejaVuSans-74" x="448.144531"/>
    <use xlink:href="#DejaVuSans-69" x="487.353516"/>
    <use xlink:href="#DejaVuSans-6f" x="515.136719"/>
    <use xlink:href="#DejaVuSans-6e" x="576.318359"/>
    <use xlink:href="#DejaVuSans-20" x="639.697266"/>
    <use xlink:href="#DejaVuSans-6f" x="671.484375"/>
    <use xlink:href="#DejaVuSans-66" x="732.666016"/>
    <use xlink:href="#DejaVuSans-20" x="767.871094"/>
    <use xlink:href="#DejaVuSans-6b" x="799.658203"/>
    <use xlink:href="#DejaVuSans-69" x="857.568359"/>
    <use xlink:href="#DejaVuSans-6e" x="885.351562"/>
    <use xlink:href="#DejaVuSans-65" x="948.730469"/>
    <use xlink:href="#DejaVuSans-6d" x="1010.253906"/>
    <use xlink:href="#DejaVuSans-61" x="1107.666016"/>
    <use xlink:href="#DejaVuSans-74" x="1168.945312"/>
    <use xlink:href="#DejaVuSans-69" x="1208.154297"/>
    <use xlink:href="#DejaVuSans-63" x="1235.9375"/>
    <use xlink:href="#DejaVuSans-20" x="1290.917969"/>
    <use xlink:href="#DejaVuSans-70" x="1322.705078"/>
    <use xlink:href="#DejaVuSans-61" x="1386.181641"/>
    <use xlink:href="#DejaVuSans-72" x="1447.460938"/>
    <use xlink:href="#DejaVuSans-61" x="1488.574219"/>
    <use xlink:href="#DejaVuSans-6d" x="1549.853516"/>
    <use xlink:href="#DejaVuSans-65" x="1647.265625"/>
    <use xlink:href="#DejaVuSans-74" x="1708.789062"/>
    <use xlink:href="#DejaVuSans-65" x="1747.998047"/>
    <use xlink:href="#DejaVuSans-72" x="1809.521484"/>
    <use xlink:href="#DejaVuSans-73" x="1850.634766"/>
    <use xlink:href="#DejaVuSans-20" x="1902.734375"/>
    <use xlink:href="#DejaVuSans-63" x="1934.521484"/>
   </g>
  </g>
 </g>
 <defs>
  <clipPath id="p943e285ab5">
   <rect x="53.328125" y="43.2" width="328.235294" height="277.2"/>
  </clipPath>
  <clipPath id="pd3e973c0f0">
   <rect x="447.210478" y="43.2" width="328.235294" height="277.2"/>
  </clipPath>
  <clipPath id="p772c3df378">
   <rect x="841.092831" y="43.2" width="328.235294" height="277.2"/>
  </clipPath>
 </defs>
</svg>
