<?xml version="1.0" encoding="utf-8" standalone="no"?>
<!DOCTYPE svg PUBLIC "-//W3C//DTD SVG 1.1//EN"
  "http://www.w3.org/Graphics/SVG/1.1/DTD/svg11.dtd">
<svg xmlns:xlink="http://www.w3.org/1999/xlink" width="432pt" height="288pt" viewBox="0 0 432 288" xmlns="http://www.w3.org/2000/svg" version="1.1">
 <metadata>
  <rdf:RDF xmlns:dc="http://purl.org/dc/elements/1.1/" xmlns:cc="http://creativecommons.org/ns#" xmlns:rdf="http://www.w3.org/1999/02/22-rdf-syntax-ns#">
   <cc:Work>
    <dc:type rdf:resource="http://purl.org/dc/dcmitype/StillImage"/>
    <dc:date>2023-06-02T10:06:05.373306</dc:date>
    <dc:format>image/svg+xml</dc:format>
    <dc:creator>
     <cc:Agent>
      <dc:title>Matplotlib v3.7.1, https://matplotlib.org/</dc:title>
     </cc:Agent>
    </dc:creator>
   </cc:Work>
  </rdf:RDF>
 </metadata>
 <defs>
  <style type="text/css">*{stroke-linejoin: round; stroke-linecap: butt}</style>
 </defs>
 <g id="figure_1">
  <g id="patch_1">
   <path d="M 0 288 
L 432 288 
L 432 0 
L 0 0 
z
" style="fill: #ffffff"/>
  </g>
  <g id="axes_1">
   <g id="patch_2">
    <path d="M 54 256.32 
L 388.8 256.32 
L 388.8 34.56 
L 54 34.56 
z
" style="fill: #ffffff"/>
   </g>
   <g id="matplotlib.axis_1">
    <g id="xtick_1">
     <g id="line2d_1">
      <defs>
       <path id="ma3b62c65ed" d="M 0 0 
L 0 3.5 
" style="stroke: #000000; stroke-width: 0.8"/>
      </defs>
      <g>
       <use xlink:href="#ma3b62c65ed" x="54" y="256.32" style="stroke: #000000; stroke-width: 0.8"/>
      </g>
     </g>
     <g id="text_1">
      <!-- 0 -->
      <g transform="translate(50.81875 270.918437) scale(0.1 -0.1)">
       <defs>
        <path id="DejaVuSans-30" d="M 2034 4250 
Q 1547 4250 1301 3770 
Q 1056 3291 1056 2328 
Q 1056 1369 1301 889 
Q 1547 409 2034 409 
Q 2525 409 2770 889 
Q 3016 1369 3016 2328 
Q 3016 3291 2770 3770 
Q 2525 4250 2034 4250 
z
M 2034 4750 
Q 2819 4750 3233 4129 
Q 3647 3509 3647 2328 
Q 3647 1150 3233 529 
Q 2819 -91 2034 -91 
Q 1250 -91 836 529 
Q 422 1150 422 2328 
Q 422 3509 836 4129 
Q 1250 4750 2034 4750 
z
" transform="scale(0.015625)"/>
       </defs>
       <use xlink:href="#DejaVuSans-30"/>
      </g>
     </g>
    </g>
    <g id="xtick_2">
     <g id="line2d_2">
      <g>
       <use xlink:href="#ma3b62c65ed" x="98.64" y="256.32" style="stroke: #000000; stroke-width: 0.8"/>
      </g>
     </g>
     <g id="text_2">
      <!-- 20 -->
      <g transform="translate(92.2775 270.918437) scale(0.1 -0.1)">
       <defs>
        <path id="DejaVuSans-32" d="M 1228 531 
L 3431 531 
L 3431 0 
L 469 0 
L 469 531 
Q 828 903 1448 1529 
Q 2069 2156 2228 2338 
Q 2531 2678 2651 2914 
Q 2772 3150 2772 3378 
Q 2772 3750 2511 3984 
Q 2250 4219 1831 4219 
Q 1534 4219 1204 4116 
Q 875 4013 500 3803 
L 500 4441 
Q 881 4594 1212 4672 
Q 1544 4750 1819 4750 
Q 2544 4750 2975 4387 
Q 3406 4025 3406 3419 
Q 3406 3131 3298 2873 
Q 3191 2616 2906 2266 
Q 2828 2175 2409 1742 
Q 1991 1309 1228 531 
z
" transform="scale(0.015625)"/>
       </defs>
       <use xlink:href="#DejaVuSans-32"/>
       <use xlink:href="#DejaVuSans-30" x="63.623047"/>
      </g>
     </g>
    </g>
    <g id="xtick_3">
     <g id="line2d_3">
      <g>
       <use xlink:href="#ma3b62c65ed" x="143.28" y="256.32" style="stroke: #000000; stroke-width: 0.8"/>
      </g>
     </g>
     <g id="text_3">
      <!-- 40 -->
      <g transform="translate(136.9175 270.918437) scale(0.1 -0.1)">
       <defs>
        <path id="DejaVuSans-34" d="M 2419 4116 
L 825 1625 
L 2419 1625 
L 2419 4116 
z
M 2253 4666 
L 3047 4666 
L 3047 1625 
L 3713 1625 
L 3713 1100 
L 3047 1100 
L 3047 0 
L 2419 0 
L 2419 1100 
L 313 1100 
L 313 1709 
L 2253 4666 
z
" transform="scale(0.015625)"/>
       </defs>
       <use xlink:href="#DejaVuSans-34"/>
       <use xlink:href="#DejaVuSans-30" x="63.623047"/>
      </g>
     </g>
    </g>
    <g id="xtick_4">
     <g id="line2d_4">
      <g>
       <use xlink:href="#ma3b62c65ed" x="187.92" y="256.32" style="stroke: #000000; stroke-width: 0.8"/>
      </g>
     </g>
     <g id="text_4">
      <!-- 60 -->
      <g transform="translate(181.5575 270.918437) scale(0.1 -0.1)">
       <defs>
        <path id="DejaVuSans-36" d="M 2113 2584 
Q 1688 2584 1439 2293 
Q 1191 2003 1191 1497 
Q 1191 994 1439 701 
Q 1688 409 2113 409 
Q 2538 409 2786 701 
Q 3034 994 3034 1497 
Q 3034 2003 2786 2293 
Q 2538 2584 2113 2584 
z
M 3366 4563 
L 3366 3988 
Q 3128 4100 2886 4159 
Q 2644 4219 2406 4219 
Q 1781 4219 1451 3797 
Q 1122 3375 1075 2522 
Q 1259 2794 1537 2939 
Q 1816 3084 2150 3084 
Q 2853 3084 3261 2657 
Q 3669 2231 3669 1497 
Q 3669 778 3244 343 
Q 2819 -91 2113 -91 
Q 1303 -91 875 529 
Q 447 1150 447 2328 
Q 447 3434 972 4092 
Q 1497 4750 2381 4750 
Q 2619 4750 2861 4703 
Q 3103 4656 3366 4563 
z
" transform="scale(0.015625)"/>
       </defs>
       <use xlink:href="#DejaVuSans-36"/>
       <use xlink:href="#DejaVuSans-30" x="63.623047"/>
      </g>
     </g>
    </g>
    <g id="xtick_5">
     <g id="line2d_5">
      <g>
       <use xlink:href="#ma3b62c65ed" x="232.56" y="256.32" style="stroke: #000000; stroke-width: 0.8"/>
      </g>
     </g>
     <g id="text_5">
      <!-- 80 -->
      <g transform="translate(226.1975 270.918437) scale(0.1 -0.1)">
       <defs>
        <path id="DejaVuSans-38" d="M 2034 2216 
Q 1584 2216 1326 1975 
Q 1069 1734 1069 1313 
Q 1069 891 1326 650 
Q 1584 409 2034 409 
Q 2484 409 2743 651 
Q 3003 894 3003 1313 
Q 3003 1734 2745 1975 
Q 2488 2216 2034 2216 
z
M 1403 2484 
Q 997 2584 770 2862 
Q 544 3141 544 3541 
Q 544 4100 942 4425 
Q 1341 4750 2034 4750 
Q 2731 4750 3128 4425 
Q 3525 4100 3525 3541 
Q 3525 3141 3298 2862 
Q 3072 2584 2669 2484 
Q 3125 2378 3379 2068 
Q 3634 1759 3634 1313 
Q 3634 634 3220 271 
Q 2806 -91 2034 -91 
Q 1263 -91 848 271 
Q 434 634 434 1313 
Q 434 1759 690 2068 
Q 947 2378 1403 2484 
z
M 1172 3481 
Q 1172 3119 1398 2916 
Q 1625 2713 2034 2713 
Q 2441 2713 2670 2916 
Q 2900 3119 2900 3481 
Q 2900 3844 2670 4047 
Q 2441 4250 2034 4250 
Q 1625 4250 1398 4047 
Q 1172 3844 1172 3481 
z
" transform="scale(0.015625)"/>
       </defs>
       <use xlink:href="#DejaVuSans-38"/>
       <use xlink:href="#DejaVuSans-30" x="63.623047"/>
      </g>
     </g>
    </g>
    <g id="xtick_6">
     <g id="line2d_6">
      <g>
       <use xlink:href="#ma3b62c65ed" x="277.2" y="256.32" style="stroke: #000000; stroke-width: 0.8"/>
      </g>
     </g>
     <g id="text_6">
      <!-- 100 -->
      <g transform="translate(267.65625 270.918437) scale(0.1 -0.1)">
       <defs>
        <path id="DejaVuSans-31" d="M 794 531 
L 1825 531 
L 1825 4091 
L 703 3866 
L 703 4441 
L 1819 4666 
L 2450 4666 
L 2450 531 
L 3481 531 
L 3481 0 
L 794 0 
L 794 531 
z
" transform="scale(0.015625)"/>
       </defs>
       <use xlink:href="#DejaVuSans-31"/>
       <use xlink:href="#DejaVuSans-30" x="63.623047"/>
       <use xlink:href="#DejaVuSans-30" x="127.246094"/>
      </g>
     </g>
    </g>
    <g id="xtick_7">
     <g id="line2d_7">
      <g>
       <use xlink:href="#ma3b62c65ed" x="321.84" y="256.32" style="stroke: #000000; stroke-width: 0.8"/>
      </g>
     </g>
     <g id="text_7">
      <!-- 120 -->
      <g transform="translate(312.29625 270.918437) scale(0.1 -0.1)">
       <use xlink:href="#DejaVuSans-31"/>
       <use xlink:href="#DejaVuSans-32" x="63.623047"/>
       <use xlink:href="#DejaVuSans-30" x="127.246094"/>
      </g>
     </g>
    </g>
    <g id="xtick_8">
     <g id="line2d_8">
      <g>
       <use xlink:href="#ma3b62c65ed" x="366.48" y="256.32" style="stroke: #000000; stroke-width: 0.8"/>
      </g>
     </g>
     <g id="text_8">
      <!-- 140 -->
      <g transform="translate(356.93625 270.918437) scale(0.1 -0.1)">
       <use xlink:href="#DejaVuSans-31"/>
       <use xlink:href="#DejaVuSans-34" x="63.623047"/>
       <use xlink:href="#DejaVuSans-30" x="127.246094"/>
      </g>
     </g>
    </g>
    <g id="text_9">
     <!-- Reaction time (mins) -->
     <g transform="translate(169.275 284.596563) scale(0.1 -0.1)">
      <defs>
       <path id="DejaVuSans-52" d="M 2841 2188 
Q 3044 2119 3236 1894 
Q 3428 1669 3622 1275 
L 4263 0 
L 3584 0 
L 2988 1197 
Q 2756 1666 2539 1819 
Q 2322 1972 1947 1972 
L 1259 1972 
L 1259 0 
L 628 0 
L 628 4666 
L 2053 4666 
Q 2853 4666 3247 4331 
Q 3641 3997 3641 3322 
Q 3641 2881 3436 2590 
Q 3231 2300 2841 2188 
z
M 1259 4147 
L 1259 2491 
L 2053 2491 
Q 2509 2491 2742 2702 
Q 2975 2913 2975 3322 
Q 2975 3731 2742 3939 
Q 2509 4147 2053 4147 
L 1259 4147 
z
" transform="scale(0.015625)"/>
       <path id="DejaVuSans-65" d="M 3597 1894 
L 3597 1613 
L 953 1613 
Q 991 1019 1311 708 
Q 1631 397 2203 397 
Q 2534 397 2845 478 
Q 3156 559 3463 722 
L 3463 178 
Q 3153 47 2828 -22 
Q 2503 -91 2169 -91 
Q 1331 -91 842 396 
Q 353 884 353 1716 
Q 353 2575 817 3079 
Q 1281 3584 2069 3584 
Q 2775 3584 3186 3129 
Q 3597 2675 3597 1894 
z
M 3022 2063 
Q 3016 2534 2758 2815 
Q 2500 3097 2075 3097 
Q 1594 3097 1305 2825 
Q 1016 2553 972 2059 
L 3022 2063 
z
" transform="scale(0.015625)"/>
       <path id="DejaVuSans-61" d="M 2194 1759 
Q 1497 1759 1228 1600 
Q 959 1441 959 1056 
Q 959 750 1161 570 
Q 1363 391 1709 391 
Q 2188 391 2477 730 
Q 2766 1069 2766 1631 
L 2766 1759 
L 2194 1759 
z
M 3341 1997 
L 3341 0 
L 2766 0 
L 2766 531 
Q 2569 213 2275 61 
Q 1981 -91 1556 -91 
Q 1019 -91 701 211 
Q 384 513 384 1019 
Q 384 1609 779 1909 
Q 1175 2209 1959 2209 
L 2766 2209 
L 2766 2266 
Q 2766 2663 2505 2880 
Q 2244 3097 1772 3097 
Q 1472 3097 1187 3025 
Q 903 2953 641 2809 
L 641 3341 
Q 956 3463 1253 3523 
Q 1550 3584 1831 3584 
Q 2591 3584 2966 3190 
Q 3341 2797 3341 1997 
z
" transform="scale(0.015625)"/>
       <path id="DejaVuSans-63" d="M 3122 3366 
L 3122 2828 
Q 2878 2963 2633 3030 
Q 2388 3097 2138 3097 
Q 1578 3097 1268 2742 
Q 959 2388 959 1747 
Q 959 1106 1268 751 
Q 1578 397 2138 397 
Q 2388 397 2633 464 
Q 2878 531 3122 666 
L 3122 134 
Q 2881 22 2623 -34 
Q 2366 -91 2075 -91 
Q 1284 -91 818 406 
Q 353 903 353 1747 
Q 353 2603 823 3093 
Q 1294 3584 2113 3584 
Q 2378 3584 2631 3529 
Q 2884 3475 3122 3366 
z
" transform="scale(0.015625)"/>
       <path id="DejaVuSans-74" d="M 1172 4494 
L 1172 3500 
L 2356 3500 
L 2356 3053 
L 1172 3053 
L 1172 1153 
Q 1172 725 1289 603 
Q 1406 481 1766 481 
L 2356 481 
L 2356 0 
L 1766 0 
Q 1100 0 847 248 
Q 594 497 594 1153 
L 594 3053 
L 172 3053 
L 172 3500 
L 594 3500 
L 594 4494 
L 1172 4494 
z
" transform="scale(0.015625)"/>
       <path id="DejaVuSans-69" d="M 603 3500 
L 1178 3500 
L 1178 0 
L 603 0 
L 603 3500 
z
M 603 4863 
L 1178 4863 
L 1178 4134 
L 603 4134 
L 603 4863 
z
" transform="scale(0.015625)"/>
       <path id="DejaVuSans-6f" d="M 1959 3097 
Q 1497 3097 1228 2736 
Q 959 2375 959 1747 
Q 959 1119 1226 758 
Q 1494 397 1959 397 
Q 2419 397 2687 759 
Q 2956 1122 2956 1747 
Q 2956 2369 2687 2733 
Q 2419 3097 1959 3097 
z
M 1959 3584 
Q 2709 3584 3137 3096 
Q 3566 2609 3566 1747 
Q 3566 888 3137 398 
Q 2709 -91 1959 -91 
Q 1206 -91 779 398 
Q 353 888 353 1747 
Q 353 2609 779 3096 
Q 1206 3584 1959 3584 
z
" transform="scale(0.015625)"/>
       <path id="DejaVuSans-6e" d="M 3513 2113 
L 3513 0 
L 2938 0 
L 2938 2094 
Q 2938 2591 2744 2837 
Q 2550 3084 2163 3084 
Q 1697 3084 1428 2787 
Q 1159 2491 1159 1978 
L 1159 0 
L 581 0 
L 581 3500 
L 1159 3500 
L 1159 2956 
Q 1366 3272 1645 3428 
Q 1925 3584 2291 3584 
Q 2894 3584 3203 3211 
Q 3513 2838 3513 2113 
z
" transform="scale(0.015625)"/>
       <path id="DejaVuSans-20" transform="scale(0.015625)"/>
       <path id="DejaVuSans-6d" d="M 3328 2828 
Q 3544 3216 3844 3400 
Q 4144 3584 4550 3584 
Q 5097 3584 5394 3201 
Q 5691 2819 5691 2113 
L 5691 0 
L 5113 0 
L 5113 2094 
Q 5113 2597 4934 2840 
Q 4756 3084 4391 3084 
Q 3944 3084 3684 2787 
Q 3425 2491 3425 1978 
L 3425 0 
L 2847 0 
L 2847 2094 
Q 2847 2600 2669 2842 
Q 2491 3084 2119 3084 
Q 1678 3084 1418 2786 
Q 1159 2488 1159 1978 
L 1159 0 
L 581 0 
L 581 3500 
L 1159 3500 
L 1159 2956 
Q 1356 3278 1631 3431 
Q 1906 3584 2284 3584 
Q 2666 3584 2933 3390 
Q 3200 3197 3328 2828 
z
" transform="scale(0.015625)"/>
       <path id="DejaVuSans-28" d="M 1984 4856 
Q 1566 4138 1362 3434 
Q 1159 2731 1159 2009 
Q 1159 1288 1364 580 
Q 1569 -128 1984 -844 
L 1484 -844 
Q 1016 -109 783 600 
Q 550 1309 550 2009 
Q 550 2706 781 3412 
Q 1013 4119 1484 4856 
L 1984 4856 
z
" transform="scale(0.015625)"/>
       <path id="DejaVuSans-73" d="M 2834 3397 
L 2834 2853 
Q 2591 2978 2328 3040 
Q 2066 3103 1784 3103 
Q 1356 3103 1142 2972 
Q 928 2841 928 2578 
Q 928 2378 1081 2264 
Q 1234 2150 1697 2047 
L 1894 2003 
Q 2506 1872 2764 1633 
Q 3022 1394 3022 966 
Q 3022 478 2636 193 
Q 2250 -91 1575 -91 
Q 1294 -91 989 -36 
Q 684 19 347 128 
L 347 722 
Q 666 556 975 473 
Q 1284 391 1588 391 
Q 1994 391 2212 530 
Q 2431 669 2431 922 
Q 2431 1156 2273 1281 
Q 2116 1406 1581 1522 
L 1381 1569 
Q 847 1681 609 1914 
Q 372 2147 372 2553 
Q 372 3047 722 3315 
Q 1072 3584 1716 3584 
Q 2034 3584 2315 3537 
Q 2597 3491 2834 3397 
z
" transform="scale(0.015625)"/>
       <path id="DejaVuSans-29" d="M 513 4856 
L 1013 4856 
Q 1481 4119 1714 3412 
Q 1947 2706 1947 2009 
Q 1947 1309 1714 600 
Q 1481 -109 1013 -844 
L 513 -844 
Q 928 -128 1133 580 
Q 1338 1288 1338 2009 
Q 1338 2731 1133 3434 
Q 928 4138 513 4856 
z
" transform="scale(0.015625)"/>
      </defs>
      <use xlink:href="#DejaVuSans-52"/>
      <use xlink:href="#DejaVuSans-65" x="64.982422"/>
      <use xlink:href="#DejaVuSans-61" x="126.505859"/>
      <use xlink:href="#DejaVuSans-63" x="187.785156"/>
      <use xlink:href="#DejaVuSans-74" x="242.765625"/>
      <use xlink:href="#DejaVuSans-69" x="281.974609"/>
      <use xlink:href="#DejaVuSans-6f" x="309.757812"/>
      <use xlink:href="#DejaVuSans-6e" x="370.939453"/>
      <use xlink:href="#DejaVuSans-20" x="434.318359"/>
      <use xlink:href="#DejaVuSans-74" x="466.105469"/>
      <use xlink:href="#DejaVuSans-69" x="505.314453"/>
      <use xlink:href="#DejaVuSans-6d" x="533.097656"/>
      <use xlink:href="#DejaVuSans-65" x="630.509766"/>
      <use xlink:href="#DejaVuSans-20" x="692.033203"/>
      <use xlink:href="#DejaVuSans-28" x="723.820312"/>
      <use xlink:href="#DejaVuSans-6d" x="762.833984"/>
      <use xlink:href="#DejaVuSans-69" x="860.246094"/>
      <use xlink:href="#DejaVuSans-6e" x="888.029297"/>
      <use xlink:href="#DejaVuSans-73" x="951.408203"/>
      <use xlink:href="#DejaVuSans-29" x="1003.507812"/>
     </g>
    </g>
   </g>
   <g id="matplotlib.axis_2">
    <g id="ytick_1">
     <g id="line2d_9">
      <defs>
       <path id="md588728169" d="M 0 0 
L -3.5 0 
" style="stroke: #000000; stroke-width: 0.8"/>
      </defs>
      <g>
       <use xlink:href="#md588728169" x="54" y="256.32" style="stroke: #000000; stroke-width: 0.8"/>
      </g>
     </g>
     <g id="text_10">
      <!-- 0 -->
      <g transform="translate(40.6375 260.119219) scale(0.1 -0.1)">
       <use xlink:href="#DejaVuSans-30"/>
      </g>
     </g>
    </g>
    <g id="ytick_2">
     <g id="line2d_10">
      <g>
       <use xlink:href="#md588728169" x="54" y="219.36" style="stroke: #000000; stroke-width: 0.8"/>
      </g>
     </g>
     <g id="text_11">
      <!-- 50 -->
      <g transform="translate(34.275 223.159219) scale(0.1 -0.1)">
       <defs>
        <path id="DejaVuSans-35" d="M 691 4666 
L 3169 4666 
L 3169 4134 
L 1269 4134 
L 1269 2991 
Q 1406 3038 1543 3061 
Q 1681 3084 1819 3084 
Q 2600 3084 3056 2656 
Q 3513 2228 3513 1497 
Q 3513 744 3044 326 
Q 2575 -91 1722 -91 
Q 1428 -91 1123 -41 
Q 819 9 494 109 
L 494 744 
Q 775 591 1075 516 
Q 1375 441 1709 441 
Q 2250 441 2565 725 
Q 2881 1009 2881 1497 
Q 2881 1984 2565 2268 
Q 2250 2553 1709 2553 
Q 1456 2553 1204 2497 
Q 953 2441 691 2322 
L 691 4666 
z
" transform="scale(0.015625)"/>
       </defs>
       <use xlink:href="#DejaVuSans-35"/>
       <use xlink:href="#DejaVuSans-30" x="63.623047"/>
      </g>
     </g>
    </g>
    <g id="ytick_3">
     <g id="line2d_11">
      <g>
       <use xlink:href="#md588728169" x="54" y="182.4" style="stroke: #000000; stroke-width: 0.8"/>
      </g>
     </g>
     <g id="text_12">
      <!-- 100 -->
      <g transform="translate(27.9125 186.199219) scale(0.1 -0.1)">
       <use xlink:href="#DejaVuSans-31"/>
       <use xlink:href="#DejaVuSans-30" x="63.623047"/>
       <use xlink:href="#DejaVuSans-30" x="127.246094"/>
      </g>
     </g>
    </g>
    <g id="ytick_4">
     <g id="line2d_12">
      <g>
       <use xlink:href="#md588728169" x="54" y="145.44" style="stroke: #000000; stroke-width: 0.8"/>
      </g>
     </g>
     <g id="text_13">
      <!-- 150 -->
      <g transform="translate(27.9125 149.239219) scale(0.1 -0.1)">
       <use xlink:href="#DejaVuSans-31"/>
       <use xlink:href="#DejaVuSans-35" x="63.623047"/>
       <use xlink:href="#DejaVuSans-30" x="127.246094"/>
      </g>
     </g>
    </g>
    <g id="ytick_5">
     <g id="line2d_13">
      <g>
       <use xlink:href="#md588728169" x="54" y="108.48" style="stroke: #000000; stroke-width: 0.8"/>
      </g>
     </g>
     <g id="text_14">
      <!-- 200 -->
      <g transform="translate(27.9125 112.279219) scale(0.1 -0.1)">
       <use xlink:href="#DejaVuSans-32"/>
       <use xlink:href="#DejaVuSans-30" x="63.623047"/>
       <use xlink:href="#DejaVuSans-30" x="127.246094"/>
      </g>
     </g>
    </g>
    <g id="ytick_6">
     <g id="line2d_14">
      <g>
       <use xlink:href="#md588728169" x="54" y="71.52" style="stroke: #000000; stroke-width: 0.8"/>
      </g>
     </g>
     <g id="text_15">
      <!-- 250 -->
      <g transform="translate(27.9125 75.319219) scale(0.1 -0.1)">
       <use xlink:href="#DejaVuSans-32"/>
       <use xlink:href="#DejaVuSans-35" x="63.623047"/>
       <use xlink:href="#DejaVuSans-30" x="127.246094"/>
      </g>
     </g>
    </g>
    <g id="ytick_7">
     <g id="line2d_15">
      <g>
       <use xlink:href="#md588728169" x="54" y="34.56" style="stroke: #000000; stroke-width: 0.8"/>
      </g>
     </g>
     <g id="text_16">
      <!-- 300 -->
      <g transform="translate(27.9125 38.359219) scale(0.1 -0.1)">
       <defs>
        <path id="DejaVuSans-33" d="M 2597 2516 
Q 3050 2419 3304 2112 
Q 3559 1806 3559 1356 
Q 3559 666 3084 287 
Q 2609 -91 1734 -91 
Q 1441 -91 1130 -33 
Q 819 25 488 141 
L 488 750 
Q 750 597 1062 519 
Q 1375 441 1716 441 
Q 2309 441 2620 675 
Q 2931 909 2931 1356 
Q 2931 1769 2642 2001 
Q 2353 2234 1838 2234 
L 1294 2234 
L 1294 2753 
L 1863 2753 
Q 2328 2753 2575 2939 
Q 2822 3125 2822 3475 
Q 2822 3834 2567 4026 
Q 2313 4219 1838 4219 
Q 1578 4219 1281 4162 
Q 984 4106 628 3988 
L 628 4550 
Q 988 4650 1302 4700 
Q 1616 4750 1894 4750 
Q 2613 4750 3031 4423 
Q 3450 4097 3450 3541 
Q 3450 3153 3228 2886 
Q 3006 2619 2597 2516 
z
" transform="scale(0.015625)"/>
       </defs>
       <use xlink:href="#DejaVuSans-33"/>
       <use xlink:href="#DejaVuSans-30" x="63.623047"/>
       <use xlink:href="#DejaVuSans-30" x="127.246094"/>
      </g>
     </g>
    </g>
    <g id="text_17">
     <!-- Concentration -->
     <g transform="translate(21.832812 180.811094) rotate(-90) scale(0.1 -0.1)">
      <defs>
       <path id="DejaVuSans-43" d="M 4122 4306 
L 4122 3641 
Q 3803 3938 3442 4084 
Q 3081 4231 2675 4231 
Q 1875 4231 1450 3742 
Q 1025 3253 1025 2328 
Q 1025 1406 1450 917 
Q 1875 428 2675 428 
Q 3081 428 3442 575 
Q 3803 722 4122 1019 
L 4122 359 
Q 3791 134 3420 21 
Q 3050 -91 2638 -91 
Q 1578 -91 968 557 
Q 359 1206 359 2328 
Q 359 3453 968 4101 
Q 1578 4750 2638 4750 
Q 3056 4750 3426 4639 
Q 3797 4528 4122 4306 
z
" transform="scale(0.015625)"/>
       <path id="DejaVuSans-72" d="M 2631 2963 
Q 2534 3019 2420 3045 
Q 2306 3072 2169 3072 
Q 1681 3072 1420 2755 
Q 1159 2438 1159 1844 
L 1159 0 
L 581 0 
L 581 3500 
L 1159 3500 
L 1159 2956 
Q 1341 3275 1631 3429 
Q 1922 3584 2338 3584 
Q 2397 3584 2469 3576 
Q 2541 3569 2628 3553 
L 2631 2963 
z
" transform="scale(0.015625)"/>
      </defs>
      <use xlink:href="#DejaVuSans-43"/>
      <use xlink:href="#DejaVuSans-6f" x="69.824219"/>
      <use xlink:href="#DejaVuSans-6e" x="131.005859"/>
      <use xlink:href="#DejaVuSans-63" x="194.384766"/>
      <use xlink:href="#DejaVuSans-65" x="249.365234"/>
      <use xlink:href="#DejaVuSans-6e" x="310.888672"/>
      <use xlink:href="#DejaVuSans-74" x="374.267578"/>
      <use xlink:href="#DejaVuSans-72" x="413.476562"/>
      <use xlink:href="#DejaVuSans-61" x="454.589844"/>
      <use xlink:href="#DejaVuSans-74" x="515.869141"/>
      <use xlink:href="#DejaVuSans-69" x="555.078125"/>
      <use xlink:href="#DejaVuSans-6f" x="582.861328"/>
      <use xlink:href="#DejaVuSans-6e" x="644.042969"/>
     </g>
    </g>
   </g>
   <g id="line2d_16">
    <path d="M 54 49.344 
L 54.3162 49.437641 
L 55.40244 49.48551 
L 55.685156 49.94557 
L 56.01623 50.980017 
L 56.388225 52.967903 
L 56.812298 56.567735 
L 57.295891 62.756731 
L 57.842723 72.837986 
L 58.467673 88.747953 
L 59.189375 113.177816 
L 60.037586 149.923701 
L 61.228059 212.504505 
L 61.994426 248.119079 
L 62.299484 253.889106 
L 62.55246 255.233121 
L 62.891 255.823489 
L 63.285344 256.150892 
L 63.791295 256.223389 
L 67.704974 256.258013 
L 81.623446 256.178703 
L 85.911557 255.970009 
L 87.957058 255.664949 
L 89.243865 255.259765 
L 90.192234 254.733378 
L 90.973243 254.042856 
L 91.668712 253.12261 
L 92.338153 251.85141 
L 93.022464 250.046657 
L 93.770003 247.403604 
L 94.658865 243.377568 
L 95.852695 236.838318 
L 97.671329 225.505987 
L 100.140804 208.672297 
L 103.6851 182.818552 
L 110.959645 129.61103 
L 112.785716 117.979142 
L 114.013017 111.464773 
L 114.894445 107.881126 
L 115.541565 106.084729 
L 116.01761 105.341818 
L 116.356044 105.167756 
L 116.63126 105.270014 
L 116.928787 105.650938 
L 117.285817 106.512575 
L 117.713513 108.180963 
L 118.219311 111.137639 
L 118.79577 115.928239 
L 119.454049 123.390125 
L 120.201588 134.5569 
L 121.068137 151.086078 
L 122.102041 175.430178 
L 123.652906 218.071244 
L 124.668215 243.297385 
L 125.151697 250.520247 
L 125.519889 253.156149 
L 125.869482 254.227403 
L 126.315773 254.867063 
L 127.204634 255.711975 
L 127.755065 255.924026 
L 128.681117 255.995076 
L 132.000764 255.937883 
L 134.901469 255.703882 
L 136.599445 255.358482 
L 137.761219 254.905144 
L 138.65862 254.321824 
L 139.425682 253.555086 
L 140.125728 252.533553 
L 140.818324 251.105348 
L 141.529541 249.098972 
L 142.318945 246.160534 
L 143.264751 241.723906 
L 144.579196 234.378263 
L 146.586228 221.74651 
L 149.170435 204.061794 
L 152.875444 176.914985 
L 159.205623 130.648725 
L 161.074884 118.642105 
L 162.329754 111.901665 
L 163.219696 108.22017 
L 163.878779 106.341276 
L 164.359128 105.557049 
L 164.705426 105.355714 
L 164.980977 105.441504 
L 165.271421 105.790993 
L 165.621439 106.59717 
L 166.045933 108.192434 
L 166.541182 110.995013 
L 167.114619 115.623923 
L 167.769981 122.875767 
L 168.510981 133.717506 
L 169.36742 149.756508 
L 170.391413 173.506483 
L 171.806396 212.078168 
L 172.997962 242.540889 
L 173.493202 250.231613 
L 173.865562 253.042242 
L 174.215589 254.176122 
L 174.647525 254.819671 
L 175.544926 255.690033 
L 176.0923 255.915519 
L 176.974801 255.99264 
L 180.102653 255.947149 
L 183.111345 255.722011 
L 184.857726 255.384141 
L 186.045571 254.937875 
L 186.961585 254.359517 
L 187.736097 253.602923 
L 188.443585 252.589897 
L 189.128739 251.20188 
L 189.839947 249.229534 
L 190.618189 246.376443 
L 191.560265 242.009027 
L 192.826306 234.996307 
L 194.766313 222.867029 
L 197.309566 205.565234 
L 200.94382 179.02092 
L 207.705926 129.623414 
L 209.575195 117.771095 
L 210.789094 111.397232 
L 211.660424 107.919193 
L 212.293453 106.207786 
L 212.755172 105.513049 
L 213.086587 105.35445 
L 213.358401 105.461728 
L 213.656303 105.849002 
L 214.017484 106.730705 
L 214.449436 108.436857 
L 214.955839 111.429784 
L 215.533013 116.268061 
L 216.203267 123.932953 
L 216.95543 135.281617 
L 217.815589 151.797869 
L 218.824699 175.59996 
L 220.381183 218.355909 
L 221.386564 243.302837 
L 221.866913 250.483361 
L 222.235553 253.140982 
L 222.58185 254.211403 
L 223.021228 254.848272 
L 223.918629 255.705969 
L 224.469732 255.921509 
L 225.385746 255.993831 
L 228.65509 255.939107 
L 231.574424 255.706897 
L 233.291013 255.360369 
L 234.452786 254.908649 
L 235.3539 254.325381 
L 236.11725 253.56652 
L 236.817287 252.547737 
L 237.502441 251.143431 
L 238.21365 249.153709 
L 238.984442 246.306016 
L 239.922797 241.947339 
L 241.185109 234.928132 
L 243.162358 222.555687 
L 245.713052 205.176566 
L 249.034538 180.921989 
L 255.62908 132.507045 
L 257.6175 119.550641 
L 258.920783 112.401462 
L 259.829338 108.525726 
L 260.518221 106.468405 
L 261.013453 105.604287 
L 261.36721 105.363519 
L 261.642753 105.421844 
L 261.929467 105.733469 
L 262.272053 106.472748 
L 262.685376 107.945632 
L 263.176895 110.605369 
L 263.742882 115.007352 
L 264.383352 121.858712 
L 265.124344 132.385894 
L 265.96962 147.849044 
L 266.971271 170.613202 
L 268.32295 207.061173 
L 269.696971 242.652346 
L 270.19222 250.291916 
L 270.560859 253.055859 
L 270.907157 254.174155 
L 271.335363 254.814406 
L 272.229035 255.684701 
L 272.772697 255.912938 
L 273.636569 255.99199 
L 276.689953 255.951083 
L 279.743338 255.729868 
L 281.523223 255.391902 
L 282.714797 254.949595 
L 283.638252 254.372805 
L 284.409044 253.628682 
L 285.112811 252.630394 
L 285.797965 251.258075 
L 286.516614 249.284296 
L 287.283694 246.490039 
L 288.240662 242.079864 
L 289.491803 235.148509 
L 291.450439 222.920358 
L 294.135167 204.62233 
L 297.490166 180.089904 
L 304.274631 130.434215 
L 306.065687 118.929265 
L 307.339169 112.04428 
L 308.2403 108.289605 
L 308.895653 106.394142 
L 309.383444 105.576765 
L 309.733471 105.361466 
L 310.005302 105.435785 
L 310.295745 105.770984 
L 310.645755 106.558594 
L 311.062808 108.096549 
L 311.550598 110.802215 
L 312.112872 115.248751 
L 312.760784 122.2752 
L 313.486893 132.688766 
L 314.32471 148.075802 
L 315.307749 170.42776 
L 316.644528 206.428585 
L 318.029719 242.426575 
L 318.528697 250.210925 
L 318.901049 253.037641 
L 319.247347 254.166172 
L 319.6793 254.814268 
L 320.561801 255.677052 
L 321.105445 255.910362 
L 321.961875 255.991541 
L 324.966847 255.953483 
L 328.053744 255.73412 
L 329.837359 255.400106 
L 331.036374 254.960601 
L 331.959829 254.390476 
L 332.734351 253.650838 
L 333.438117 252.662247 
L 334.123271 251.302391 
L 334.838209 249.355948 
L 335.616442 246.537347 
L 336.543627 242.289083 
L 337.742642 235.698307 
L 339.71245 223.45553 
L 342.330152 205.678625 
L 345.916011 179.481662 
L 352.201514 133.310673 
L 354.148963 120.501091 
L 355.4783 113.047382 
L 356.420368 108.885096 
L 357.139051 106.631289 
L 357.649166 105.671399 
L 358.021552 105.375531 
L 358.300825 105.40858 
L 358.58381 105.687415 
L 358.92551 106.384679 
L 359.340502 107.813405 
L 359.8185 110.31839 
L 360.378033 114.545904 
L 361.00425 121.062552 
L 361.723139 130.986258 
L 362.582787 146.33552 
L 363.505442 166.86679 
L 364.717144 198.837483 
L 366.425372 243.478409 
L 366.90337 250.563402 
L 367.270205 253.168877 
L 367.622224 254.237017 
L 368.078017 254.881089 
L 368.952481 255.709648 
L 369.504623 255.922884 
L 370.423566 255.994021 
L 373.714008 255.937671 
L 376.604274 255.706033 
L 378.305111 255.363116 
L 379.487149 254.902758 
L 380.387564 254.316663 
L 381.150898 253.554721 
L 381.851224 252.536238 
L 382.536736 251.131341 
L 383.2482 249.125678 
L 384.033739 246.208145 
L 384.982345 241.775825 
L 386.282972 234.540346 
L 388.191288 222.567381 
L 388.802691 218.538075 
L 388.802691 218.538075 
" clip-path="url(#p083d225870)" style="fill: none; stroke: #7cfc00; stroke-width: 1.5; stroke-linecap: square"/>
   </g>
   <g id="line2d_17">
    <path d="M 54 248.928 
L 55.004403 250.677474 
L 55.435919 251.028858 
L 55.737235 251.018203 
L 56.012511 250.771831 
L 56.324986 250.155223 
L 56.6821 248.907546 
L 57.087574 246.607887 
L 57.541407 242.631734 
L 58.0436 236.103958 
L 58.605311 225.6648 
L 59.237737 209.445475 
L 59.955741 184.909723 
L 60.781631 148.579942 
L 61.789813 93.649597 
L 62.764513 42.84223 
L 63.05469 37.414948 
L 63.303946 36.158434 
L 63.56064 35.841689 
L 64.010789 35.717278 
L 66.655869 35.524064 
L 70.841125 35.482872 
L 76.543167 35.628465 
L 80.217628 35.895536 
L 83.025543 36.313705 
L 84.944593 36.822965 
L 86.339253 37.413233 
L 87.45498 38.119521 
L 88.395911 38.978055 
L 89.210393 40.019676 
L 89.980246 41.376643 
L 90.709186 43.128183 
L 91.438129 45.482781 
L 92.200543 48.747393 
L 93.033622 53.370145 
L 94.034056 60.29825 
L 95.473344 72.027083 
L 98.950695 102.741872 
L 107.084352 174.528105 
L 109.866229 196.966783 
L 111.818752 211.037892 
L 113.220854 219.639459 
L 114.262199 224.765614 
L 115.058083 227.675648 
L 115.668012 229.154177 
L 116.125462 229.753996 
L 116.463901 229.880051 
L 116.753991 229.752719 
L 117.07383 229.340618 
L 117.456897 228.443136 
L 117.910626 226.761805 
L 118.438736 223.882059 
L 119.037511 219.301835 
L 119.714385 212.288653 
L 120.465641 202.050571 
L 121.302437 187.459487 
L 122.250805 166.831209 
L 123.347937 137.849383 
L 124.764913 94.03712 
L 126.178163 51.827882 
L 126.683962 42.715135 
L 127.067033 39.293041 
L 127.412905 37.949474 
L 127.762498 37.396089 
L 128.175319 37.156652 
L 128.841035 37.062741 
L 130.421938 37.125882 
L 132.231624 37.401368 
L 133.762037 37.847802 
L 135.002007 38.438815 
L 136.0409 39.183429 
L 136.930851 40.099015 
L 137.738877 41.257489 
L 138.494777 42.738754 
L 139.243227 44.720977 
L 139.995398 47.374071 
L 140.777361 50.979679 
L 141.648691 56.082387 
L 142.728548 63.813285 
L 144.441416 77.962294 
L 149.144364 119.333526 
L 155.664448 176.317278 
L 158.378976 198.07511 
L 160.255687 211.494281 
L 161.633429 219.874875 
L 162.672322 224.929511 
L 163.465456 227.774161 
L 164.064964 229.184989 
L 164.5118 229.745066 
L 164.846926 229.854557 
L 165.13737 229.713808 
L 165.461326 229.278766 
L 165.848587 228.343833 
L 166.310314 226.587799 
L 166.846517 223.591485 
L 167.453467 218.839429 
L 168.131171 211.673997 
L 168.890792 201.138572 
L 169.743501 186.011338 
L 170.700477 164.861618 
L 171.817567 134.953446 
L 173.329359 87.733662 
L 174.554437 51.724225 
L 175.057128 42.708615 
L 175.440659 39.293176 
L 175.786957 37.952046 
L 176.133255 37.40324 
L 176.546578 37.161841 
L 177.216832 37.067004 
L 178.788208 37.130552 
L 180.590443 37.405654 
L 182.105965 37.848817 
L 183.323592 38.424558 
L 184.373657 39.170616 
L 185.256158 40.070794 
L 186.067913 41.223673 
L 186.834975 42.716646 
L 187.579705 44.679311 
L 188.335605 47.332946 
L 189.121289 50.944126 
L 190.007511 56.132986 
L 191.083646 63.843514 
L 192.792794 77.963434 
L 197.763843 121.722842 
L 203.937621 175.664156 
L 206.748958 198.216851 
L 208.648011 211.765241 
L 210.033202 220.1387 
L 211.060925 225.085399 
L 211.846617 227.860651 
L 212.434945 229.216811 
L 212.878052 229.756103 
L 213.209467 229.853632 
L 213.49991 229.704364 
L 213.823866 229.258649 
L 214.214847 228.298753 
L 214.680296 226.501769 
L 215.21277 223.493253 
L 215.819728 218.705837 
L 216.504882 211.40311 
L 217.279386 200.554694 
L 218.128374 185.341821 
L 219.089071 163.946839 
L 220.19499 134.181164 
L 221.714233 86.612466 
L 222.916977 51.416029 
L 223.415938 42.587611 
L 223.795749 39.260715 
L 224.142047 37.940473 
L 224.492074 37.397127 
L 224.905397 37.161931 
L 225.575651 37.069959 
L 227.065093 37.12683 
L 228.934362 37.407932 
L 230.516901 37.875594 
L 231.741987 38.468682 
L 232.777151 39.22047 
L 233.652211 40.129807 
L 234.467686 41.311449 
L 235.234749 42.834921 
L 235.975758 44.819603 
L 236.739091 47.55481 
L 237.528513 51.249502 
L 238.429626 56.609446 
L 239.546716 64.729705 
L 241.22608 78.707168 
L 247.280707 132.142104 
L 252.002268 173.349216 
L 254.947655 197.11408 
L 256.88768 211.077928 
L 258.272871 219.571292 
L 259.308035 224.679655 
L 260.11234 227.631444 
L 260.72301 229.118247 
L 261.184746 229.72822 
L 261.523602 229.855758 
L 261.814046 229.729466 
L 262.134272 229.31793 
L 262.517812 228.420659 
L 262.975819 226.721712 
L 263.512022 223.784315 
L 264.118963 219.107851 
L 264.785505 212.161589 
L 265.552567 201.657527 
L 266.379214 187.175846 
L 267.336182 166.291782 
L 268.434659 137.192454 
L 269.853363 93.217544 
L 271.257167 51.490495 
L 271.759858 42.581249 
L 272.139668 39.258188 
L 272.485966 37.939661 
L 272.835993 37.396924 
L 273.253046 37.160961 
L 273.934471 37.069914 
L 275.476055 37.133868 
L 277.28574 37.410211 
L 278.872008 37.88067 
L 280.097077 38.47633 
L 281.158313 39.254646 
L 282.040813 40.187128 
L 282.845118 41.37071 
L 283.60101 42.888362 
L 284.334577 44.867585 
L 285.094198 47.603041 
L 285.902215 51.410074 
L 286.792175 56.735842 
L 287.931606 65.053308 
L 289.789688 80.603827 
L 294.779367 124.607996 
L 300.215865 172.254774 
L 303.187324 196.316475 
L 305.157132 210.58138 
L 306.560936 219.261574 
L 307.6259 224.568086 
L 308.426476 227.541187 
L 309.044604 229.077323 
L 309.510053 229.713128 
L 309.856351 229.856096 
L 310.146794 229.738355 
L 310.463308 229.343292 
L 310.846831 228.463554 
L 311.297396 226.820533 
L 311.822429 223.998842 
L 312.418216 219.502477 
L 313.092182 212.602057 
L 313.840632 202.515481 
L 314.663566 188.331545 
L 315.624263 167.628763 
L 316.748795 138.049432 
L 318.152599 94.66735 
L 319.578762 52.005147 
L 320.085164 42.817483 
L 320.468704 39.345084 
L 320.815002 37.976341 
L 321.165029 37.411677 
L 321.574623 37.168157 
L 322.237435 37.071358 
L 323.682194 37.121077 
L 325.722756 37.429904 
L 327.156343 37.856848 
L 328.351629 38.423114 
L 329.379352 39.147809 
L 330.273024 40.05004 
L 331.084787 41.194121 
L 331.855579 42.682741 
L 332.611471 44.660633 
L 333.352479 47.253743 
L 334.149325 50.899663 
L 335.024385 56.000139 
L 336.111691 63.775454 
L 337.783597 77.583536 
L 342.702504 120.85569 
L 349.621037 181.087304 
L 352.141913 200.938009 
L 353.985112 213.748116 
L 355.321907 221.497917 
L 356.267721 225.789887 
L 357.001254 228.200975 
L 357.567258 229.378553 
L 357.980581 229.799562 
L 358.297078 229.84171 
L 358.587522 229.647971 
L 358.918085 229.1352 
L 359.318262 228.064394 
L 359.792583 226.110191 
L 360.340978 222.822634 
L 360.956093 217.70941 
L 361.65642 209.899196 
L 362.441993 198.423144 
L 363.290538 182.665464 
L 364.279912 159.989086 
L 365.502717 125.936325 
L 368.285496 44.821273 
L 368.693098 40.125092 
L 369.04883 38.282597 
L 369.393459 37.541975 
L 369.771396 37.228118 
L 370.308689 37.093037 
L 371.453672 37.086111 
L 373.317543 37.28783 
L 374.988717 37.684862 
L 376.367131 38.249661 
L 377.441717 38.929126 
L 378.331029 39.737942 
L 379.16476 40.79691 
L 379.939196 42.148937 
L 380.695139 43.939435 
L 381.465862 46.396675 
L 382.240299 49.656008 
L 383.055502 54.080402 
L 384.052266 60.785155 
L 385.438139 71.752184 
L 388.802691 100.965281 
L 388.802691 100.965281 
" clip-path="url(#p083d225870)" style="fill: none; stroke: #0000ff; stroke-width: 1.5; stroke-linecap: square"/>
   </g>
   <g id="patch_3">
    <path d="M 54 256.32 
L 54 34.56 
" style="fill: none; stroke: #000000; stroke-width: 0.8; stroke-linejoin: miter; stroke-linecap: square"/>
   </g>
   <g id="patch_4">
    <path d="M 388.8 256.32 
L 388.8 34.56 
" style="fill: none; stroke: #000000; stroke-width: 0.8; stroke-linejoin: miter; stroke-linecap: square"/>
   </g>
   <g id="patch_5">
    <path d="M 54 256.32 
L 388.8 256.32 
" style="fill: none; stroke: #000000; stroke-width: 0.8; stroke-linejoin: miter; stroke-linecap: square"/>
   </g>
   <g id="patch_6">
    <path d="M 54 34.56 
L 388.8 34.56 
" style="fill: none; stroke: #000000; stroke-width: 0.8; stroke-linejoin: miter; stroke-linecap: square"/>
   </g>
   <g id="legend_1">
    <g id="patch_7">
     <path d="M 61 71.91625 
L 135.673438 71.91625 
Q 137.673438 71.91625 137.673438 69.91625 
L 137.673438 41.56 
Q 137.673438 39.56 135.673438 39.56 
L 61 39.56 
Q 59 39.56 59 41.56 
L 59 69.91625 
Q 59 71.91625 61 71.91625 
z
" style="fill: #ffffff; opacity: 0.8; stroke: #cccccc; stroke-linejoin: miter"/>
    </g>
    <g id="line2d_18">
     <path d="M 63 47.658437 
L 73 47.658437 
L 83 47.658437 
" style="fill: none; stroke: #7cfc00; stroke-width: 1.5; stroke-linecap: square"/>
    </g>
    <g id="text_18">
     <!-- MAPK -->
     <g transform="translate(91 51.158437) scale(0.1 -0.1)">
      <defs>
       <path id="DejaVuSans-4d" d="M 628 4666 
L 1569 4666 
L 2759 1491 
L 3956 4666 
L 4897 4666 
L 4897 0 
L 4281 0 
L 4281 4097 
L 3078 897 
L 2444 897 
L 1241 4097 
L 1241 0 
L 628 0 
L 628 4666 
z
" transform="scale(0.015625)"/>
       <path id="DejaVuSans-41" d="M 2188 4044 
L 1331 1722 
L 3047 1722 
L 2188 4044 
z
M 1831 4666 
L 2547 4666 
L 4325 0 
L 3669 0 
L 3244 1197 
L 1141 1197 
L 716 0 
L 50 0 
L 1831 4666 
z
" transform="scale(0.015625)"/>
       <path id="DejaVuSans-50" d="M 1259 4147 
L 1259 2394 
L 2053 2394 
Q 2494 2394 2734 2622 
Q 2975 2850 2975 3272 
Q 2975 3691 2734 3919 
Q 2494 4147 2053 4147 
L 1259 4147 
z
M 628 4666 
L 2053 4666 
Q 2838 4666 3239 4311 
Q 3641 3956 3641 3272 
Q 3641 2581 3239 2228 
Q 2838 1875 2053 1875 
L 1259 1875 
L 1259 0 
L 628 0 
L 628 4666 
z
" transform="scale(0.015625)"/>
       <path id="DejaVuSans-4b" d="M 628 4666 
L 1259 4666 
L 1259 2694 
L 3353 4666 
L 4166 4666 
L 1850 2491 
L 4331 0 
L 3500 0 
L 1259 2247 
L 1259 0 
L 628 0 
L 628 4666 
z
" transform="scale(0.015625)"/>
      </defs>
      <use xlink:href="#DejaVuSans-4d"/>
      <use xlink:href="#DejaVuSans-41" x="86.279297"/>
      <use xlink:href="#DejaVuSans-50" x="154.6875"/>
      <use xlink:href="#DejaVuSans-4b" x="214.990234"/>
     </g>
    </g>
    <g id="line2d_19">
     <path d="M 63 62.336562 
L 73 62.336562 
L 83 62.336562 
" style="fill: none; stroke: #0000ff; stroke-width: 1.5; stroke-linecap: square"/>
    </g>
    <g id="text_19">
     <!-- MAPK-PP -->
     <g transform="translate(91 65.836562) scale(0.1 -0.1)">
      <defs>
       <path id="DejaVuSans-2d" d="M 313 2009 
L 1997 2009 
L 1997 1497 
L 313 1497 
L 313 2009 
z
" transform="scale(0.015625)"/>
      </defs>
      <use xlink:href="#DejaVuSans-4d"/>
      <use xlink:href="#DejaVuSans-41" x="86.279297"/>
      <use xlink:href="#DejaVuSans-50" x="154.6875"/>
      <use xlink:href="#DejaVuSans-4b" x="214.990234"/>
      <use xlink:href="#DejaVuSans-2d" x="270.066406"/>
      <use xlink:href="#DejaVuSans-50" x="306.150391"/>
      <use xlink:href="#DejaVuSans-50" x="366.453125"/>
     </g>
    </g>
   </g>
  </g>
 </g>
 <defs>
  <clipPath id="p083d225870">
   <rect x="54" y="34.56" width="334.8" height="221.76"/>
  </clipPath>
 </defs>
</svg>
