<?xml version="1.0" encoding="UTF-8" standalone="no"?>
<svg
   xmlns:dc="http://purl.org/dc/elements/1.1/"
   xmlns:cc="http://creativecommons.org/ns#"
   xmlns:rdf="http://www.w3.org/1999/02/22-rdf-syntax-ns#"
   xmlns:svg="http://www.w3.org/2000/svg"
   xmlns="http://www.w3.org/2000/svg"
   xmlns:sodipodi="http://sodipodi.sourceforge.net/DTD/sodipodi-0.dtd"
   xmlns:inkscape="http://www.inkscape.org/namespaces/inkscape"
   height="100px"
   width="100px"
   fill="#000000"
   data-name="Layer 1"
   viewBox="0 0 1024 1024"
   x="0px"
   y="0px"
   version="1.1"
   id="svg20"
   sodipodi:docname="noun_Science_1983660.svg"
   inkscape:version="0.92.4 (unknown)">
  <metadata
     id="metadata26">
    <rdf:RDF>
      <cc:Work
         rdf:about="">
        <dc:format>image/svg+xml</dc:format>
        <dc:type
           rdf:resource="http://purl.org/dc/dcmitype/StillImage" />
      </cc:Work>
    </rdf:RDF>
  </metadata>
  <defs
     id="defs24" />
  <sodipodi:namedview
     pagecolor="#ffffff"
     bordercolor="#666666"
     borderopacity="1"
     objecttolerance="10"
     gridtolerance="10"
     guidetolerance="10"
     inkscape:pageopacity="0"
     inkscape:pageshadow="2"
     inkscape:window-width="1855"
     inkscape:window-height="1056"
     id="namedview22"
     showgrid="false"
     inkscape:zoom="2.36"
     inkscape:cx="50"
     inkscape:cy="50"
     inkscape:window-x="65"
     inkscape:window-y="24"
     inkscape:window-maximized="1"
     inkscape:current-layer="svg20" />
  <title
     id="title2">icon-01</title>
  <path
     fill="#000000"
     d="M482.5 586.7c-2.9 0-5.9-1.1-8.2-3.2-5-4.6-5.3-12.3-0.8-17.2l160-174.7c4.6-5 12.3-5.3 17.2-0.8 5 4.6 5.3 12.3 0.8 17.2l-160 174.7c-2.4 2.7-5.7 4-9 4z"
     id="path4"
     style="fill:#149178;fill-opacity:1" />
  <path
     fill="#000000"
     d="M481.6 588.2c-4.2 0-8.3-2.2-10.5-6l-151.4-259c-3.4-5.8-1.4-13.3 4.4-16.7 5.8-3.4 13.3-1.4 16.7 4.4l151.4 258.9c3.4 5.8 1.4 13.3-4.4 16.7-2 1.1-4.1 1.7-6.2 1.7zM666.2 427.9c-38 0-68.9-30.9-68.9-68.9s30.9-68.9 68.9-68.9 68.9 30.9 68.9 68.9-30.9 68.9-68.9 68.9z m0-101.2c-17.8 0-32.3 14.5-32.3 32.3s14.5 32.3 32.3 32.3 32.3-14.5 32.3-32.3-14.5-32.3-32.3-32.3z"
     id="path6"
     style="fill:#149178;fill-opacity:1" />
  <path
     fill="#000000"
     d="M305.3 360.3c-54.9 0-101.1-42.9-104.4-98.4-1.7-27.9 7.6-54.8 26.2-75.7 18.5-20.9 44.1-33.4 72.1-35 57.7-3.3 107.3 40.6 110.8 98.2s-40.6 107.3-98.2 110.8c-2.3 0.1-4.4 0.1-6.5 0.1z m0.1-148.3c-0.9 0-1.8 0-2.7 0.1-11.6 0.7-22.3 5.9-30.1 14.6-7.7 8.7-11.6 19.9-10.9 31.6 1.5 24 22.3 42.5 46.2 41 11.6-0.7 22.3-5.9 30.1-14.6 7.7-8.7 11.6-19.9 10.9-31.6-0.7-11.6-5.9-22.3-14.6-30.1-8.1-7.2-18.2-11-28.9-11zM232.3 744.9c-4 0-7.9-2-10.3-5.6-3.7-5.7-2-13.2 3.6-16.9l249.1-160.7c5.7-3.6 13.2-2 16.9 3.6 3.7 5.7 2 13.2-3.6 16.9L238.9 742.9c-2 1.3-4.3 2-6.6 2zM559.7 812.5c-5.2 0-10.1-3.4-11.7-8.6l-53.7-176c-2-6.4 1.7-13.3 8.1-15.2 6.4-2 13.3 1.7 15.2 8.1l53.7 176c2 6.4-1.7 13.3-8.1 15.2-1.1 0.4-2.3 0.5-3.5 0.5z"
     id="path8"
     style="fill:#149178;fill-opacity:1" />
  <path
     fill="#000000"
     d="M559.585273 890.86256a49 49 0 1 0 44.775819-87.172966 49 49 0 1 0-44.775819 87.172966Z"
     id="path10"
     style="fill:#149178;fill-opacity:1" />
  <path
     fill="#000000"
     d="M778.7 667.9c-1.1 0-2.2-0.1-3.2-0.4l-307-84.2c-6.5-1.8-10.3-8.5-8.5-15 1.8-6.5 8.5-10.3 15-8.5L782 644c6.5 1.8 10.3 8.5 8.5 15-1.5 5.4-6.5 8.9-11.8 8.9z"
     id="path12"
     style="fill:#149178;fill-opacity:1" />
  <path
     fill="#000000"
     d="M482.4 576.5m-109.6 0a109.6 109.6 0 1 0 219.2 0 109.6 109.6 0 1 0-219.2 0Z"
     id="path14"
     style="fill:#149178;fill-opacity:1" />
  <path
     fill="#000000"
     d="M844.9 772.6c-27.5 0-53.6-10.3-73.8-29.2-21.1-19.7-33.2-46.5-34.1-75.3-0.9-28.8 9.4-56.3 29.1-77.4 19.7-21.1 46.5-33.2 75.3-34.1 29-1 56.3 9.4 77.4 29.1 21.1 19.7 33.2 46.5 34.1 75.3 1.9 59.6-44.9 109.6-104.5 111.5-1.1 0-2.3 0.1-3.5 0.1z m0.1-155.2h-1.6c-12.6 0.4-24.2 5.7-32.8 14.9-8.6 9.2-13.1 21.1-12.7 33.7 0.4 12.6 5.7 24.2 14.9 32.8 9.2 8.6 21.1 13.1 33.7 12.7 25.9-0.9 46.3-22.6 45.5-48.6-0.4-12.6-5.7-24.2-14.9-32.8-8.8-8.2-20.1-12.7-32.1-12.7z"
     id="path16"
     style="fill:#149178;fill-opacity:1" />
  <path
     fill="#000000"
     d="M177.3 882.4c-27.5 0-53.6-10.3-73.8-29.2-21.1-19.7-33.2-46.5-34.1-75.3-0.9-28.8 9.4-56.3 29.1-77.4 19.7-21.1 46.5-33.2 75.3-34.1 59.7-1.8 109.6 44.9 111.5 104.5 1.9 59.6-44.9 109.6-104.5 111.5h-3.5z m0.2-155.1h-1.6c-12.6 0.4-24.2 5.7-32.8 14.9s-13.1 21.1-12.7 33.7 5.7 24.2 14.9 32.8c9.2 8.6 21.2 13.1 33.7 12.7 25.9-0.9 46.3-22.6 45.5-48.6-0.4-12.6-5.7-24.2-14.9-32.8-8.8-8.2-20.2-12.7-32.1-12.7z"
     id="path18"
     style="fill:#149178;fill-opacity:1" />
</svg>
