<?xml version="1.0" encoding="utf-8" standalone="no"?>
<!DOCTYPE svg PUBLIC "-//W3C//DTD SVG 1.1//EN"
  "http://www.w3.org/Graphics/SVG/1.1/DTD/svg11.dtd">
<svg xmlns:xlink="http://www.w3.org/1999/xlink" width="460.8pt" height="345.6pt" viewBox="0 0 460.8 345.6" xmlns="http://www.w3.org/2000/svg" version="1.1">
 <metadata>
  <rdf:RDF xmlns:dc="http://purl.org/dc/elements/1.1/" xmlns:cc="http://creativecommons.org/ns#" xmlns:rdf="http://www.w3.org/1999/02/22-rdf-syntax-ns#">
   <cc:Work>
    <dc:type rdf:resource="http://purl.org/dc/dcmitype/StillImage"/>
    <dc:date>2023-06-02T15:00:54.698570</dc:date>
    <dc:format>image/svg+xml</dc:format>
    <dc:creator>
     <cc:Agent>
      <dc:title>Matplotlib v3.7.1, https://matplotlib.org/</dc:title>
     </cc:Agent>
    </dc:creator>
   </cc:Work>
  </rdf:RDF>
 </metadata>
 <defs>
  <style type="text/css">*{stroke-linejoin: round; stroke-linecap: butt}</style>
 </defs>
 <g id="figure_1">
  <g id="patch_1">
   <path d="M 0 345.6 
L 460.8 345.6 
L 460.8 0 
L 0 0 
z
" style="fill: #ffffff"/>
  </g>
  <g id="axes_1">
   <g id="patch_2">
    <path d="M 57.6 307.584 
L 414.72 307.584 
L 414.72 41.472 
L 57.6 41.472 
z
" style="fill: #ffffff"/>
   </g>
   <g id="matplotlib.axis_1">
    <g id="xtick_1">
     <g id="line2d_1">
      <defs>
       <path id="m1963685285" d="M 0 0 
L 0 3.5 
" style="stroke: #000000; stroke-width: 0.8"/>
      </defs>
      <g>
       <use xlink:href="#m1963685285" x="73.832727" y="307.584" style="stroke: #000000; stroke-width: 0.8"/>
      </g>
     </g>
     <g id="text_1">
      <!-- 0 -->
      <g transform="translate(70.651477 322.182437) scale(0.1 -0.1)">
       <defs>
        <path id="DejaVuSans-30" d="M 2034 4250 
Q 1547 4250 1301 3770 
Q 1056 3291 1056 2328 
Q 1056 1369 1301 889 
Q 1547 409 2034 409 
Q 2525 409 2770 889 
Q 3016 1369 3016 2328 
Q 3016 3291 2770 3770 
Q 2525 4250 2034 4250 
z
M 2034 4750 
Q 2819 4750 3233 4129 
Q 3647 3509 3647 2328 
Q 3647 1150 3233 529 
Q 2819 -91 2034 -91 
Q 1250 -91 836 529 
Q 422 1150 422 2328 
Q 422 3509 836 4129 
Q 1250 4750 2034 4750 
z
" transform="scale(0.015625)"/>
       </defs>
       <use xlink:href="#DejaVuSans-30"/>
      </g>
     </g>
    </g>
    <g id="xtick_2">
     <g id="line2d_2">
      <g>
       <use xlink:href="#m1963685285" x="138.894005" y="307.584" style="stroke: #000000; stroke-width: 0.8"/>
      </g>
     </g>
     <g id="text_2">
      <!-- 10 -->
      <g transform="translate(132.531505 322.182437) scale(0.1 -0.1)">
       <defs>
        <path id="DejaVuSans-31" d="M 794 531 
L 1825 531 
L 1825 4091 
L 703 3866 
L 703 4441 
L 1819 4666 
L 2450 4666 
L 2450 531 
L 3481 531 
L 3481 0 
L 794 0 
L 794 531 
z
" transform="scale(0.015625)"/>
       </defs>
       <use xlink:href="#DejaVuSans-31"/>
       <use xlink:href="#DejaVuSans-30" x="63.623047"/>
      </g>
     </g>
    </g>
    <g id="xtick_3">
     <g id="line2d_3">
      <g>
       <use xlink:href="#m1963685285" x="203.955283" y="307.584" style="stroke: #000000; stroke-width: 0.8"/>
      </g>
     </g>
     <g id="text_3">
      <!-- 20 -->
      <g transform="translate(197.592783 322.182437) scale(0.1 -0.1)">
       <defs>
        <path id="DejaVuSans-32" d="M 1228 531 
L 3431 531 
L 3431 0 
L 469 0 
L 469 531 
Q 828 903 1448 1529 
Q 2069 2156 2228 2338 
Q 2531 2678 2651 2914 
Q 2772 3150 2772 3378 
Q 2772 3750 2511 3984 
Q 2250 4219 1831 4219 
Q 1534 4219 1204 4116 
Q 875 4013 500 3803 
L 500 4441 
Q 881 4594 1212 4672 
Q 1544 4750 1819 4750 
Q 2544 4750 2975 4387 
Q 3406 4025 3406 3419 
Q 3406 3131 3298 2873 
Q 3191 2616 2906 2266 
Q 2828 2175 2409 1742 
Q 1991 1309 1228 531 
z
" transform="scale(0.015625)"/>
       </defs>
       <use xlink:href="#DejaVuSans-32"/>
       <use xlink:href="#DejaVuSans-30" x="63.623047"/>
      </g>
     </g>
    </g>
    <g id="xtick_4">
     <g id="line2d_4">
      <g>
       <use xlink:href="#m1963685285" x="269.016561" y="307.584" style="stroke: #000000; stroke-width: 0.8"/>
      </g>
     </g>
     <g id="text_4">
      <!-- 30 -->
      <g transform="translate(262.654061 322.182437) scale(0.1 -0.1)">
       <defs>
        <path id="DejaVuSans-33" d="M 2597 2516 
Q 3050 2419 3304 2112 
Q 3559 1806 3559 1356 
Q 3559 666 3084 287 
Q 2609 -91 1734 -91 
Q 1441 -91 1130 -33 
Q 819 25 488 141 
L 488 750 
Q 750 597 1062 519 
Q 1375 441 1716 441 
Q 2309 441 2620 675 
Q 2931 909 2931 1356 
Q 2931 1769 2642 2001 
Q 2353 2234 1838 2234 
L 1294 2234 
L 1294 2753 
L 1863 2753 
Q 2328 2753 2575 2939 
Q 2822 3125 2822 3475 
Q 2822 3834 2567 4026 
Q 2313 4219 1838 4219 
Q 1578 4219 1281 4162 
Q 984 4106 628 3988 
L 628 4550 
Q 988 4650 1302 4700 
Q 1616 4750 1894 4750 
Q 2613 4750 3031 4423 
Q 3450 4097 3450 3541 
Q 3450 3153 3228 2886 
Q 3006 2619 2597 2516 
z
" transform="scale(0.015625)"/>
       </defs>
       <use xlink:href="#DejaVuSans-33"/>
       <use xlink:href="#DejaVuSans-30" x="63.623047"/>
      </g>
     </g>
    </g>
    <g id="xtick_5">
     <g id="line2d_5">
      <g>
       <use xlink:href="#m1963685285" x="334.077839" y="307.584" style="stroke: #000000; stroke-width: 0.8"/>
      </g>
     </g>
     <g id="text_5">
      <!-- 40 -->
      <g transform="translate(327.715339 322.182437) scale(0.1 -0.1)">
       <defs>
        <path id="DejaVuSans-34" d="M 2419 4116 
L 825 1625 
L 2419 1625 
L 2419 4116 
z
M 2253 4666 
L 3047 4666 
L 3047 1625 
L 3713 1625 
L 3713 1100 
L 3047 1100 
L 3047 0 
L 2419 0 
L 2419 1100 
L 313 1100 
L 313 1709 
L 2253 4666 
z
" transform="scale(0.015625)"/>
       </defs>
       <use xlink:href="#DejaVuSans-34"/>
       <use xlink:href="#DejaVuSans-30" x="63.623047"/>
      </g>
     </g>
    </g>
    <g id="xtick_6">
     <g id="line2d_6">
      <g>
       <use xlink:href="#m1963685285" x="399.139117" y="307.584" style="stroke: #000000; stroke-width: 0.8"/>
      </g>
     </g>
     <g id="text_6">
      <!-- 50 -->
      <g transform="translate(392.776617 322.182437) scale(0.1 -0.1)">
       <defs>
        <path id="DejaVuSans-35" d="M 691 4666 
L 3169 4666 
L 3169 4134 
L 1269 4134 
L 1269 2991 
Q 1406 3038 1543 3061 
Q 1681 3084 1819 3084 
Q 2600 3084 3056 2656 
Q 3513 2228 3513 1497 
Q 3513 744 3044 326 
Q 2575 -91 1722 -91 
Q 1428 -91 1123 -41 
Q 819 9 494 109 
L 494 744 
Q 775 591 1075 516 
Q 1375 441 1709 441 
Q 2250 441 2565 725 
Q 2881 1009 2881 1497 
Q 2881 1984 2565 2268 
Q 2250 2553 1709 2553 
Q 1456 2553 1204 2497 
Q 953 2441 691 2322 
L 691 4666 
z
" transform="scale(0.015625)"/>
       </defs>
       <use xlink:href="#DejaVuSans-35"/>
       <use xlink:href="#DejaVuSans-30" x="63.623047"/>
      </g>
     </g>
    </g>
    <g id="text_7">
     <!-- Reaction time (secs) -->
     <g transform="translate(185.032656 335.860562) scale(0.1 -0.1)">
      <defs>
       <path id="DejaVuSans-52" d="M 2841 2188 
Q 3044 2119 3236 1894 
Q 3428 1669 3622 1275 
L 4263 0 
L 3584 0 
L 2988 1197 
Q 2756 1666 2539 1819 
Q 2322 1972 1947 1972 
L 1259 1972 
L 1259 0 
L 628 0 
L 628 4666 
L 2053 4666 
Q 2853 4666 3247 4331 
Q 3641 3997 3641 3322 
Q 3641 2881 3436 2590 
Q 3231 2300 2841 2188 
z
M 1259 4147 
L 1259 2491 
L 2053 2491 
Q 2509 2491 2742 2702 
Q 2975 2913 2975 3322 
Q 2975 3731 2742 3939 
Q 2509 4147 2053 4147 
L 1259 4147 
z
" transform="scale(0.015625)"/>
       <path id="DejaVuSans-65" d="M 3597 1894 
L 3597 1613 
L 953 1613 
Q 991 1019 1311 708 
Q 1631 397 2203 397 
Q 2534 397 2845 478 
Q 3156 559 3463 722 
L 3463 178 
Q 3153 47 2828 -22 
Q 2503 -91 2169 -91 
Q 1331 -91 842 396 
Q 353 884 353 1716 
Q 353 2575 817 3079 
Q 1281 3584 2069 3584 
Q 2775 3584 3186 3129 
Q 3597 2675 3597 1894 
z
M 3022 2063 
Q 3016 2534 2758 2815 
Q 2500 3097 2075 3097 
Q 1594 3097 1305 2825 
Q 1016 2553 972 2059 
L 3022 2063 
z
" transform="scale(0.015625)"/>
       <path id="DejaVuSans-61" d="M 2194 1759 
Q 1497 1759 1228 1600 
Q 959 1441 959 1056 
Q 959 750 1161 570 
Q 1363 391 1709 391 
Q 2188 391 2477 730 
Q 2766 1069 2766 1631 
L 2766 1759 
L 2194 1759 
z
M 3341 1997 
L 3341 0 
L 2766 0 
L 2766 531 
Q 2569 213 2275 61 
Q 1981 -91 1556 -91 
Q 1019 -91 701 211 
Q 384 513 384 1019 
Q 384 1609 779 1909 
Q 1175 2209 1959 2209 
L 2766 2209 
L 2766 2266 
Q 2766 2663 2505 2880 
Q 2244 3097 1772 3097 
Q 1472 3097 1187 3025 
Q 903 2953 641 2809 
L 641 3341 
Q 956 3463 1253 3523 
Q 1550 3584 1831 3584 
Q 2591 3584 2966 3190 
Q 3341 2797 3341 1997 
z
" transform="scale(0.015625)"/>
       <path id="DejaVuSans-63" d="M 3122 3366 
L 3122 2828 
Q 2878 2963 2633 3030 
Q 2388 3097 2138 3097 
Q 1578 3097 1268 2742 
Q 959 2388 959 1747 
Q 959 1106 1268 751 
Q 1578 397 2138 397 
Q 2388 397 2633 464 
Q 2878 531 3122 666 
L 3122 134 
Q 2881 22 2623 -34 
Q 2366 -91 2075 -91 
Q 1284 -91 818 406 
Q 353 903 353 1747 
Q 353 2603 823 3093 
Q 1294 3584 2113 3584 
Q 2378 3584 2631 3529 
Q 2884 3475 3122 3366 
z
" transform="scale(0.015625)"/>
       <path id="DejaVuSans-74" d="M 1172 4494 
L 1172 3500 
L 2356 3500 
L 2356 3053 
L 1172 3053 
L 1172 1153 
Q 1172 725 1289 603 
Q 1406 481 1766 481 
L 2356 481 
L 2356 0 
L 1766 0 
Q 1100 0 847 248 
Q 594 497 594 1153 
L 594 3053 
L 172 3053 
L 172 3500 
L 594 3500 
L 594 4494 
L 1172 4494 
z
" transform="scale(0.015625)"/>
       <path id="DejaVuSans-69" d="M 603 3500 
L 1178 3500 
L 1178 0 
L 603 0 
L 603 3500 
z
M 603 4863 
L 1178 4863 
L 1178 4134 
L 603 4134 
L 603 4863 
z
" transform="scale(0.015625)"/>
       <path id="DejaVuSans-6f" d="M 1959 3097 
Q 1497 3097 1228 2736 
Q 959 2375 959 1747 
Q 959 1119 1226 758 
Q 1494 397 1959 397 
Q 2419 397 2687 759 
Q 2956 1122 2956 1747 
Q 2956 2369 2687 2733 
Q 2419 3097 1959 3097 
z
M 1959 3584 
Q 2709 3584 3137 3096 
Q 3566 2609 3566 1747 
Q 3566 888 3137 398 
Q 2709 -91 1959 -91 
Q 1206 -91 779 398 
Q 353 888 353 1747 
Q 353 2609 779 3096 
Q 1206 3584 1959 3584 
z
" transform="scale(0.015625)"/>
       <path id="DejaVuSans-6e" d="M 3513 2113 
L 3513 0 
L 2938 0 
L 2938 2094 
Q 2938 2591 2744 2837 
Q 2550 3084 2163 3084 
Q 1697 3084 1428 2787 
Q 1159 2491 1159 1978 
L 1159 0 
L 581 0 
L 581 3500 
L 1159 3500 
L 1159 2956 
Q 1366 3272 1645 3428 
Q 1925 3584 2291 3584 
Q 2894 3584 3203 3211 
Q 3513 2838 3513 2113 
z
" transform="scale(0.015625)"/>
       <path id="DejaVuSans-20" transform="scale(0.015625)"/>
       <path id="DejaVuSans-6d" d="M 3328 2828 
Q 3544 3216 3844 3400 
Q 4144 3584 4550 3584 
Q 5097 3584 5394 3201 
Q 5691 2819 5691 2113 
L 5691 0 
L 5113 0 
L 5113 2094 
Q 5113 2597 4934 2840 
Q 4756 3084 4391 3084 
Q 3944 3084 3684 2787 
Q 3425 2491 3425 1978 
L 3425 0 
L 2847 0 
L 2847 2094 
Q 2847 2600 2669 2842 
Q 2491 3084 2119 3084 
Q 1678 3084 1418 2786 
Q 1159 2488 1159 1978 
L 1159 0 
L 581 0 
L 581 3500 
L 1159 3500 
L 1159 2956 
Q 1356 3278 1631 3431 
Q 1906 3584 2284 3584 
Q 2666 3584 2933 3390 
Q 3200 3197 3328 2828 
z
" transform="scale(0.015625)"/>
       <path id="DejaVuSans-28" d="M 1984 4856 
Q 1566 4138 1362 3434 
Q 1159 2731 1159 2009 
Q 1159 1288 1364 580 
Q 1569 -128 1984 -844 
L 1484 -844 
Q 1016 -109 783 600 
Q 550 1309 550 2009 
Q 550 2706 781 3412 
Q 1013 4119 1484 4856 
L 1984 4856 
z
" transform="scale(0.015625)"/>
       <path id="DejaVuSans-73" d="M 2834 3397 
L 2834 2853 
Q 2591 2978 2328 3040 
Q 2066 3103 1784 3103 
Q 1356 3103 1142 2972 
Q 928 2841 928 2578 
Q 928 2378 1081 2264 
Q 1234 2150 1697 2047 
L 1894 2003 
Q 2506 1872 2764 1633 
Q 3022 1394 3022 966 
Q 3022 478 2636 193 
Q 2250 -91 1575 -91 
Q 1294 -91 989 -36 
Q 684 19 347 128 
L 347 722 
Q 666 556 975 473 
Q 1284 391 1588 391 
Q 1994 391 2212 530 
Q 2431 669 2431 922 
Q 2431 1156 2273 1281 
Q 2116 1406 1581 1522 
L 1381 1569 
Q 847 1681 609 1914 
Q 372 2147 372 2553 
Q 372 3047 722 3315 
Q 1072 3584 1716 3584 
Q 2034 3584 2315 3537 
Q 2597 3491 2834 3397 
z
" transform="scale(0.015625)"/>
       <path id="DejaVuSans-29" d="M 513 4856 
L 1013 4856 
Q 1481 4119 1714 3412 
Q 1947 2706 1947 2009 
Q 1947 1309 1714 600 
Q 1481 -109 1013 -844 
L 513 -844 
Q 928 -128 1133 580 
Q 1338 1288 1338 2009 
Q 1338 2731 1133 3434 
Q 928 4138 513 4856 
z
" transform="scale(0.015625)"/>
      </defs>
      <use xlink:href="#DejaVuSans-52"/>
      <use xlink:href="#DejaVuSans-65" x="64.982422"/>
      <use xlink:href="#DejaVuSans-61" x="126.505859"/>
      <use xlink:href="#DejaVuSans-63" x="187.785156"/>
      <use xlink:href="#DejaVuSans-74" x="242.765625"/>
      <use xlink:href="#DejaVuSans-69" x="281.974609"/>
      <use xlink:href="#DejaVuSans-6f" x="309.757812"/>
      <use xlink:href="#DejaVuSans-6e" x="370.939453"/>
      <use xlink:href="#DejaVuSans-20" x="434.318359"/>
      <use xlink:href="#DejaVuSans-74" x="466.105469"/>
      <use xlink:href="#DejaVuSans-69" x="505.314453"/>
      <use xlink:href="#DejaVuSans-6d" x="533.097656"/>
      <use xlink:href="#DejaVuSans-65" x="630.509766"/>
      <use xlink:href="#DejaVuSans-20" x="692.033203"/>
      <use xlink:href="#DejaVuSans-28" x="723.820312"/>
      <use xlink:href="#DejaVuSans-73" x="762.833984"/>
      <use xlink:href="#DejaVuSans-65" x="814.933594"/>
      <use xlink:href="#DejaVuSans-63" x="876.457031"/>
      <use xlink:href="#DejaVuSans-73" x="931.4375"/>
      <use xlink:href="#DejaVuSans-29" x="983.537109"/>
     </g>
    </g>
   </g>
   <g id="matplotlib.axis_2">
    <g id="ytick_1">
     <g id="line2d_7">
      <defs>
       <path id="mfaa67cb715" d="M 0 0 
L -3.5 0 
" style="stroke: #000000; stroke-width: 0.8"/>
      </defs>
      <g>
       <use xlink:href="#mfaa67cb715" x="57.6" y="295.497082" style="stroke: #000000; stroke-width: 0.8"/>
      </g>
     </g>
     <g id="text_8">
      <!-- 0 -->
      <g transform="translate(44.2375 299.296301) scale(0.1 -0.1)">
       <use xlink:href="#DejaVuSans-30"/>
      </g>
     </g>
    </g>
    <g id="ytick_2">
     <g id="line2d_8">
      <g>
       <use xlink:href="#mfaa67cb715" x="57.6" y="247.111543" style="stroke: #000000; stroke-width: 0.8"/>
      </g>
     </g>
     <g id="text_9">
      <!-- 200 -->
      <g transform="translate(31.5125 250.910762) scale(0.1 -0.1)">
       <use xlink:href="#DejaVuSans-32"/>
       <use xlink:href="#DejaVuSans-30" x="63.623047"/>
       <use xlink:href="#DejaVuSans-30" x="127.246094"/>
      </g>
     </g>
    </g>
    <g id="ytick_3">
     <g id="line2d_9">
      <g>
       <use xlink:href="#mfaa67cb715" x="57.6" y="198.726004" style="stroke: #000000; stroke-width: 0.8"/>
      </g>
     </g>
     <g id="text_10">
      <!-- 400 -->
      <g transform="translate(31.5125 202.525223) scale(0.1 -0.1)">
       <use xlink:href="#DejaVuSans-34"/>
       <use xlink:href="#DejaVuSans-30" x="63.623047"/>
       <use xlink:href="#DejaVuSans-30" x="127.246094"/>
      </g>
     </g>
    </g>
    <g id="ytick_4">
     <g id="line2d_10">
      <g>
       <use xlink:href="#mfaa67cb715" x="57.6" y="150.340466" style="stroke: #000000; stroke-width: 0.8"/>
      </g>
     </g>
     <g id="text_11">
      <!-- 600 -->
      <g transform="translate(31.5125 154.139684) scale(0.1 -0.1)">
       <defs>
        <path id="DejaVuSans-36" d="M 2113 2584 
Q 1688 2584 1439 2293 
Q 1191 2003 1191 1497 
Q 1191 994 1439 701 
Q 1688 409 2113 409 
Q 2538 409 2786 701 
Q 3034 994 3034 1497 
Q 3034 2003 2786 2293 
Q 2538 2584 2113 2584 
z
M 3366 4563 
L 3366 3988 
Q 3128 4100 2886 4159 
Q 2644 4219 2406 4219 
Q 1781 4219 1451 3797 
Q 1122 3375 1075 2522 
Q 1259 2794 1537 2939 
Q 1816 3084 2150 3084 
Q 2853 3084 3261 2657 
Q 3669 2231 3669 1497 
Q 3669 778 3244 343 
Q 2819 -91 2113 -91 
Q 1303 -91 875 529 
Q 447 1150 447 2328 
Q 447 3434 972 4092 
Q 1497 4750 2381 4750 
Q 2619 4750 2861 4703 
Q 3103 4656 3366 4563 
z
" transform="scale(0.015625)"/>
       </defs>
       <use xlink:href="#DejaVuSans-36"/>
       <use xlink:href="#DejaVuSans-30" x="63.623047"/>
       <use xlink:href="#DejaVuSans-30" x="127.246094"/>
      </g>
     </g>
    </g>
    <g id="ytick_5">
     <g id="line2d_11">
      <g>
       <use xlink:href="#mfaa67cb715" x="57.6" y="101.954927" style="stroke: #000000; stroke-width: 0.8"/>
      </g>
     </g>
     <g id="text_12">
      <!-- 800 -->
      <g transform="translate(31.5125 105.754146) scale(0.1 -0.1)">
       <defs>
        <path id="DejaVuSans-38" d="M 2034 2216 
Q 1584 2216 1326 1975 
Q 1069 1734 1069 1313 
Q 1069 891 1326 650 
Q 1584 409 2034 409 
Q 2484 409 2743 651 
Q 3003 894 3003 1313 
Q 3003 1734 2745 1975 
Q 2488 2216 2034 2216 
z
M 1403 2484 
Q 997 2584 770 2862 
Q 544 3141 544 3541 
Q 544 4100 942 4425 
Q 1341 4750 2034 4750 
Q 2731 4750 3128 4425 
Q 3525 4100 3525 3541 
Q 3525 3141 3298 2862 
Q 3072 2584 2669 2484 
Q 3125 2378 3379 2068 
Q 3634 1759 3634 1313 
Q 3634 634 3220 271 
Q 2806 -91 2034 -91 
Q 1263 -91 848 271 
Q 434 634 434 1313 
Q 434 1759 690 2068 
Q 947 2378 1403 2484 
z
M 1172 3481 
Q 1172 3119 1398 2916 
Q 1625 2713 2034 2713 
Q 2441 2713 2670 2916 
Q 2900 3119 2900 3481 
Q 2900 3844 2670 4047 
Q 2441 4250 2034 4250 
Q 1625 4250 1398 4047 
Q 1172 3844 1172 3481 
z
" transform="scale(0.015625)"/>
       </defs>
       <use xlink:href="#DejaVuSans-38"/>
       <use xlink:href="#DejaVuSans-30" x="63.623047"/>
       <use xlink:href="#DejaVuSans-30" x="127.246094"/>
      </g>
     </g>
    </g>
    <g id="ytick_6">
     <g id="line2d_12">
      <g>
       <use xlink:href="#mfaa67cb715" x="57.6" y="53.569388" style="stroke: #000000; stroke-width: 0.8"/>
      </g>
     </g>
     <g id="text_13">
      <!-- 1000 -->
      <g transform="translate(25.15 57.368607) scale(0.1 -0.1)">
       <use xlink:href="#DejaVuSans-31"/>
       <use xlink:href="#DejaVuSans-30" x="63.623047"/>
       <use xlink:href="#DejaVuSans-30" x="127.246094"/>
       <use xlink:href="#DejaVuSans-30" x="190.869141"/>
      </g>
     </g>
    </g>
    <g id="text_14">
     <!-- Concentration (nM) -->
     <g transform="translate(19.070312 222.872531) rotate(-90) scale(0.1 -0.1)">
      <defs>
       <path id="DejaVuSans-43" d="M 4122 4306 
L 4122 3641 
Q 3803 3938 3442 4084 
Q 3081 4231 2675 4231 
Q 1875 4231 1450 3742 
Q 1025 3253 1025 2328 
Q 1025 1406 1450 917 
Q 1875 428 2675 428 
Q 3081 428 3442 575 
Q 3803 722 4122 1019 
L 4122 359 
Q 3791 134 3420 21 
Q 3050 -91 2638 -91 
Q 1578 -91 968 557 
Q 359 1206 359 2328 
Q 359 3453 968 4101 
Q 1578 4750 2638 4750 
Q 3056 4750 3426 4639 
Q 3797 4528 4122 4306 
z
" transform="scale(0.015625)"/>
       <path id="DejaVuSans-72" d="M 2631 2963 
Q 2534 3019 2420 3045 
Q 2306 3072 2169 3072 
Q 1681 3072 1420 2755 
Q 1159 2438 1159 1844 
L 1159 0 
L 581 0 
L 581 3500 
L 1159 3500 
L 1159 2956 
Q 1341 3275 1631 3429 
Q 1922 3584 2338 3584 
Q 2397 3584 2469 3576 
Q 2541 3569 2628 3553 
L 2631 2963 
z
" transform="scale(0.015625)"/>
       <path id="DejaVuSans-4d" d="M 628 4666 
L 1569 4666 
L 2759 1491 
L 3956 4666 
L 4897 4666 
L 4897 0 
L 4281 0 
L 4281 4097 
L 3078 897 
L 2444 897 
L 1241 4097 
L 1241 0 
L 628 0 
L 628 4666 
z
" transform="scale(0.015625)"/>
      </defs>
      <use xlink:href="#DejaVuSans-43"/>
      <use xlink:href="#DejaVuSans-6f" x="69.824219"/>
      <use xlink:href="#DejaVuSans-6e" x="131.005859"/>
      <use xlink:href="#DejaVuSans-63" x="194.384766"/>
      <use xlink:href="#DejaVuSans-65" x="249.365234"/>
      <use xlink:href="#DejaVuSans-6e" x="310.888672"/>
      <use xlink:href="#DejaVuSans-74" x="374.267578"/>
      <use xlink:href="#DejaVuSans-72" x="413.476562"/>
      <use xlink:href="#DejaVuSans-61" x="454.589844"/>
      <use xlink:href="#DejaVuSans-74" x="515.869141"/>
      <use xlink:href="#DejaVuSans-69" x="555.078125"/>
      <use xlink:href="#DejaVuSans-6f" x="582.861328"/>
      <use xlink:href="#DejaVuSans-6e" x="644.042969"/>
      <use xlink:href="#DejaVuSans-20" x="707.421875"/>
      <use xlink:href="#DejaVuSans-28" x="739.208984"/>
      <use xlink:href="#DejaVuSans-6e" x="778.222656"/>
      <use xlink:href="#DejaVuSans-4d" x="841.601562"/>
      <use xlink:href="#DejaVuSans-29" x="927.880859"/>
     </g>
    </g>
   </g>
   <g id="line2d_13">
    <path d="M 73.832727 295.255154 
L 76.435178 295.373116 
L 81.640082 295.474661 
L 104.411514 295.48228 
L 125.231103 295.365382 
L 130.436019 295.130266 
L 133.03848 294.822896 
L 134.990326 294.385981 
L 136.291556 293.91504 
L 137.592787 293.208762 
L 138.894018 292.138725 
L 139.544633 291.410282 
L 140.195248 290.514751 
L 140.845863 289.422156 
L 142.147094 286.562159 
L 143.448324 282.835263 
L 146.050785 274.653931 
L 146.701401 273.091357 
L 147.352016 271.969521 
L 148.002631 271.379317 
L 148.653246 271.368012 
L 149.303862 271.931517 
L 149.954477 273.015893 
L 150.605092 274.527286 
L 151.906323 278.351811 
L 153.858169 284.389047 
L 155.159399 287.733266 
L 156.46063 290.274734 
L 157.76186 292.055249 
L 159.063091 293.23458 
L 160.364321 293.996749 
L 161.665552 294.487488 
L 163.617397 294.920059 
L 166.219858 295.201499 
L 170.12355 295.365453 
L 178.581548 295.439773 
L 192.895084 295.349441 
L 198.100006 295.139005 
L 201.353083 294.779847 
L 203.304928 294.351111 
L 204.606159 293.897382 
L 205.907389 293.227208 
L 207.20862 292.227317 
L 208.50985 290.732778 
L 209.811081 288.548857 
L 211.112311 285.578685 
L 214.365388 276.832679 
L 215.016003 275.578676 
L 215.666618 274.735394 
L 216.317234 274.372262 
L 216.967849 274.517935 
L 217.618464 275.155646 
L 218.269079 276.226834 
L 219.57031 279.293224 
L 222.172771 286.281606 
L 223.474001 289.089313 
L 224.775232 291.18321 
L 226.076462 292.629417 
L 227.377693 293.584881 
L 228.678923 294.206802 
L 229.980154 294.611945 
L 231.932 294.975088 
L 234.534461 295.217381 
L 239.088768 295.375902 
L 248.847997 295.430584 
L 260.559071 295.317051 
L 265.113378 295.102411 
L 267.715839 294.81606 
L 269.667685 294.423628 
L 270.968915 294.01167 
L 272.270146 293.407109 
L 273.571376 292.510204 
L 274.872607 291.173463 
L 276.173837 289.210046 
L 277.475068 286.489941 
L 279.426914 281.335926 
L 280.728144 277.984447 
L 281.37876 276.64141 
L 282.029362 275.660547 
L 282.679965 275.121704 
L 283.330568 275.069081 
L 283.981171 275.503769 
L 284.631774 276.384172 
L 285.282377 277.633731 
L 286.583582 280.83886 
L 288.535391 285.953252 
L 289.836597 288.797686 
L 291.137802 290.956415 
L 292.439008 292.466364 
L 293.740214 293.471422 
L 295.041419 294.128246 
L 296.342625 294.55715 
L 298.294434 294.942305 
L 300.896845 295.199767 
L 305.451065 295.368607 
L 315.210108 295.427656 
L 326.920959 295.311273 
L 331.475179 295.090199 
L 334.07759 294.795157 
L 336.029399 294.390765 
L 337.330605 293.966237 
L 338.63181 293.343307 
L 339.933016 292.419518 
L 341.234222 291.044599 
L 342.535428 289.03334 
L 343.836633 286.271335 
L 345.788442 281.129778 
L 347.089648 277.874599 
L 347.74025 276.607806 
L 348.390853 275.716844 
L 349.041456 275.274829 
L 349.692059 275.31749 
L 350.342662 275.837444 
L 350.993265 276.786024 
L 352.29447 279.62612 
L 355.547485 287.798665 
L 356.84869 290.213381 
L 358.149896 291.953329 
L 359.451102 293.130427 
L 360.752307 293.903869 
L 362.053513 294.408998 
L 364.005322 294.8613 
L 366.607733 295.161782 
L 370.51135 295.341664 
L 378.318584 295.424669 
L 391.330641 295.349768 
L 397.186067 295.120111 
L 398.487273 295.009313 
L 398.487273 295.009313 
" clip-path="url(#pfb953fc6d0)" style="fill: none; stroke: #cc79a7; stroke-width: 1.5; stroke-linecap: square"/>
   </g>
   <g id="line2d_14">
    <path d="M 73.832727 293.319733 
L 82.290695 293.968889 
L 92.049882 294.481361 
L 104.411514 294.891654 
L 120.676818 295.190611 
L 140.845863 295.3433 
L 145.40017 295.175016 
L 149.954477 294.800979 
L 155.810014 294.313129 
L 158.412475 294.3387 
L 175.328472 294.921724 
L 192.244469 295.213657 
L 209.811081 295.325456 
L 214.365388 295.123359 
L 219.57031 294.655806 
L 223.474001 294.353619 
L 226.076462 294.370574 
L 244.29369 294.966438 
L 261.860302 295.242705 
L 277.475068 295.297255 
L 282.029362 295.046537 
L 291.137802 294.344706 
L 295.692022 294.504309 
L 308.053476 294.905066 
L 324.318548 295.197397 
L 342.535428 295.326255 
L 347.089648 295.131689 
L 352.29447 294.66893 
L 356.198087 294.365066 
L 358.800499 294.379662 
L 377.667981 294.98457 
L 395.234258 295.251395 
L 398.487273 295.282663 
L 398.487273 295.282663 
" clip-path="url(#pfb953fc6d0)" style="fill: none; stroke: #0072b2; stroke-width: 1.5; stroke-linecap: square"/>
   </g>
   <g id="line2d_15">
    <path d="M 73.832727 295.255154 
L 74.48334 292.123988 
L 75.133953 289.891043 
L 75.784566 288.320961 
L 76.435178 287.239511 
L 77.085791 286.517729 
L 77.736404 286.060164 
L 78.387017 285.796202 
L 79.688243 285.653718 
L 80.989469 285.815371 
L 82.941308 286.319503 
L 93.351106 289.432536 
L 98.556003 290.618569 
L 103.760902 291.573485 
L 109.616411 292.426343 
L 116.122533 293.158386 
L 123.929879 293.810331 
L 133.03848 294.344986 
L 140.845863 294.622342 
L 142.797709 294.535415 
L 144.749555 294.263283 
L 146.701401 293.793682 
L 148.653246 293.107308 
L 151.255707 291.881595 
L 155.810014 289.581659 
L 157.111245 289.160821 
L 158.412475 288.974292 
L 159.713706 288.996727 
L 161.665552 289.264576 
L 166.870474 290.344976 
L 172.726011 291.452122 
L 178.581548 292.330522 
L 185.087701 293.085347 
L 192.895084 293.757653 
L 202.003698 294.308951 
L 209.160466 294.57261 
L 211.112311 294.492315 
L 213.064157 294.219417 
L 215.016003 293.739071 
L 216.967849 293.03771 
L 219.57031 291.799762 
L 223.474001 289.837359 
L 224.775232 289.399379 
L 226.076462 289.192057 
L 227.377693 289.194849 
L 229.329539 289.439477 
L 233.883846 290.348039 
L 239.739383 291.449387 
L 245.59492 292.328032 
L 252.101073 293.083434 
L 259.908456 293.75627 
L 269.01707 294.307962 
L 276.173837 294.556521 
L 278.125683 294.446123 
L 280.077529 294.135933 
L 282.029362 293.61352 
L 283.981171 292.86865 
L 286.583582 291.594102 
L 289.836597 289.957469 
L 291.137802 289.492716 
L 292.439008 289.253312 
L 293.740214 289.230386 
L 295.692022 289.452988 
L 300.246242 290.347508 
L 306.752271 291.555828 
L 312.607696 292.411554 
L 319.113725 293.147052 
L 326.920959 293.802145 
L 336.029399 294.339175 
L 342.535428 294.55021 
L 344.487236 294.42953 
L 346.439045 294.106936 
L 348.390853 293.570558 
L 350.342662 292.811695 
L 352.945073 291.526557 
L 356.198087 289.906847 
L 357.499293 289.465535 
L 358.800499 289.25321 
L 360.101705 289.250712 
L 362.053513 289.488769 
L 366.607733 290.387233 
L 372.463159 291.479831 
L 378.318584 292.351821 
L 384.824613 293.101543 
L 392.631847 293.769323 
L 398.487273 294.144857 
L 398.487273 294.144857 
" clip-path="url(#pfb953fc6d0)" style="fill: none; stroke: #e69f00; stroke-width: 1.5; stroke-linecap: square"/>
   </g>
   <g id="line2d_16">
    <path d="M 73.832727 53.569388 
L 75.784566 53.650469 
L 79.03763 54.187807 
L 88.146209 55.729993 
L 94.001718 56.475474 
L 99.857228 56.980932 
L 106.363351 57.302493 
L 114.821309 57.482078 
L 129.785404 57.536875 
L 152.556938 57.618325 
L 156.46063 57.935737 
L 168.82232 59.2256 
L 175.328472 59.570447 
L 183.78647 59.766954 
L 198.100006 59.830419 
L 220.87154 59.922279 
L 224.775232 60.24542 
L 235.835691 61.359965 
L 242.341844 61.705728 
L 250.799842 61.902707 
L 265.113378 61.96632 
L 287.234185 62.046367 
L 291.137802 62.35393 
L 302.848654 63.506305 
L 309.354682 63.830908 
L 317.812519 64.013181 
L 332.776385 64.068893 
L 353.595676 64.156634 
L 357.499293 64.470782 
L 368.559542 65.56966 
L 375.06557 65.909295 
L 383.523407 66.101535 
L 397.83667 66.162799 
L 398.487273 66.162534 
L 398.487273 66.162534 
" clip-path="url(#pfb953fc6d0)" style="fill: none; stroke: #009e73; stroke-width: 1.5; stroke-linecap: square"/>
   </g>
   <g id="line2d_17">
    <path d="M 73.832727 247.111543 
L 74.48334 247.146107 
L 75.133953 246.969353 
L 75.784566 246.363264 
L 77.085791 244.4856 
L 84.893146 231.774185 
L 87.495597 228.23476 
L 89.447433 225.912688 
L 91.39927 223.893173 
L 93.351106 222.182846 
L 95.302942 220.779742 
L 97.254779 219.673548 
L 99.206615 218.846469 
L 101.158453 218.274793 
L 103.11029 217.930713 
L 105.062126 217.78478 
L 107.664575 217.847307 
L 110.267024 218.143441 
L 113.520084 218.754971 
L 117.423757 219.725369 
L 123.279267 221.439248 
L 144.09894 227.753451 
L 148.002631 228.716142 
L 149.954477 228.994468 
L 151.255707 229.000042 
L 152.556938 228.788075 
L 153.858169 228.314342 
L 155.159399 227.573704 
L 156.46063 226.6027 
L 159.063091 224.27467 
L 161.665552 221.957582 
L 163.617397 220.446531 
L 165.569243 219.193605 
L 167.521089 218.211956 
L 169.472935 217.493578 
L 171.424781 217.018316 
L 173.376626 216.760382 
L 175.328472 216.690656 
L 177.930933 216.840599 
L 180.533394 217.209788 
L 183.78647 217.895946 
L 188.340777 219.125859 
L 195.497545 221.355325 
L 210.461696 226.074642 
L 215.666618 227.503941 
L 217.618464 227.862056 
L 218.919695 227.949272 
L 220.220925 227.842528 
L 221.522156 227.488489 
L 222.823386 226.86832 
L 224.124617 226.008047 
L 226.076462 224.423291 
L 229.980154 221.194721 
L 231.932 219.862827 
L 233.883846 218.790129 
L 235.835691 217.980608 
L 237.787537 217.420367 
L 239.739383 217.085982 
L 241.691229 216.949632 
L 244.29369 217.02581 
L 246.896151 217.337249 
L 250.149227 217.96991 
L 254.052919 218.967714 
L 259.908456 220.724761 
L 280.077529 226.983614 
L 283.330568 227.762451 
L 285.282377 227.985995 
L 286.583582 227.921785 
L 287.884788 227.619235 
L 289.185994 227.051863 
L 290.487199 226.237904 
L 292.439008 224.699262 
L 296.342625 221.494119 
L 298.294434 220.159493 
L 300.246242 219.081103 
L 302.198051 218.264781 
L 304.149859 217.697416 
L 306.101668 217.355972 
L 308.053476 217.212859 
L 310.655888 217.280414 
L 313.258299 217.583629 
L 316.511314 218.206559 
L 320.414931 219.19345 
L 326.270356 220.935525 
L 346.439045 227.147931 
L 349.692059 227.909529 
L 351.643867 228.109802 
L 352.945073 228.02246 
L 354.246279 227.692571 
L 355.547485 227.097992 
L 356.84869 226.261906 
L 358.800499 224.707944 
L 362.704116 221.525364 
L 364.655924 220.212473 
L 366.607733 219.156978 
L 368.559542 218.362644 
L 370.51135 217.815257 
L 372.463159 217.491215 
L 374.414967 217.362639 
L 377.017379 217.445484 
L 379.61979 217.759367 
L 382.872804 218.390448 
L 386.776421 219.381179 
L 392.631847 221.121201 
L 398.487273 222.968491 
L 398.487273 222.968491 
" clip-path="url(#pfb953fc6d0)" style="fill: none; stroke: #7f7f7f; stroke-width: 1.5; stroke-linecap: square"/>
   </g>
   <g id="line2d_18">
    <path d="M 73.832727 229.499461 
L 75.784566 231.28477 
L 77.736404 232.77371 
L 79.688243 233.913534 
L 80.989469 234.458964 
L 82.290695 234.822402 
L 83.591921 234.998111 
L 84.893146 234.983323 
L 86.194372 234.778266 
L 87.495597 234.386182 
L 88.796821 233.813254 
L 90.748657 232.635277 
L 92.700494 231.113085 
L 94.65233 229.300613 
L 97.254779 226.544596 
L 107.013963 215.713776 
L 108.965799 214.020703 
L 110.917636 212.642856 
L 112.869472 211.629031 
L 114.170697 211.173697 
L 115.471921 210.903588 
L 116.773145 210.822965 
L 118.07437 210.933098 
L 119.375594 211.232251 
L 120.676818 211.715708 
L 121.978042 212.375849 
L 123.929879 213.673833 
L 125.881715 215.299314 
L 127.833558 217.194741 
L 130.436019 220.024708 
L 138.243402 228.849177 
L 140.195248 230.719694 
L 142.147094 232.313842 
L 144.09894 233.575161 
L 145.40017 234.208538 
L 146.701401 234.663873 
L 148.002631 234.933974 
L 149.303862 235.014582 
L 150.605092 234.904435 
L 151.906323 234.605266 
L 153.207553 234.121791 
L 154.508784 233.46164 
L 156.46063 232.163641 
L 158.412475 230.538115 
L 160.364321 228.64268 
L 162.966782 225.812685 
L 170.774165 216.988238 
L 172.726011 215.117735 
L 174.677857 213.52361 
L 176.629703 212.262312 
L 177.930933 211.628957 
L 179.232164 211.173645 
L 180.533394 210.903558 
L 181.834625 210.822965 
L 183.135855 210.933127 
L 184.437086 211.232325 
L 185.738316 211.715812 
L 187.039547 212.375981 
L 188.991393 213.67401 
L 190.943238 215.299535 
L 192.895084 217.195 
L 195.497545 220.024988 
L 203.304928 228.849428 
L 205.256774 230.719908 
L 207.20862 232.314034 
L 209.160466 233.575309 
L 210.461696 234.208649 
L 211.762927 234.663939 
L 213.064157 234.934004 
L 214.365388 235.014582 
L 215.666618 234.904402 
L 216.967849 234.605193 
L 218.269079 234.121684 
L 219.57031 233.461492 
L 221.522156 232.163442 
L 223.474001 230.537894 
L 225.425847 228.642429 
L 228.028308 225.812411 
L 235.835691 216.987987 
L 237.787537 215.117536 
L 239.739383 213.523433 
L 241.691229 212.262179 
L 242.992459 211.628854 
L 244.29369 211.173571 
L 245.59492 210.903529 
L 246.896151 210.822965 
L 248.197381 210.933164 
L 249.498612 211.232392 
L 250.799842 211.715922 
L 252.101073 212.376122 
L 254.052919 213.674194 
L 256.004764 215.299779 
L 257.95661 217.195251 
L 260.559071 220.025284 
L 268.366454 228.849694 
L 270.3183 230.72013 
L 272.270146 232.314211 
L 274.221992 233.575442 
L 275.523222 234.208749 
L 276.824453 234.66401 
L 278.125683 234.934041 
L 279.426914 235.014579 
L 280.728144 234.904357 
L 282.029362 234.605119 
L 283.330568 234.121588 
L 284.631774 233.461381 
L 286.583582 232.163331 
L 288.535391 230.537798 
L 290.487199 228.642348 
L 293.089611 225.812382 
L 300.896845 216.988105 
L 302.848654 215.117654 
L 304.800462 213.523573 
L 306.752271 212.262305 
L 308.053476 211.62895 
L 309.354682 211.173652 
L 310.655888 210.903566 
L 311.957094 210.822965 
L 313.258299 210.93312 
L 314.559505 211.232281 
L 315.860711 211.71573 
L 317.161916 212.375878 
L 319.113725 213.67384 
L 321.065533 215.299299 
L 323.017342 217.194668 
L 325.619753 220.024619 
L 333.426988 228.848918 
L 335.378796 230.719414 
L 337.330605 232.313605 
L 339.282413 233.574966 
L 340.583619 234.208372 
L 341.884825 234.663755 
L 343.18603 234.933915 
L 344.487236 235.01459 
L 345.788442 234.904516 
L 347.089648 234.605421 
L 348.390853 234.12202 
L 349.692059 233.461957 
L 351.643867 232.164054 
L 353.595676 230.538669 
L 355.547485 228.643352 
L 358.149896 225.813541 
L 365.95713 216.989101 
L 367.908939 215.118547 
L 369.860747 213.524304 
L 371.812556 212.262858 
L 373.113762 211.629371 
L 374.414967 211.173933 
L 375.716173 210.903706 
L 377.017379 210.82295 
L 378.318584 210.932958 
L 379.61979 211.231978 
L 380.920996 211.715295 
L 382.222201 212.375302 
L 384.17401 213.673087 
L 386.125819 215.298391 
L 388.077627 217.193678 
L 390.680039 220.02349 
L 398.487273 228.8479 
L 398.487273 228.8479 
" clip-path="url(#pfb953fc6d0)" style="fill: none; stroke-dasharray: 1.5,2.475; stroke-dashoffset: 0; stroke: #7f7f7f; stroke-width: 1.5"/>
   </g>
   <g id="patch_3">
    <path d="M 57.6 307.584 
L 57.6 41.472 
" style="fill: none; stroke: #000000; stroke-width: 0.8; stroke-linejoin: miter; stroke-linecap: square"/>
   </g>
   <g id="patch_4">
    <path d="M 414.72 307.584 
L 414.72 41.472 
" style="fill: none; stroke: #000000; stroke-width: 0.8; stroke-linejoin: miter; stroke-linecap: square"/>
   </g>
   <g id="patch_5">
    <path d="M 57.6 307.584 
L 414.72 307.584 
" style="fill: none; stroke: #000000; stroke-width: 0.8; stroke-linejoin: miter; stroke-linecap: square"/>
   </g>
   <g id="patch_6">
    <path d="M 57.6 41.472 
L 414.72 41.472 
" style="fill: none; stroke: #000000; stroke-width: 0.8; stroke-linejoin: miter; stroke-linecap: square"/>
   </g>
   <g id="text_15">
    <!-- Simulation with default (y0, w0) and optimized c -->
    <g transform="translate(90.0825 35.472) scale(0.12 -0.12)">
     <defs>
      <path id="DejaVuSans-53" d="M 3425 4513 
L 3425 3897 
Q 3066 4069 2747 4153 
Q 2428 4238 2131 4238 
Q 1616 4238 1336 4038 
Q 1056 3838 1056 3469 
Q 1056 3159 1242 3001 
Q 1428 2844 1947 2747 
L 2328 2669 
Q 3034 2534 3370 2195 
Q 3706 1856 3706 1288 
Q 3706 609 3251 259 
Q 2797 -91 1919 -91 
Q 1588 -91 1214 -16 
Q 841 59 441 206 
L 441 856 
Q 825 641 1194 531 
Q 1563 422 1919 422 
Q 2459 422 2753 634 
Q 3047 847 3047 1241 
Q 3047 1584 2836 1778 
Q 2625 1972 2144 2069 
L 1759 2144 
Q 1053 2284 737 2584 
Q 422 2884 422 3419 
Q 422 4038 858 4394 
Q 1294 4750 2059 4750 
Q 2388 4750 2728 4690 
Q 3069 4631 3425 4513 
z
" transform="scale(0.015625)"/>
      <path id="DejaVuSans-75" d="M 544 1381 
L 544 3500 
L 1119 3500 
L 1119 1403 
Q 1119 906 1312 657 
Q 1506 409 1894 409 
Q 2359 409 2629 706 
Q 2900 1003 2900 1516 
L 2900 3500 
L 3475 3500 
L 3475 0 
L 2900 0 
L 2900 538 
Q 2691 219 2414 64 
Q 2138 -91 1772 -91 
Q 1169 -91 856 284 
Q 544 659 544 1381 
z
M 1991 3584 
L 1991 3584 
z
" transform="scale(0.015625)"/>
      <path id="DejaVuSans-6c" d="M 603 4863 
L 1178 4863 
L 1178 0 
L 603 0 
L 603 4863 
z
" transform="scale(0.015625)"/>
      <path id="DejaVuSans-77" d="M 269 3500 
L 844 3500 
L 1563 769 
L 2278 3500 
L 2956 3500 
L 3675 769 
L 4391 3500 
L 4966 3500 
L 4050 0 
L 3372 0 
L 2619 2869 
L 1863 0 
L 1184 0 
L 269 3500 
z
" transform="scale(0.015625)"/>
      <path id="DejaVuSans-68" d="M 3513 2113 
L 3513 0 
L 2938 0 
L 2938 2094 
Q 2938 2591 2744 2837 
Q 2550 3084 2163 3084 
Q 1697 3084 1428 2787 
Q 1159 2491 1159 1978 
L 1159 0 
L 581 0 
L 581 4863 
L 1159 4863 
L 1159 2956 
Q 1366 3272 1645 3428 
Q 1925 3584 2291 3584 
Q 2894 3584 3203 3211 
Q 3513 2838 3513 2113 
z
" transform="scale(0.015625)"/>
      <path id="DejaVuSans-64" d="M 2906 2969 
L 2906 4863 
L 3481 4863 
L 3481 0 
L 2906 0 
L 2906 525 
Q 2725 213 2448 61 
Q 2172 -91 1784 -91 
Q 1150 -91 751 415 
Q 353 922 353 1747 
Q 353 2572 751 3078 
Q 1150 3584 1784 3584 
Q 2172 3584 2448 3432 
Q 2725 3281 2906 2969 
z
M 947 1747 
Q 947 1113 1208 752 
Q 1469 391 1925 391 
Q 2381 391 2643 752 
Q 2906 1113 2906 1747 
Q 2906 2381 2643 2742 
Q 2381 3103 1925 3103 
Q 1469 3103 1208 2742 
Q 947 2381 947 1747 
z
" transform="scale(0.015625)"/>
      <path id="DejaVuSans-66" d="M 2375 4863 
L 2375 4384 
L 1825 4384 
Q 1516 4384 1395 4259 
Q 1275 4134 1275 3809 
L 1275 3500 
L 2222 3500 
L 2222 3053 
L 1275 3053 
L 1275 0 
L 697 0 
L 697 3053 
L 147 3053 
L 147 3500 
L 697 3500 
L 697 3744 
Q 697 4328 969 4595 
Q 1241 4863 1831 4863 
L 2375 4863 
z
" transform="scale(0.015625)"/>
      <path id="DejaVuSans-79" d="M 2059 -325 
Q 1816 -950 1584 -1140 
Q 1353 -1331 966 -1331 
L 506 -1331 
L 506 -850 
L 844 -850 
Q 1081 -850 1212 -737 
Q 1344 -625 1503 -206 
L 1606 56 
L 191 3500 
L 800 3500 
L 1894 763 
L 2988 3500 
L 3597 3500 
L 2059 -325 
z
" transform="scale(0.015625)"/>
      <path id="DejaVuSans-2c" d="M 750 794 
L 1409 794 
L 1409 256 
L 897 -744 
L 494 -744 
L 750 256 
L 750 794 
z
" transform="scale(0.015625)"/>
      <path id="DejaVuSans-70" d="M 1159 525 
L 1159 -1331 
L 581 -1331 
L 581 3500 
L 1159 3500 
L 1159 2969 
Q 1341 3281 1617 3432 
Q 1894 3584 2278 3584 
Q 2916 3584 3314 3078 
Q 3713 2572 3713 1747 
Q 3713 922 3314 415 
Q 2916 -91 2278 -91 
Q 1894 -91 1617 61 
Q 1341 213 1159 525 
z
M 3116 1747 
Q 3116 2381 2855 2742 
Q 2594 3103 2138 3103 
Q 1681 3103 1420 2742 
Q 1159 2381 1159 1747 
Q 1159 1113 1420 752 
Q 1681 391 2138 391 
Q 2594 391 2855 752 
Q 3116 1113 3116 1747 
z
" transform="scale(0.015625)"/>
      <path id="DejaVuSans-7a" d="M 353 3500 
L 3084 3500 
L 3084 2975 
L 922 459 
L 3084 459 
L 3084 0 
L 275 0 
L 275 525 
L 2438 3041 
L 353 3041 
L 353 3500 
z
" transform="scale(0.015625)"/>
     </defs>
     <use xlink:href="#DejaVuSans-53"/>
     <use xlink:href="#DejaVuSans-69" x="63.476562"/>
     <use xlink:href="#DejaVuSans-6d" x="91.259766"/>
     <use xlink:href="#DejaVuSans-75" x="188.671875"/>
     <use xlink:href="#DejaVuSans-6c" x="252.050781"/>
     <use xlink:href="#DejaVuSans-61" x="279.833984"/>
     <use xlink:href="#DejaVuSans-74" x="341.113281"/>
     <use xlink:href="#DejaVuSans-69" x="380.322266"/>
     <use xlink:href="#DejaVuSans-6f" x="408.105469"/>
     <use xlink:href="#DejaVuSans-6e" x="469.287109"/>
     <use xlink:href="#DejaVuSans-20" x="532.666016"/>
     <use xlink:href="#DejaVuSans-77" x="564.453125"/>
     <use xlink:href="#DejaVuSans-69" x="646.240234"/>
     <use xlink:href="#DejaVuSans-74" x="674.023438"/>
     <use xlink:href="#DejaVuSans-68" x="713.232422"/>
     <use xlink:href="#DejaVuSans-20" x="776.611328"/>
     <use xlink:href="#DejaVuSans-64" x="808.398438"/>
     <use xlink:href="#DejaVuSans-65" x="871.875"/>
     <use xlink:href="#DejaVuSans-66" x="933.398438"/>
     <use xlink:href="#DejaVuSans-61" x="968.603516"/>
     <use xlink:href="#DejaVuSans-75" x="1029.882812"/>
     <use xlink:href="#DejaVuSans-6c" x="1093.261719"/>
     <use xlink:href="#DejaVuSans-74" x="1121.044922"/>
     <use xlink:href="#DejaVuSans-20" x="1160.253906"/>
     <use xlink:href="#DejaVuSans-28" x="1192.041016"/>
     <use xlink:href="#DejaVuSans-79" x="1231.054688"/>
     <use xlink:href="#DejaVuSans-30" x="1290.234375"/>
     <use xlink:href="#DejaVuSans-2c" x="1353.857422"/>
     <use xlink:href="#DejaVuSans-20" x="1385.644531"/>
     <use xlink:href="#DejaVuSans-77" x="1417.431641"/>
     <use xlink:href="#DejaVuSans-30" x="1499.21875"/>
     <use xlink:href="#DejaVuSans-29" x="1562.841797"/>
     <use xlink:href="#DejaVuSans-20" x="1601.855469"/>
     <use xlink:href="#DejaVuSans-61" x="1633.642578"/>
     <use xlink:href="#DejaVuSans-6e" x="1694.921875"/>
     <use xlink:href="#DejaVuSans-64" x="1758.300781"/>
     <use xlink:href="#DejaVuSans-20" x="1821.777344"/>
     <use xlink:href="#DejaVuSans-6f" x="1853.564453"/>
     <use xlink:href="#DejaVuSans-70" x="1914.746094"/>
     <use xlink:href="#DejaVuSans-74" x="1978.222656"/>
     <use xlink:href="#DejaVuSans-69" x="2017.431641"/>
     <use xlink:href="#DejaVuSans-6d" x="2045.214844"/>
     <use xlink:href="#DejaVuSans-69" x="2142.626953"/>
     <use xlink:href="#DejaVuSans-7a" x="2170.410156"/>
     <use xlink:href="#DejaVuSans-65" x="2222.900391"/>
     <use xlink:href="#DejaVuSans-64" x="2284.423828"/>
     <use xlink:href="#DejaVuSans-20" x="2347.900391"/>
     <use xlink:href="#DejaVuSans-63" x="2379.6875"/>
    </g>
   </g>
   <g id="legend_1">
    <g id="patch_7">
     <path d="M 64.6 220.618625 
L 166.939062 220.618625 
Q 168.939062 220.618625 168.939062 218.618625 
L 168.939062 130.437375 
Q 168.939062 128.437375 166.939062 128.437375 
L 64.6 128.437375 
Q 62.6 128.437375 62.6 130.437375 
L 62.6 218.618625 
Q 62.6 220.618625 64.6 220.618625 
z
" style="fill: #ffffff; opacity: 0.8; stroke: #cccccc; stroke-linejoin: miter"/>
    </g>
    <g id="line2d_19">
     <path d="M 66.6 136.535812 
L 76.6 136.535812 
L 86.6 136.535812 
" style="fill: none; stroke: #cc79a7; stroke-width: 1.5; stroke-linecap: square"/>
    </g>
    <g id="text_16">
     <!-- Galpha_GTP -->
     <g transform="translate(94.6 140.035812) scale(0.1 -0.1)">
      <defs>
       <path id="DejaVuSans-47" d="M 3809 666 
L 3809 1919 
L 2778 1919 
L 2778 2438 
L 4434 2438 
L 4434 434 
Q 4069 175 3628 42 
Q 3188 -91 2688 -91 
Q 1594 -91 976 548 
Q 359 1188 359 2328 
Q 359 3472 976 4111 
Q 1594 4750 2688 4750 
Q 3144 4750 3555 4637 
Q 3966 4525 4313 4306 
L 4313 3634 
Q 3963 3931 3569 4081 
Q 3175 4231 2741 4231 
Q 1884 4231 1454 3753 
Q 1025 3275 1025 2328 
Q 1025 1384 1454 906 
Q 1884 428 2741 428 
Q 3075 428 3337 486 
Q 3600 544 3809 666 
z
" transform="scale(0.015625)"/>
       <path id="DejaVuSans-5f" d="M 3263 -1063 
L 3263 -1509 
L -63 -1509 
L -63 -1063 
L 3263 -1063 
z
" transform="scale(0.015625)"/>
       <path id="DejaVuSans-54" d="M -19 4666 
L 3928 4666 
L 3928 4134 
L 2272 4134 
L 2272 0 
L 1638 0 
L 1638 4134 
L -19 4134 
L -19 4666 
z
" transform="scale(0.015625)"/>
       <path id="DejaVuSans-50" d="M 1259 4147 
L 1259 2394 
L 2053 2394 
Q 2494 2394 2734 2622 
Q 2975 2850 2975 3272 
Q 2975 3691 2734 3919 
Q 2494 4147 2053 4147 
L 1259 4147 
z
M 628 4666 
L 2053 4666 
Q 2838 4666 3239 4311 
Q 3641 3956 3641 3272 
Q 3641 2581 3239 2228 
Q 2838 1875 2053 1875 
L 1259 1875 
L 1259 0 
L 628 0 
L 628 4666 
z
" transform="scale(0.015625)"/>
      </defs>
      <use xlink:href="#DejaVuSans-47"/>
      <use xlink:href="#DejaVuSans-61" x="77.490234"/>
      <use xlink:href="#DejaVuSans-6c" x="138.769531"/>
      <use xlink:href="#DejaVuSans-70" x="166.552734"/>
      <use xlink:href="#DejaVuSans-68" x="230.029297"/>
      <use xlink:href="#DejaVuSans-61" x="293.408203"/>
      <use xlink:href="#DejaVuSans-5f" x="354.6875"/>
      <use xlink:href="#DejaVuSans-47" x="404.6875"/>
      <use xlink:href="#DejaVuSans-54" x="478.552734"/>
      <use xlink:href="#DejaVuSans-50" x="539.636719"/>
     </g>
    </g>
    <g id="line2d_20">
     <path d="M 66.6 151.492062 
L 76.6 151.492062 
L 86.6 151.492062 
" style="fill: none; stroke: #0072b2; stroke-width: 1.5; stroke-linecap: square"/>
    </g>
    <g id="text_17">
     <!-- APLC -->
     <g transform="translate(94.6 154.992062) scale(0.1 -0.1)">
      <defs>
       <path id="DejaVuSans-41" d="M 2188 4044 
L 1331 1722 
L 3047 1722 
L 2188 4044 
z
M 1831 4666 
L 2547 4666 
L 4325 0 
L 3669 0 
L 3244 1197 
L 1141 1197 
L 716 0 
L 50 0 
L 1831 4666 
z
" transform="scale(0.015625)"/>
       <path id="DejaVuSans-4c" d="M 628 4666 
L 1259 4666 
L 1259 531 
L 3531 531 
L 3531 0 
L 628 0 
L 628 4666 
z
" transform="scale(0.015625)"/>
      </defs>
      <use xlink:href="#DejaVuSans-41"/>
      <use xlink:href="#DejaVuSans-50" x="68.408203"/>
      <use xlink:href="#DejaVuSans-4c" x="128.710938"/>
      <use xlink:href="#DejaVuSans-43" x="184.423828"/>
     </g>
    </g>
    <g id="line2d_21">
     <path d="M 66.6 166.170187 
L 76.6 166.170187 
L 86.6 166.170187 
" style="fill: none; stroke: #e69f00; stroke-width: 1.5; stroke-linecap: square"/>
    </g>
    <g id="text_18">
     <!-- IP3 -->
     <g transform="translate(94.6 169.670187) scale(0.1 -0.1)">
      <defs>
       <path id="DejaVuSans-49" d="M 628 4666 
L 1259 4666 
L 1259 0 
L 628 0 
L 628 4666 
z
" transform="scale(0.015625)"/>
      </defs>
      <use xlink:href="#DejaVuSans-49"/>
      <use xlink:href="#DejaVuSans-50" x="29.492188"/>
      <use xlink:href="#DejaVuSans-33" x="89.794922"/>
     </g>
    </g>
    <g id="line2d_22">
     <path d="M 66.6 180.848312 
L 76.6 180.848312 
L 86.6 180.848312 
" style="fill: none; stroke: #009e73; stroke-width: 1.5; stroke-linecap: square"/>
    </g>
    <g id="text_19">
     <!-- Ca_ER -->
     <g transform="translate(94.6 184.348312) scale(0.1 -0.1)">
      <defs>
       <path id="DejaVuSans-45" d="M 628 4666 
L 3578 4666 
L 3578 4134 
L 1259 4134 
L 1259 2753 
L 3481 2753 
L 3481 2222 
L 1259 2222 
L 1259 531 
L 3634 531 
L 3634 0 
L 628 0 
L 628 4666 
z
" transform="scale(0.015625)"/>
      </defs>
      <use xlink:href="#DejaVuSans-43"/>
      <use xlink:href="#DejaVuSans-61" x="69.824219"/>
      <use xlink:href="#DejaVuSans-5f" x="131.103516"/>
      <use xlink:href="#DejaVuSans-45" x="181.103516"/>
      <use xlink:href="#DejaVuSans-52" x="244.287109"/>
     </g>
    </g>
    <g id="line2d_23">
     <path d="M 66.6 195.804562 
L 76.6 195.804562 
L 86.6 195.804562 
" style="fill: none; stroke: #7f7f7f; stroke-width: 1.5; stroke-linecap: square"/>
    </g>
    <g id="text_20">
     <!-- Ca_Cyt -->
     <g transform="translate(94.6 199.304562) scale(0.1 -0.1)">
      <use xlink:href="#DejaVuSans-43"/>
      <use xlink:href="#DejaVuSans-61" x="69.824219"/>
      <use xlink:href="#DejaVuSans-5f" x="131.103516"/>
      <use xlink:href="#DejaVuSans-43" x="181.103516"/>
      <use xlink:href="#DejaVuSans-79" x="250.927734"/>
      <use xlink:href="#DejaVuSans-74" x="310.107422"/>
     </g>
    </g>
    <g id="line2d_24">
     <path d="M 66.6 210.760812 
L 76.6 210.760812 
L 86.6 210.760812 
" style="fill: none; stroke-dasharray: 1.5,2.475; stroke-dashoffset: 0; stroke: #7f7f7f; stroke-width: 1.5"/>
    </g>
    <g id="text_21">
     <!-- target_Ca_Cyt -->
     <g transform="translate(94.6 214.260812) scale(0.1 -0.1)">
      <defs>
       <path id="DejaVuSans-67" d="M 2906 1791 
Q 2906 2416 2648 2759 
Q 2391 3103 1925 3103 
Q 1463 3103 1205 2759 
Q 947 2416 947 1791 
Q 947 1169 1205 825 
Q 1463 481 1925 481 
Q 2391 481 2648 825 
Q 2906 1169 2906 1791 
z
M 3481 434 
Q 3481 -459 3084 -895 
Q 2688 -1331 1869 -1331 
Q 1566 -1331 1297 -1286 
Q 1028 -1241 775 -1147 
L 775 -588 
Q 1028 -725 1275 -790 
Q 1522 -856 1778 -856 
Q 2344 -856 2625 -561 
Q 2906 -266 2906 331 
L 2906 616 
Q 2728 306 2450 153 
Q 2172 0 1784 0 
Q 1141 0 747 490 
Q 353 981 353 1791 
Q 353 2603 747 3093 
Q 1141 3584 1784 3584 
Q 2172 3584 2450 3431 
Q 2728 3278 2906 2969 
L 2906 3500 
L 3481 3500 
L 3481 434 
z
" transform="scale(0.015625)"/>
      </defs>
      <use xlink:href="#DejaVuSans-74"/>
      <use xlink:href="#DejaVuSans-61" x="39.208984"/>
      <use xlink:href="#DejaVuSans-72" x="100.488281"/>
      <use xlink:href="#DejaVuSans-67" x="139.851562"/>
      <use xlink:href="#DejaVuSans-65" x="203.328125"/>
      <use xlink:href="#DejaVuSans-74" x="264.851562"/>
      <use xlink:href="#DejaVuSans-5f" x="304.060547"/>
      <use xlink:href="#DejaVuSans-43" x="354.060547"/>
      <use xlink:href="#DejaVuSans-61" x="423.884766"/>
      <use xlink:href="#DejaVuSans-5f" x="485.164062"/>
      <use xlink:href="#DejaVuSans-43" x="535.164062"/>
      <use xlink:href="#DejaVuSans-79" x="604.988281"/>
      <use xlink:href="#DejaVuSans-74" x="664.167969"/>
     </g>
    </g>
   </g>
  </g>
 </g>
 <defs>
  <clipPath id="pfb953fc6d0">
   <rect x="57.6" y="41.472" width="357.12" height="266.112"/>
  </clipPath>
 </defs>
</svg>
